<?xml version="1.0" encoding="UTF-8"?>
<svg xmlns="http://www.w3.org/2000/svg" version="1.1" viewBox="0 0 1773 1773">
  <defs>
    <style>
      .cls-1 {
        fill: #d2ab68;
      }
    </style>
  </defs>
  <!-- Generator: Adobe Illustrator 28.7.1, SVG Export Plug-In . SVG Version: 1.2.0 Build 142)  -->
  <g>
    <g id="Camada_1">
      <g>
        <path class="cls-1" d="M-1103.9-943.7c0,0,.2,0,.3,0,0,0,0,0,0-.1,9-62.5,13.8-95.9,14.5-100.3.3-2.3,1.4-8.8,3.2-19.6.1-.6.5-1,1.1-1,2-.2,4.1-.3,6.2-.3,28,0,49.2-.1,63.7,0,.3,0,.6.3.6.6,0,0,0,0,0,0l-35.7,218.1c0,.4-.4.7-.8.7h-88.4c-.3,0-.6-.2-.6-.5-1.4-10.6-3.5-23.8-6.1-39.8-4.2-26.2-7.1-44.1-8.6-53.9-.7-4.4-1.4-8.4-2.3-12-.4-1.9-.8-1.9-1,0-.4,3.7-1,7.4-1.7,11.3-1.1,6.1-1.8,9.9-2,11.3-2,12.5-5.9,36.3-11.8,71.6-.6,3.8-1.2,7.5-1.7,11.2,0,.4-.3.6-.7.7-3.9.2-7.7.3-11.4.2-27.2-.2-52.7-.2-76.6-.1-.3,0-.6-.2-.6-.5l-26.6-162.3c-.2-1.1-.8-1.6-1.9-1.6-31.2,0-63.9,0-98.1,0-3.8,0-7.3,0-10.6.2-.6,0-1.1.5-1.1,1.1v107.7c0,.5.4,1,1,1h16c.4,0,.7-.3.7-.7.4-13.1.4-26.3,0-39.4,0-.5.2-.8.8-.8h69.5c.5,0,.9.4.9.8.4,19.7,0,44.2,0,58.5,0,9.2-.4,15.3-1.3,18.4-4.4,14.1-18.2,17.6-31.8,17.6-55.5,0-87.3,0-95.5,0-6.7,0-12.9-1.4-18.7-4.2-6.9-3.3-10.7-8.7-12.2-15.8-.9-4.4-.8-9-.8-13.8,0-34.2,0-77.4,0-129.5,0-.6-.5-1.1-1.1-1.1l-231.1.2c-.7,0-1-.3-1-1v-52.3c0-.8.4-1.3,1.3-1.3l231.2-.2c.5,0,.7-.2.7-.7v-74c0-.7.6-1.2,1.2-1.2h69.2c.6,0,1.1.5,1.1,1.1h0v74.4c0,.5.4.9.9.9,0,0,0,0,0,0,1.2,0,2.6-.1,4.2-.2,3.3-.1,29.7-.2,79.2-.3,6.3,0,12.9,0,20-.2,23-.3,45.8-.3,68.4-.1.7,0,1.2.5,1.3,1.2,6.6,46.5,12.3,85,17.1,115.7,0,.2.3,1.5.8,3.8.3,1.4.6,1.3.8,0,.5-2.8.4-5.3.9-8.8,6.3-43.2,11.6-80,15.9-110.4.1-.9.9-1.5,1.8-1.5h69.1c.4,0,.7.3.7.6,5.6,40.5,11.4,80.6,17.5,120.4,0,.2.1.3.2.5Z"/>
        <path class="cls-1" d="M-930.1-900h48.7c.4,0,.7.3.7.7v53.1c0,.3-.3.6-.6.6h-120.1c-.6,0-.9-.3-.9-.9.2-13.6.2-24.5.2-32.8,0-75.2,0-136.7,0-184.3,0-.8.6-1.4,1.4-1.4h119.2c.4,0,.7.3.7.7-.1,18.4,0,36.2.2,53.3,0,.5-.4.9-.9.9,0,0,0,0,0,0h-48.1c-.7,0-1.2.6-1.2,1.2h0v25.1c0,.7.4,1,1,1h48.2c.4,0,.7.3.7.7h0v53.4c0,.5-.4.9-.9.9h-48.3c-.4,0-.8.3-.8.8h0v26.5c0,.3.2.5.5.5Z"/>
        <path class="cls-1" d="M-789.5-983.6c0,.5.4.8.8.8h47.6c.7,0,1.3.6,1.3,1.3h0v52.6c0,.6-.5,1.1-1.1,1.1,0,0,0,0,0,0-8.5,0-23.9,0-46.2,0-.7,0-1.2,0-1.6.2-.6.3-.9.7-.9,1.4v25c0,.6.5,1.1,1.1,1.1h47.4c.7,0,1.3.6,1.3,1.3v52.3c0,.4-.3.7-.7.7-7.8.5-17.1.2-23.1.1-19.5,0-51.6,0-96.1,0-.9,0-1.5-.7-1.5-1.5,0,0,0,0,0,0,.2-8.2.3-15.7.3-22.7,0-26.5-.1-91.4,0-194.7,0-.3.2-.5.5-.5h119.9c.5,0,.8.3.8.8v53c0,.6-.5,1-1.1,1h-47.6c-.6,0-1.1.5-1.1,1.1v25.5Z"/>
        <path class="cls-1" d="M-559.4-832c0,.2.2.4.5.4H-169.1c1.1,0,1.6.5,1.6,1.6v51.9c0,.5-.4.9-.9.9-2,0-4.1,0-6.3,0-60.6.1-196.6.2-407.9.1-10.7,0-17.3-.3-19.9-.8-7.6-1.5-14.5-5-20.5-10.4-4.7-4.2-7.3-9.2-7.5-15.2-.5-14.3-.1-28.1-.4-39.6-.2-8.2-.3-14.9-.2-20,0-30.2,0-79.1,0-146.4,0-.4-.3-.7-.7-.7h-15.3c-.6,0-1.1.4-1.3,1-.2.7-.2,2.2-.2,4.4,0,47.6,0,100.3,0,158.2,0,.6-.5,1-1,1h-70.2c-.3,0-.6-.3-.6-.6,0,0,0,0,0,0,.2-2.4.2-4.9.2-7.6,0-76.2,0-146.4,0-210.5,0-.5.2-.8.8-.8h69.7c.5,0,.9.4.9.8.2,4,0,7.6-.3,10.6,0,.6.3,1.1.9,1.1.2,0,.5,0,.7-.1,8.9-5.4,18.8-9,29.5-10.7,11.4-1.8,22.5-2.2,33-1.1,3.4.3,6.8,1.2,10.2,2.6,7.3,3,12,8.1,14,15.5,1.3,4.7,1.1,9.8,1.1,15,0,89.3,0,154.5,0,195.5,0,1.3.1,2.6.4,3.8Z"/>
        <path class="cls-1" d="M-452.4-900.7v-26.1c0-.5-.4-1-1-1-25.7-.2-41.9-.2-48.7,0-6,.1-12-.3-17.9-1.4-9.1-1.6-17.9-7.9-20.3-17-.8-2.9-1.1-6.3-1.1-10.3,0-48.6,0-76,0-82.2.2-18.5,14.3-25.2,30.5-26,4.2-.2,6.9-.3,8.1-.3,27.8,0,55.2,0,82,0,4.1,0,9.1.3,11.8.5,4.7.3,9.2,1.3,13.3,3.1,7.3,3.2,12,8.7,13.8,16.4.4,1.6.6,4.6.6,8.8,0,20.4.1,33.4.2,39.1,0,.3-.2.5-.5.5,0,0,0,0,0,0h-69.9c-.5,0-1-.4-1-1v-11.5c0-.5-.3-.8-.8-.9-5.3-.3-10.5-.3-15.6,0-.6,0-1.1.6-1.1,1.2v25.4c0,.4.3.7.7.7s0,0,0,0c17.9-.1,36.4-.2,55.7-.1,2.6,0,6.7.6,12.1,1.7,7.2,1.5,14,5.5,17.5,12.3,1.9,3.7,2.9,7.6,2.8,11.4-.1,29.6-.1,56.2,0,79.6,0,7.3-.4,12.3-1.4,15-2.8,8.1-9,13.2-18.6,15.4-5,1.1-10.3,1.7-15.8,1.7-45.9,0-76.5,0-91.7,0-15.3,0-31.6-5.9-32.4-23.7-.5-10.7-.6-25.3-.3-43.9,0-.3.3-.6.6-.6h69.9c.6,0,1.2.5,1.2,1.2h0v11.1c0,.9.7,1.6,1.6,1.6h15.1c.4,0,.6-.2.6-.6Z"/>
      </g>
      <g>
        <path class="cls-1" d="M-936.4,289c2.5,8.2-.2,17.5-8,28-1.2,1.6-2.7,1.9-4.4.7-2.4-1.6-4.7-1.5-7,.1-15.8,11.5-22.7,27.8-20.7,49.1.3,2.6-.7,3.2-3,1.9l-1.8-1c-.3-.2-.5-.5-.6-.8-1.9-20.2,3.6-36,16.5-47.4,3.6-3.1,4-8.5,1-12.3-4.5-5.7-6.9-10.3-7.2-13.8-.1-1.3.4-2,1.7-2.2l3.2-.5c1.2-.2,1.8.3,1.8,1.5.3,9.3,4.2,15.9,11.9,19.8,2.2,1.1,4.1.7,5.7-1.2l6.9-8.2c1.3-1.6,1.4-3.2,0-4.9-2.4-2.9-1.9-5.9,1.4-8.9h2.5Z"/>
        <path class="cls-1" d="M-1000.6,359.6l14.2,14.2c.7.7.6,1.8,0,2.5-.5.5-1.3.6-1.9.3-7.1-3.6-11.9-9.6-14.2-17.8-.6-1.9-2-3.4-3.9-4-7.9-2.5-14-7.1-18.3-13.6-5-7.5-3.7-17.1,2.8-21.6.3-.2.6-.4.9-.6,1.3-.7,2.3-1.8,2.9-3.1.9-2,.7-4-.7-5.7-3.7-4.7-5.5-10.1-5.6-15.9,0-4,.9-4,2.9,0,1,1.9,3.3,7.3,7.1,16.1,1.9,4.5,4.6,6.5,8.3,6,7.5-1,14.4,4.1,15.4,11.4.1.8.1,1.6.1,2.3-.3,7.8-3.6,14.5-9.9,20.3-2.6,2.4-2.8,6.5-.4,9.2,0,0,.1.2.2.2ZM-997,339.6c3.8-5.1,2.7-12.2-2.3-16l-4.3-3.2c-5.1-3.8-12.2-2.7-16,2.3,0,0,0,0,0,0l-2.5,3.4c-3.8,5.1-2.7,12.2,2.3,16l4.3,3.2c5.1,3.8,12.2,2.7,16-2.3,0,0,0,0,0,0l2.5-3.4Z"/>
        <path class="cls-1" d="M-877.7,293.9c-21.3,43.1-38.8,87.7-52.4,134-3.8,0-5.1-1.7-4-5.1,13.6-43.4,30.6-85.4,50.8-126,4.2-8.4,6.1-9.4,5.6-2.9Z"/>
        <path class="cls-1" d="M-999.5,298.9c.7-1,1.5-1.2,2.2-.4.2.2.2.6,0,.8,0,0,0,0-.1,0-2.3,1-2.9.9-2-.5Z"/>
        <path class="cls-1" d="M-1246.9,349.6c10.1-19.5,4.4-33.1-17.1-40.6-6.2-2.1-15-1.6-26.3,1.6-7.3,2.1-14,7.1-20.2,15.2-11.2,14.5-17.8,30.5-19.9,48.1,0,.4-.5.7-.9.7-.2,0-.3,0-.4-.2l-1.3-1.3c-.3-.3-.5-.8-.5-1.3,2.9-29.3,16.9-51,41.9-65.1,1.9-1.1,4.1-1.4,6.3-1,7.1,1.6,12.9,1.5,17.3,0,2-.8,4.2-.7,6.2.1,12.8,5.3,28.5,17.3,23.1,32.9-3,8.6-7.2,15.3-12.7,19.9-1,.9-2.4,1.2-4,1.1-2.5-.2-2.7-1-.6-2.4,2.5-1.5,4.4-2.7,5.6-3.5,1.2-.8,2.3-2.2,3.4-4.3Z"/>
        <path class="cls-1" d="M-1271.7,340.7c-4.1,2.9-3.9,6.5.5,11,0,.1,1.9.7,5.6,1.7,1.3.3,2.5,1.3,3.3,2.9,1.4,2.5.7,3.6-2.2,3.2-6.1-.8-10.6-4.8-13.6-12.1-1.5-3.6.3-7.7,3.9-9.2.6-.2,1.2-.4,1.8-.5,9.2-1.1,14.6,1,16.1,6.3.5,1.6,0,2.8-1.3,3.7-.8.6-1.3.9-1.6,1-.2.1-.4,0-.6-.2,0,0,0,0,0,0l-2.1-4.6c-1.6-3.5-5.5-5.2-8.8-3.8-.4.2-.7.4-1,.6Z"/>
        <path class="cls-1" d="M-944.3,420.8c-7.4-15.9-24.4-28.2-38.1-38.8-1.7-1.3-1.9-2.9-.5-4.6l1.4-1.6c1.1-1.3,2.3-1.3,3.4,0,7.1,8.4,16.2,17,27.1,25.6,5.6,4.4,9.1,12.3,10.1,18.5,1.3,8,.2,8.3-3.3.8Z"/>
        <path class="cls-1" d="M-1323.5,412.5c8.9,13.7,16.7,24.5,23.3,32.6.6.6.7,1.1.3,1.6h0c-.4.5-.9.5-1.5,0-19.2-16.7-29.1-36.7-29.6-59.8,0-.6.5-1,1.1-1,.4,0,.8.3.9.7.5,1.7,1.2,6.1,1.9,13.4.5,5.4,1.7,9.6,3.7,12.5Z"/>
        <path class="cls-1" d="M-1201.8,755.2c29.1-13.1,48.2-22.1,57.2-26.8,23.7-12.5,45.6-29.6,65.8-51.3,5.3-5.7,11.8-11,19.5-13.5,1.9-.6,4.3-2.6,7.2-6.2,19.1-23.1,34.6-43.8,46.5-62.1,11.1-17.2,22.6-40.2,34.4-69,10.2-24.9,19.9-48.7,29.2-71.5,24.9-23.6,51.4-38.6,79.4-44.8,6.8-1.5,12.3-1.2,16.5.8,6.3,3.1,9.8,8.2,10.6,15.2.9,7.2-3.5,13.9-10.4,16-13.2,3.9-22-.8-26.2-14.3-.3-1,0-2.3.6-2.9.5-.5,1.1-.4,1.5.1l6.3,9.8c1.2,1.9,2.9,3.2,5.1,4,7.9,2.9,14.3.7,19.1-6.5,1.3-1.9,1.5-3.9.8-5.9-5.1-15.3-17.8-17.6-30.4-10.1-5.4,3.2-11.2,1.4-17.2,4.6-25.6,13.7-41.7,25.1-48.3,34-7.4,10-16.4,31.4-27.1,64.2-3.7,11.3-15.1,24.6-14.4,36.2.1,2.3-.4,4.3-1.6,6.2-22.6,34.3-42.3,62.3-58.8,83.9-7.4,9.7-16,18.4-25.9,26.1-10.7,8.4-24.5,23.1-37.2,32.4-27.3,19.8-58.3,37-92.9,51.6-3.7,1.5-6.6,1.5-8.9-.2Z"/>
        <path class="cls-1" d="M-1205,755.8c.3,1.2-.1,2-1.2,2.4-22.5,8.3-45.1,16-67.9,23.3-22.2,7.1-41.8,14.2-58.9,21.4-36.6,15.5-55.9,23.6-57.9,24.5-14.7,6.3-27.1,12.5-37.2,18.8-11.8,7.4-11.1,8.9,2.2,4.7,114.6-36.6,233.7-43.8,357.2-21.4,7,1.2,13.8-3,15.7-9.8,5.4-18.8,10.4-34.7,15-47.9,5.7-16.4,11.9-27.3,18.8-32.7,13.1-10.3,27.9-9.7,44.1,1.6,1.7,1.2,1.7,2.4,0,3.5-8.8,5.7-15,12.1-18.7,19.2-15.7,30-27.2,57.7-50.5,62.8-12.8,2.7-12.8,5.6-.1,8.6,14.8,3.5,36.6,8.9,65.4,16.3,14.5,3.7,27.7,4.3,39.6,1.9,11.8-2.4,24.8-5.8,38.8-10.2,15.1-4.7,26.2-13.7,33.5-27.1,12.9-23.5,4.2-42.1-24.4-40.7-9.6.5-15.7,4.3-18.4,11.4-4.9,12.7-.8,22,12.1,28,.3.2.4.3.4.5l-.7,1.5c-.4,1-1.2,1.3-2.2.8-6.9-3-11.1-6-12.5-9.2-6-13-3.1-31.2,12.5-35.4,15.5-4.2,27.2-2.7,35.1,4.6,13.5,12.6,14.1,26.8,1.6,42.5-15.5,19.5-35.2,30-59.2,31.5-.5,0-.9.3-1.1.8l-1.1,2.3c-.8,1.8-.2,2.8,1.8,3,24.1,2,45,5.1,62.8,9.3,11.6,2.7,21.6-.7,33,.3,1.4,0,2.5-1,2.6-2.3,0-.7-.2-1.4-.7-1.9l-8.4-8.4c-1.6-1.6-1.7-4.2-.3-5.9l11.6-13.7c1.7-2,3.5-2.1,5.4-.5,10.3,8.5,12.9,15.9,7.9,22-5.9,7.2-4.5,9.2,4.3,5.9l43-16.1c.3.5.3,1.2,0,1.9-.2.7-.7,1.3-1.4,1.6-17.5,8.7-35,15.2-52.4,19.6-2.2.5-3.8,1.8-4.7,3.9-3.4,7.7-5.3,15.4-5.9,23.2-.1,1.7-.9,2.1-2.4,1.2l-1.8-1c-.4-.3-.7-.7-.7-1.2.2-7.8,1.6-14.1,4.2-19.1,1-1.9.2-4.3-1.7-5.3-.6-.3-1.3-.4-1.9-.4-6.8.3-15.7,3.5-24.4,1.9-16.1-3-33.2-5.3-51.3-6.7-13.2-1-25.3-7.2-38.8-5.7-4.9.6-5.1,1.9-.7,4,24.3,11.6,64.1,26.9,90.7,43.8,34.1,21.6,67.1,44.8,99.1,69.5,5.6,4.4,6.5,10.8,12.1,15.9,52.1,48.3,90.2,106.2,114.3,173.7,3,8.2,6.9,28.5,11.9,60.8.3,2.1,1.6,3.5,3.7,4,15.4,4.3,30.7,7.6,45.7,9.9,7.8,1.2,14.3.6,19.5-1.8,3.7-1.8,8-3.1,12.8-4,10.1-1.9,19.2-13,21.8-21.6,1.9-6.1.7-11.5-3.5-16.2-8.9-9.9-19.4-10.4-31.6-1.3-4.8,3.6-6.2,10-3.1,14.3.1.2.3.4.4.6l7.8,8.9c2.2,2.6,1.7,3.2-1.4,1.9-12.1-5-16.9-21.8-5.4-29.7,15-10.3,33.4-8,40.5,8.9,2.4,5.6,1.7,12.2-2.2,19.9-6.8,13.5-18.9,20.4-36.1,21-1.6,0-2.4.8-2.5,2.4,0,.1,0,.7.2,1.7,0,.3.3.6.7.8,7.2,3,17.9,5.2,31.9,6.5,14.6,1.4,25.2,2.1,31.7,2.2,16,.3,31.9-3.7,47.7-11.9,7.2-3.7,11.4-8.3,12.7-13.6.4-1.8,1.5-2.3,3.1-1.5l2.1,1c1,.4,1.9.3,2.7-.3,1.1-.7,1.8-1.9,2.2-3.4.4-2,.5-3.5.1-4.6-4.7-14.8,0-26.9,14.3-36.4,15.8-10.6,26.8-1.7,38.7,12.3,1.3,1.6,3,2.7,5,3.3,4.2,1.3,6.6,2.2,7.2,2.5,3.1,1.7,3.2,2.9.1,3.5-2,.4-4.5,0-7.4-1.2-6.1-2.7-12.8-8.1-20.3-16.3-4.6-5.1-12.1-6.5-18.2-3.4-5.3,2.7-10.5,7.1-15.6,13.2-4.7,5.7-4.1,13.1,1.9,22.3,1.7,2.6,4.1,3.5,7.1,2.6,16-4.7,32.2-7,48.8-7.1,1.2,0,1.6.6,1,1.7l-.9,1.9c0,.2-.2.3-.4.3-15.7,0-30.3,2-44,5.8-4.8,1.3-6.6,4.5-5.4,9.4,4.9,19.2,15,30,30.5,32.6,2.1.3,4.2-.1,5.9-1.3,6.8-4.6,11.6-11.2,14.2-19.9,5-16.9,9-29.1,12-36.4.7-1.9,2-3.4,3.8-4.4l24.3-14c1.1-.7,2.4-.9,3.7-.5,5.1,1.3,8.7.6,10.8-2.3,1.5-2,3.4-2.9,5.9-2.7,11.9.8,24.3-5.3,37-18.4,14.2-14.4,40.4-33.2,78.9-56.2,1.8-1.1,2.7-2.7,2.8-4.8.3-9.4,4.5-17.6,12.7-24.6,5-4.2,12.4-3.6,16.7,1.4.2.2.4.4.5.7,8.1,11,11.7,27.3-1.4,36.8-7.9,5.7-16.4,5-25.7-2.2-1.8-1.4-3.7-1.7-5.8-.8-14.5,6-26.3,12.9-35.5,20.6-19.2,16.1-29.2,24.4-29.9,25-11.1,8.7-20.9,18.4-29.1,29.2-12.5,16.5-16.9,36-13,58.4,5.8,33.7,6.2,60.5,1.2,80.5-.3,1.3-1.1,2.5-2.1,3.5-19.5,18.9-44,26.8-73.5,23.9-16.4-1.7-29.5-6.7-39.2-15.2-17.9-15.7-28.7-38.6-32.4-68.6,0-.1,0-.2.1-.3l1.6-1c1-.5,1.5-.2,1.6.8,2.7,31.5,21.6,68.1,52.6,78,17.8,5.7,37.2,4.7,58.1-2.9,27.4-10,34.5-28.5,32.8-55.9-.8-13.6-.1-22.5-2.7-33.2-4.4-18.7-5.6-47.9,6.5-64.9,2.5-3.5,1.6-5.5-2.7-5.9-1.8-.2-4.7.8-8.6,2.9-3,1.6-5.5,3.9-7.4,6.7-7.6,11-13.6,18.7-16.8,30.1-7.4,26.4,3.1,61.2-28.7,86.1-.1.1-.3.2-.5.1l-1.6-.3c-1.1-.2-1.2-.6-.5-1.4,14-14,21.4-26.3,22.3-36.8,1.5-18,3.2-33.3,5-45.8,1.7-11.4,7.2-21.7,16.7-31,1.1-1,1.1-2.6,0-3.7-.6-.6-1.5-.9-2.4-.8l-8.5,1.3c-3.7.6-6.8,2.3-9.3,5.1-3,3.5-7.8,7.6-14.4,12.1-1.7,1.2-3,2.9-3.7,4.9-6.1,18.9-10.7,31.2-13.8,37-12.2,22.6-31.5,16.7-43.6-.5-5.7-8.1-9.3-16.6-10.6-25.6-.3-2.5-.9-2.5-1.7-.1l-6,19.1c-.2.5-.8.9-1.3.7-.2,0-.3-.2-.5-.3-.5-.5-.9-1.1-1.2-1.8-1.1-2.6-3-3.3-5.6-2.2-11.9,5.1-25.9,13.8-40.7,15.5-28.8,3.1-52,2.6-69.5-1.7-40.7-10-66.8-16-78.5-18.1-2.2-.4-3.4.5-3.5,2.8-.6,9.8-2.8,27.6-6.6,53.2-3.6,23.8,1,45.8-5.6,68.5-1.6,5.4-1.4,12.4.5,21.1.5,2.4,1.8,3,3.9,1.7,7.1-4.4,15.3-4.3,24.5.2,3.9,1.9,5.5,6.6,3.6,10.5-.4.8-.9,1.5-1.5,2.1-9,9.3-19,9.4-30.1.3-1.4-1.2-3.3-1.7-5.1-1.4-13.4,2.2-21.7-2-25.1-12.8-.8-2.6-2.1-2.9-3.8-.7-20.8,26.2-39.3,44.6-55.3,55.3-29.6,19.6-60.3,28.4-92.2,26.4-57.7-3.7-96-69.7-97.5-122.7-1.1-37.7,9.2-67.9,30.8-90.5,22.2-23.3,48.7-37.6,79.5-42.9,23.4-4.1,46.8-5,70.2-2.8,30.7,2.9,62.2,8.2,94.6,15.9,1.3.3,2.5-.5,2.8-1.8,0-.2,0-.5,0-.7-4.3-42.7-17.6-82.8-39.8-120.5-44.5-75.5-105.3-136.1-182.3-181.7-1.8-1.1-3.9-1.7-6.1-1.7-3.5,0-7.5-.7-10.4-3.1-13.9-11.7-29.3-21.4-46.2-29.1-48.8-22-99.9-38.4-153.3-49-2.5-2.6-6.3-3.5-11.3-2.7l-134.1-11.4c-.9,0-1.4.3-1.7,1.1l-.7,2.3c-.1.4,0,.7.5.8,11.4,1.7,21.9,5.7,31.5,12,1.6,1.1,2.5,2.2,2.7,3.3.1.8,0,1.5-.1,2.3-.5,1.7,0,2.9,1.6,3.6,23.6,10.6,39.8,29,48.7,55.1,5.2,15.3,3.9,32.7-4,52.2-1,2.4-4.6,9.9-10.9,22.5-1,2-2.3,2.3-4.1.9-15.5-12.2-23.7-18.9-24.8-20.2-12.9-15,8.4-37.9,16.8-50.7,2.4-3.5,3.4-10.4,3-20.6,0-.9.5-1.5,1.5-1.7h0c1.1-.3,1.7.2,1.8,1.5,2.5,24.9-14.8,38.2-21.7,51.3-2.7,5.2-1.3,12.6,3.7,18.7,2.4,2.9,7.6,7,15.7,12.3,4.8,3.2,8.2,2.1,10.3-3.3,9.8-25.9,15.9-41.3,6.6-67.3-3.2-9.1-9-17-17.2-23.8-4.5-3.7-13.1-11.7-25.9-24-6.6-6.4-12.4-10.2-17.5-11.6-33.9-9.5-62.3-13.4-99-9.1-53.3,6.2-106.1,18.7-158.3,37.4-65,23.2-128.4,54.3-190.4,93.3-2.2,1.4-2,2.2.6,2.3,6.6.3,12.9-1,18.9-4,10.2-5,15.9-7.7,16.9-8,33.2-10.7,66.6-17.4,100.2-20.2,50.6-4.2,100.6,5.7,143.2,32.4,16.2,10.1,27.2,16.7,33,19.7,1.9,1,3.4,2.6,4.1,4.6,1.5,3.9,4,7.5,7.7,10.8,1.7,1.5,2.9,3.4,3.5,5.6,3,11.4,10,22,21,31.9,1,.9,2.5.8,3.4-.1.4-.4.6-.9.6-1.4l2.4-32.8c.4-4.8-2-9.9-6.4-13.6-1.6-1.3-4.2-1.7-7.9-1-2.4.4-4.1,1.7-5.4,3.8l-1.4,2.5c-1.3,2.2-2.7,2.3-4.2.2l-6.4-9.3c-2.1-3.1-1.8-7.2,1-12.2,7.7-13.8,17.9-18.6,30.6-14.5.6.2,1.1.5,1.6,1,1.2,1.2,1,1.8-.8,1.8-15.7-.7-25.5,6.8-29.5,22.5-.6,2.3.8,4.7,3.1,5.3.8.2,1.6.2,2.4,0,2.3-.7,4.5-2,6.7-3.9,1.7-1.4,3.6-2.2,5.8-2.2,9.1,0,14.2,3.9,15.5,11.4,1,6.1-.3,20.9-3.8,44.7-.3,1.8.4,3.7,1.8,4.8l8.9,7.4c.2.2.3.5.2.8-.3.8-1,1-2,.7-10.3-3-17.5-7.4-21.5-13.3-6.1-9-12.8-16.5-20.1-22.6-1.4-1.2-2.1-2.7-2-4.6,0-.6,0-1.2-.1-1.8-.2-1.3-.8-2.2-1.9-2.9-6.7-4.3-11.2-10.1-13.3-17.4-.6-2-1.7-3.7-3.4-5-37.3-29.3-75.5-45.5-114.7-48.7-59.1-4.7-112.5,2.9-160.3,22.8-17.6,7.3-28.8,12-33.6,14.1-15.8,7-26.5,12-31.9,15.1-8.7,4.8-18.5,11.4-29.3,19.6-13.3,10-23.6,17.6-30.9,22.8-14.3,10.1-41.2,33.3-80.7,69.4v-11.6l82.1-75c1.5-1.4,3.3-1.8,5.3-1.1,2.4.8,4.4.5,5.8-.7,26.1-22.6,56.1-43.8,90-63.4,24.4-14,48.7-33.6,74.8-48.1,8.7-4.8,17.2-1.4,24.8-5.2,20.5-10.2,47.7-22.5,81.7-37,8.7-3.7,19-9.5,30.8-17.5,10.9-7.4,21.4-13,31.3-17,12-4.8,35.7-14.6,71.3-29.3,32.7-13.5,69.8-22,101.2-37.2,8.2-4,14.5-8.4,18.7-13.3,7.1-8,14.5-11.2,23-20.5,38.3-41.8,55-90.3,50.2-145.4-2.4-27-13.5-52.2-33.3-75.8-6-7.1-12.5-12.5-19.5-16.2-9.7-5.1-18.3-13.9-30.4-17.9-26.4-8.6-51.6-12.6-75.5-12.1-27.8.6-58.6,12-78.4,35.4-19.2,22.8-30,44.5-32.4,65.2-2.8,24.2,4.7,46.4,22.3,66.6,20.4,23.3,44.8,32.4,73.2,27.4,21.8-3.8,39.6-17.7,53.4-41.5,24.8-42.8,7.1-91.8-40.9-105-27.3-7.4-45,3.8-60.3,27.3-12.4,18.9-8.9,33.5,10.6,44,1.8,1,4.1.4,5.1-1.4.4-.7.6-1.6.4-2.4-1.5-10.1,2.6-14.8,12.5-14.1,2.7.2,4.6,1.3,5.7,3.4,1.3,2.7.7,3.3-2,1.8-2.7-1.5-5.1-2.2-7.4-2.2-2.4,0-3.9,1.2-4.8,3.5-.9,2.4-1.2,4.6-.8,6.7.4,2.5,1.9,3.7,4.4,3.6,4.4-.2,8.1-2.3,11.1-6.4.9-1.2,1.7-1.2,2.4,0l.8,1.5c.2.3.2.7,0,1-5.4,5.9-12.3,8.6-20.6,8-18.6-1.4-27.7-11.2-27.2-29.2.3-9.4,6.7-21,19.3-34.7,19.5-21.4,51.3-20.4,73.8-3.5,25.1,18.9,38.9,48.7,29.6,81.3-4.6,16.2-13.9,30.8-27.8,43.6-13,12-29.2,18.6-48.8,19.8-16.5,1-32.2-3.6-47.3-13.9-17.4-11.8-29.7-28.4-36.9-49.7-7.2-21.3-5.4-42.9,5.4-64.9,11.8-24,25.9-42.2,42.5-54.7,9.3-7,22.8-12.8,40.7-17.5,13.1-3.4,27.4-4.4,43-2.9,28,2.7,52.6,10.2,73.9,22.6,24.6,14.3,42.3,31.9,53.2,52.8,17.2,32.9,21.5,68.2,13.1,106.1-10.2,45.9-34.7,84-73.3,114.2-1.5,1.2-2,2.7-1.6,4.6.2.7.5,1.3.9,1.9ZM-982.2,742.1c.6-1,.4-2.3-.6-2.9-.2-.1-.4-.2-.7-.3-15.2-3.9-27.4-1.3-36.6,7.7-4.8,4.7-9.7,14.8-14.8,30-7,20.9-11.7,34.9-14.2,41.9-.6,1.7.2,3.5,1.9,4.1.8.3,1.6.3,2.3,0,9.6-3.9,17.5-10.9,23.8-21,15.8-25.3,28.7-45.1,38.7-59.5ZM-814.1,852.4c.1-.5.2-1,.1-1.5l-.5-7.2c-.2-2.5-2.4-4.4-4.9-4.2-1.3,0-2.6.8-3.4,1.8l-4.9,6.7c-1,1.3-1.2,3.1-.5,4.6l3.4,7.6c1,2.3,3.8,3.3,6.1,2.3,1.2-.6,2.1-1.6,2.5-2.9l2-7.2ZM-143.4,1113.6c2.3-2.6,3.1-6.2,2-9.5l-3.5-11.4c-1.6-5.2-7.1-8.1-12.3-6.5-2.5.8-4.6,2.5-5.8,4.8l-7.3,14.2c-2.3,4.5-.8,10.1,3.5,12.8l5.4,3.4c4.1,2.6,9.5,1.9,12.7-1.8l5.4-6.1ZM-789.8,1280.3l3.9,6.9c1.3,2.3,3.2,3,5.7,2.1,10.1-3.7,15-9,14.7-15.9-.6-9.8-8.7-17.4-18.2-16.9-.3,0-.6,0-.8,0-3.8.4-9.6,3-17.6,7.8-2,1.2-3.2,2.9-3.6,5.2-3.7,19.2-.7,32.2,8.9,39,9.9,6.9,20.6,6.7,31.9-.4,10.2-6.4,16.2-16.3,17.8-29.5,1.3-10.9-1.7-20.8-8.9-29.5-19.4-23.4-43.6-28.1-72.6-14-52,25.4-75,66.1-68.8,122.1,7.3,67.1,65.9,120.1,134.9,97.6,28.4-9.2,52.3-25.6,71.6-49.1,38.2-46.5,58.8-100.3,61.7-161.6.1-2.5-1-4.2-3.5-4.9-49.5-14.5-96.8-20.6-141.9-18.2-10.1.5-10.7,3-1.6,7.6,6.6,3.3,10.1,5.1,10.6,5.4,23,15.4,28.4,36.2,16.1,62.4-4,8.6-10.3,15.2-18.7,19.8-7.4,4-15.4,3.5-24.2-1.2-13.7-7.5-19.8-19.8-18.3-36.9.8-9.4,4.9-16.4,12.5-21,10.7-6.5,20.3-6.4,28.8.5,12.4,10.1,11.8,22.9-.8,31.5-10.1,6.9-17.9,5-23.6-5.7-.3-.5-.2-1,.1-1.4l1.5-1.7c1-1.1,1.8-1.1,2.5.2ZM-644.9,1377.1h5.9c2.7,0,4.1-1.3,4.4-4,.9-9.1,2.6-19.4,5.1-31,.6-2.7.2-5.7-1.2-8.8-1.4-3.1-2.8-3.1-4.2,0l-19.3,41c-.3.7-.4,1.5,0,2.2,1,2.3,2.7,2.8,5.2,1.5,1.3-.7,2.6-1,4.1-1ZM-637.1,1387.5c-.3-3.6-4.4-6.2-9.3-5.8-4.9.4-8.6,3.5-8.3,7.1.3,3.6,4.4,6.2,9.3,5.8,4.9-.4,8.6-3.5,8.3-7.1ZM-601.9,1397.9c0-3.4-5.6-6.1-12.7-6.2-7,0-12.8,2.6-12.8,5.9,0,3.4,5.6,6.1,12.7,6.2,7,0,12.8-2.6,12.8-5.9Z"/>
        <path class="cls-1" d="M-1055.3,522c-.4.5-1,.8-1.8.8-.7,0-1.4-.5-1.4-1.2,0-.4.1-.8.4-1.1,8.8-7.1,9.9-15.7,3.5-25.7-2.8-4.4-8.5-5.6-12.9-2.9-.6.4-1.2.8-1.7,1.4-4.5,4.6-6.1,11.7-4.9,21.3.3,2.3,1.6,3.7,3.8,4.2,2.9.7,4.9,1.5,6.1,2.3,3.3,2.3,3.1,3.2-.7,2.8l-8.4-.9c-2-.2-3.3-1.3-3.9-3.3-4.8-16.6-.8-28,12-34.1,2-.9,4.3-.9,6.2,0,8.8,4,12.8,9.7,12.1,17.3-1,10,1.8,18.3,8.2,24.9,1.6,1.6,2.6,3.4,3.1,5.6,6.8,27.3,6.4,52.7-1.3,76.3-5.4,16.5-14.8,33.2-28.2,49.8-.2.3-.5.5-.9.5l-2.2.4c-.9,0-1.6-.5-1.7-1.4,0-.4,0-.8.3-1.1,22.7-26.1,34.2-56.3,34.3-90.7.1-19.9-4.9-35-15.1-45.5-1.7-1.8-3.4-1.8-5.1,0Z"/>
        <path class="cls-1" d="M-894.2,566.8c5.6,12,19.1,10.8,27.2,2.8,3.8-3.8,3.9-10,0-13.9-.8-.8-1.8-1.5-2.9-2-4.2-1.9-11.9-6.1-22.9-12.6-15.5-9.1-29.2-10.7-40.9-5-10.5,5.1-20.1,10.3-28.9,15.6-8.4,5.1-9.1,4.3-1.9-2.4,16.5-15.3,35.2-21.4,56.4-18.4,15.3,2.2,29.1,12.3,41.4,21.5,5.9,4.4,7.2,12.7,2.8,18.6-.8,1.1-1.7,2-2.8,2.8-4.4,3.3-6.4,5.4-12.2,5.2-13.8-.6-20.5-7.7-20-21.4.1-3.2,1.6-5.4,4.4-6.4,2.6-1,3-.3,1.4,1.8-3.1,4-3.4,8.5-1,13.7Z"/>
        <path class="cls-1" d="M-914.2,569.9c-5.2-9.4-12.8-16.9-22.9-22.3-2-1.1-2.6-2.2-2-3.3h0c.4-.8,1.2-1,2.2-.5,13.3,6.6,21.1,12.4,23.5,17.3,8.1,16.4,5.3,30-8.2,40.9-9.1,7.3-18,12.8-26.7,16.3-7,2.9-15-.4-17.9-7.4-.8-1.9-1.1-4-1-6,.5-8.9,6-15.9,16.3-20.9.7-.4,1.3-.2,1.7.5l.9,1.6c.3.5.2.8-.4,1-10.4,4.1-15.4,11.2-15.1,21.3,0,2.4,1.2,4.1,3.4,5,3.8,1.7,8.5,1.9,14,.8,2.2-.4,3.9-1.6,5.1-3.5,3.3-5,7.2-7.5,11.7-7.4,2.4,0,4.3-.8,5.7-2.7,7.4-8.8,14.5-21.8,9.6-30.8Z"/>
        <path class="cls-1" d="M-1661.8,626.3c9.4,13.5,17.2,28.5,23.4,44.9.3,1,2.6,3.8,6.9,8.3,1.9,2,1.5,2.8-1.2,2.4-3.3-.6-5.4-1.9-6.2-3.9-7.7-18.8-16.4-35.6-26.3-50.4-1.2-1.8-3.2-3-5.4-3.1-12-.8-18.8-8-20.4-21.6-1.1-9,.4-15,4.7-18.2,8.4-6.3,25.1-4.8,30.6,6.7.2.4,0,.9-.4,1-.3.1-.6,0-.9-.1-4.7-4.1-7.6-6.4-8.6-6.7-13.6-4.4-21.3-.8-22.9,10.7-1.8,13,4.6,21.3,19.3,24.9,1.7.4,3.1,0,4.2-1.4l9.3-11c1.6-1.8,1.9-3.9.9-6.1-1.4-3.3-2.1-5.2-1.9-5.9.9-4.2,2-4,3.3.7,2.5,8.9-.1,16.8-8,23.8-1.7,1.5-1.9,3.2-.6,5.1Z"/>
        <path class="cls-1" d="M-944.2,589.2c-.5-.7-.7-1-.8-1.2-.5-1-.2-1.4.8-1.2,4.7,1,7.3,3.5,7.9,7.4.3,2.1-.5,2.6-2.3,1.5-.8-.5-1.5-1.2-2.2-2.1-2-2.6-3.2-4.1-3.4-4.4Z"/>
        <path class="cls-1" d="M-1624.1,689c-1.6-1.7-1.3-3.3.9-4.8,1.8-1.3,2.9-3.3,3-5.5.3-6.1,2.5-11.3,6.4-15.9,1.3-1.5,1.2-3.7,0-5.2-8.4-9.6-8.9-18.2-1.5-25.9,5.7-5.9,11.1-8,16.2-6.5,7,2.1,11.8,6.9,14.6,14.2.8,2.1.7,4.2-.4,6.1-4.2,7.7-11.1,12.7-20.6,14.9-2.2.5-3.8,1.7-4.8,3.7-1.2,2.3-3.8,8.6-7.8,18.7-3,7.6-4.4,14-4.2,19.4,1.4,36.6,9.2,74.1-3.1,110-.4,1.1,0,1.9.9,2.5.7.4,1.4.6,2,.5.6,0,1.1-.3,1.5-.8,5.4-6.4,10.6-14.3,15.3-23.8,5.6-11,18.7-18.7,27.6-23.4,2.1-1.2,3.2-3,3.2-5.4v-6.5c0-2.3,1.1-4.4,3-5.7,4.8-3.3,9.5-4.3,14.2-3,4.7,1.3,5,2.4.8,3.5-1.6.4-3.5.5-5.7.2-2-.2-4,.4-5.6,1.6-2.5,1.9-3.4,6-2.7,12.2.5,4.4,2.5,7.2,6.1,8.4,4.1,1.3,8.1,1.1,11.9-.7,2-1,3.3-2.5,3.8-4.7,1.2-4.9,1-10-.6-15.3-.4-1.3,0-2,1.5-2h1.8c.5,0,.9.3,1,.8,2.4,8.4,2.4,15.1,0,20-3.6,7-12.2,9.7-19.4,6-2.2-1.2-4.1-2.9-5.5-5-.7-1-2.6-1.3-5.6-.9-1.9.3-3.5,1-5,2.2-18.3,15.2-31.2,31-38.6,47.2-31.6,68.7-69.3,131.6-113.3,188.5-1,1.3-2.5,1.9-4.1,1.7l-3.3-.5c-.7,0-1.2-.7-1.1-1.4,0-.3.2-.5.3-.7,34.6-38.5,62.7-81.3,84.2-128.3,4.7-10.3,9.4-19,14-26.2,3.9-6,8.2-15,12.9-26.9,1.7-4.5,2.7-9,2.8-13.5.2-7.8.4-12.2.7-13.3,5.4-28.2,4.9-56.3-1.2-84.2-1.7-7.9-3.9-12.8-6.5-14.8-4.7-3.7-10.2-6.2-16.4-7.4-3.6-.7-6.2-3.8-5.6-7,0-.3.1-.5.2-.8.3-.7,1.2-1,2.7-.7.7,0,1.5.4,2.4,1,7.8,5.6,16.4,7.4,25.8,5.5,1.5-.3,1.7-1,.7-2.1ZM-1593.1,632.6c-3-4.4-9-5.5-13.4-2.5l-7,4.8c-4.4,3-5.5,9-2.5,13.4l2.7,3.9c3,4.4,9,5.5,13.4,2.5l7-4.8c4.4-3,5.5-9,2.5-13.4l-2.7-3.9Z"/>
        <path class="cls-1" d="M-1434.6,682.6c-1.6,1.2-2.8,1.6-3.6,1.2-5.7-7.4-9.2-15.5-10.6-24.4-.3-2.1.3-4,1.8-5.6,7.5-7.5,14.5-7.7,21.2-.7,4.9,5.3,6.3,10.6,4,16.1-1.2,3-2.1,2.9-2.5-.3l-1.5-10.1c-.6-3.9-2.9-6.2-6.8-6.9-2.6-.4-5.4-.2-8.3.8-3.6,1.2-5,3.7-4.2,7.4,1.6,7.8,5.1,15.3,10.5,22.3Z"/>
        <path class="cls-1" d="M-1666.2,678.7c5.5,7.2,3.4,18.2-4.9,24.5,0,0,0,0,0,0-8.2,6.3-19.4,5.6-24.9-1.6,0,0,0,0,0,0-5.5-7.2-3.4-18.2,4.9-24.5,0,0,0,0,0,0,8.2-6.3,19.4-5.6,24.9,1.6,0,0,0,0,0,0ZM-1668.7,693c2.7-5,.9-11.3-4.1-14.1l-3.7-2c-5-2.7-11.3-.9-14.1,4.1,0,0,0,0,0,0l-3.4,6.2c-2.7,5-.9,11.3,4.1,14.1l3.7,2c5,2.7,11.3.9,14.1-4.1,0,0,0,0,0,0l3.4-6.2Z"/>
        <path class="cls-1" d="M-1443,696.9v13.3c0,3.1,2.5,5.7,5.6,5.7,1,0,2-.3,2.9-.8,4.4-2.6,7.2-5.8,8.6-9.7.7-2.1.3-4.5-1-6.2-3.8-4.9-5.3-10.5-4.6-16.8,1.6-2.9,3.6-4.5,5.9-4.8,1.2-.2,2.3.6,2.5,1.8,0,.2,0,.5,0,.7-.3,1.8-1.3,3.5-3.3,5.2-1.7,1.6-2,3.4-.9,5.4,7.4,13.3,6.3,22.5-3.4,27.6-5.8,3-12.9.8-15.9-5-.6-1.1-1-2.3-1.2-3.6-.6-3.4,1-7.6,4.8-12.7Z"/>
        <path class="cls-1" d="M-1387.2,696.4c-4.4-5.4-9.8-9.8-16.2-13.3-2-1.1-4-1.4-6.3-1-4.3.8-7.3.8-8.9,0-1.5-.7-1.4-1.3.1-1.8,5.2-1.6,8.8-2.2,10.6-1.8,14.9,3.1,23.4,11.2,25.5,24.4.2,1.3-.7,2.4-1.9,2.6-.3,0-.5,0-.8,0-.7-.1-1.4-.5-2.3-1-1.5-.9-1.9-2.1-1-3.7.3-.5.7-1,1-1.6.8-.9.8-1.9,0-2.8Z"/>
        <path class="cls-1" d="M-1357.6,689.1c-1.7-1.8-4.5-1.9-6.3-.3,0,0-.2.2-.3.3-7.1,7.7-10.3,16.4-9.6,26.1.8,12.8,1.2,19.3,1.2,19.7-1.7,11.8-5.5,23.1-11.4,33.7-.3.5-.6.6-1.1.5l-2.2-.7c-.2,0-.3-.2-.2-.4,8.1-18.5,16.8-34.4,8.6-55-.8-2-.9-4.1-.3-6.3,2.3-7.6,6.6-14.7,13-21.4,2-2.1,4.2-2.2,6.5-.3l8.8,7.4c3,2.5,3,5,0,7.4-4,3.3-7.9,5.9-11.6,8-6.7,3.7-7.5,2.6-2.5-3.3.6-.7,1.9-1.3,3.9-1.6,2.1-.3,3.9-1.4,5.2-3.1,2.5-3.2,1.9-6.8-1.6-10.8Z"/>
        <path class="cls-1" d="M-1443.3,695.2c2.6-2.1,4.4-4.7,5.4-7.6.9,2.7.8,5,0,7-.9,1.8-2.7,2-5.4.6Z"/>
        <path class="cls-1" d="M-1410.5,713.4c-1.3,2.9,0,6.4,2.8,7.7,1.4.6,3,.7,4.4.2l18.3-6.6c2.5-.9,2.9-.2,1,2.2-7.2,9.3-16.2,10.9-27.2,4.6-2-1.1-2.8-2.8-2.6-5,.6-7.1,3.2-13.6,7.7-19.3,0,0,0,0,.1,0l1.7.3c.7.1,1,.5.7,1.2l-7,14.8Z"/>
        <path class="cls-1" d="M-1397.1,701.6c.6-.1,1.4,0,2.5.4,2.1.7,2.1,1.7,0,2.7-.3.1-1,0-2.4-.1-4.4-.8-4.5-1.8-.2-3Z"/>
        <path class="cls-1" d="M-691.1,783.9c-.6.3-1.4.5-2.3.6-1.3.2-1.9.9-1.8,2.2.6,12.3,4.7,22.1,12.5,29.5,4.7,4.4,11.7,5.3,17.3,2.1l4.8-2.7c6-3.4,6.2-7.2.6-11.2-4.8-3.5-14.5-8.8-29.2-15.8-2.4-1.2-3-2.7-1.8-4.7,13.3,3,25,9.4,35.1,19.3,5.3,5.1,4.9,9.8-1.2,13.8-1.5,1-4.7,2.7-9.7,5.1-6.9,3.4-13.2,2.5-18.9-2.5-5.4-4.7-8.7-10.3-9.9-16.7-1.3-7.3-4.2-8-8.7-2.1-9.8,12.9-21.7,23.8-35.7,32.9-.2.1-.6,0-.7-.1,0,0,0-.2,0-.3v-2.1c0-.9.4-1.6,1.1-2.1,15.4-11,28.3-24,38.7-39.1,1.2-1.7,1.4-3.8.8-5.7-3.1-8.7-8.1-15.3-15.2-19.9-2-1.3-4.1-1.5-6.4-.6-3.8,1.5-6.8,5.2-8.9,11-1.2,3.6-2,3.5-2.3-.3-.3-4.4,1.2-8.6,4.8-12.7,3.9-4.4,8.5-5.3,13.7-2.5,8.3,4.5,13.5,10.9,15.6,19.2.5,2,2.6,3.3,4.6,2.7.9-.2,1.7-.8,2.3-1.6,4.6-7.2,11.5-18.5,20.9-33.8,5.9-9.7,5.3-21.4-5.1-26.1-2.2-1-4.2-.7-5.9.9-2.6,2.4-3.2,5.2-1.7,8.7.4,1,1.8,2.8,4,5.5,1.6,1.8,1.2,2.7-1.2,2.6-1.8,0-3.4-1.2-4.8-3.2-5-7.2-2.9-13.3,6.3-18.1,2.3-1.2,4.7-.7,7.2,1.6l11.4,10.3c.5.4,1.1.9,1.9,1.4,8.1,5,15.4,6.6,22,4.6,6.3-1.8,9.5-4.7,9.7-8.7.2-4-3.3-7.1-7.8-7-1.8,0-3.5.7-5,1.7-5.4,3.9-9.4,6.3-12,7.3-4.4,1.6-4.8.7-1.4-2.9,6.8-7.1,14.3-9.9,22.5-8.7,4.7.7,8,5.2,7.2,10,0,.3-.1.6-.2.9-3.9,14.8-26,11.7-36.3,7-3.7-1.7-5.1-1.2-4.2,1.5.3,1.1.5,2.2.3,3.2-.3,2.4-.8,4.4-1.6,5.6l-25.2,40Z"/>
        <path class="cls-1" d="M-1396.9,784.6c.3-1.4,1.5-3.2,3.6-5.4,1.5-1.6,1.5-3.1,0-4.6-7.1-6.9-14-9.7-20.5-8.4-3.7.7-4,0-.9-2.1,7.4-5.1,14-3.4,19.8,5.2,1,1.4,2.4,2.2,4.2,2.2h2.4c2.5,0,3.6,1.2,3.5,3.7-.7,8.7,3.6,14.4,12.9,17.2,2.5.7,4.5.1,6.2-1.8l6.1-7.4c1.5-1.7,2.5-1.5,2.9.7.6,2.6-1,6-4.8,10.1-2.3,2.5-5,3.6-8.2,3.2-7.5-1-13.4-5-17.5-12-.6-1-1.9-1.3-3-.7-.2.2-.5.3-.6.6-18,25.2-40.3,44.5-66.9,58-30.2,15.3-61.1,32.1-92.6,50.4-1,.6-1.7.5-2-.4h0c-.3-1-.2-1.6.3-2,9.1-6.9,14.9-10.9,17.3-12.1,33.9-17.5,66-34.9,96.1-52.3,7-4,13.9-9.6,20.7-16.8,10.1-10.6,16.3-17.1,18.5-19.5,1.1-1.2,1.9-3,2.4-5.6Z"/>
        <path class="cls-1" d="M-1362.5,773.3c-8.1,2.7-12.8,4-14,3.9-2.7-.2-3-1-.9-2.4,8.2-5.4,14.2-7.2,17.9-5.3,1.6.8,2.8,1.9,3.8,3.1,1.2,1.5,1.5,3,1.1,4.5-.8,2.9-2,2.7-3.8-.5-.3-.5-.6-1.2-1-2-.7-1.3-1.7-1.7-3-1.2Z"/>
        <path class="cls-1" d="M-1662.2,804.1c-1.1-1.3-3-1.4-4.3-.3-10,8.5-19.9,8.6-29.7.4-1.7-1.4-2.8-3.5-2.9-5.7-1.3-17.1,6.4-26.1,23.3-27.2,7-.4,13,4.8,13.4,11.8,0,.2,0,.5,0,.7,0,7,1.8,13.3,5.3,18.8,5.8,9.2,8.7,13.9,8.8,14,4.5,11.8,4.1,23.8-1.1,36.2-.4,1-1,1.1-1.8.4l-1.4-1.2c0,0-.1-.1,0-.2,5.9-18.3,2.8-34.2-9.5-47.8ZM-1690.1,803.1c5.9,4.8,15.1,3.4,20.5-3.3,5.4-6.6,4.9-15.9-1.1-20.7,0,0,0,0,0,0-5.9-4.8-15.1-3.4-20.5,3.3-5.4,6.6-4.9,15.9,1.1,20.7,0,0,0,0,0,0Z"/>
        <path class="cls-1" d="M-1415.2,775.7c1,1.8,1.5,3.1,1.6,3.9.4,2.7-.4,3.3-2.5,1.8l-6.5-4.9c-1.8-1.3-1.9-2.8-.4-4.4.7-.7,1.6-1.3,2.5-1.6,1.2-.3,2.2-.2,3,.6.4.4.8.9,1,1.5.7,1.9,1.2,3,1.2,3.1Z"/>
        <path class="cls-1" d="M-1794.7,794.8c2.3-.7,3.9-2.7,4.2-5,.8-7.2,4.9-12.6,12.2-16.3,1.2-.6,1.9-.3,2,1l.3,1.7c0,.6,0,1-.5,1.3-4.8,3.4-7.9,7.7-9.3,12.9-.7,2.4-.1,4.5,1.6,6.3,4.2,4.4,8.8,6.6,13.8,6.6,2.2,0,3.9-.9,5.2-2.7,4.4-6.5,3.5-12.5-2.6-17.9-8.9-7.8-7.8-9.6,3.3-5.4,1.7.6,3.7,4.4,6.2,11.2,2.5,6.9.6,12.6-5.7,17.1-5.4,3.8-12.6,3.4-17.6-.8l-7.7-6.4c-2.1-1.8-4.1-1.7-5.8.5-13.7,16.8-21.5,36.1-23.3,57.9-.3,3.3-1,3.4-2.3.3-6.6-15.9,9.8-45.5,20.4-59.3.8-1.1,1.6-1.8,2.4-2,.6-.2,1.7-.6,3.4-1Z"/>
        <path class="cls-1" d="M-722.5,785.7c.6.4,2.9,1.8,6.8,4.2,2.2,1.4,2,2-.6,2-2.8,0-5.6-1-8.4-2.9-2.7-1.8-4.7-4-5.9-6.5-1.1-2.3-.6-2.7,1.6-1.3,3.7,2.7,5.9,4.2,6.5,4.6Z"/>
        <path class="cls-1" d="M-1401.4,783.1c-3.4,2.1-5.8,3.2-7,3.4-6.9.9-7.5-.7-1.8-4.6,2.2-1.5,5.4-1.1,9.7,1h-.3c-.2,0-.4,0-.6.1Z"/>
        <path class="cls-1" d="M-771.3,808.5c-3.8,3.8-4.1,9.9-.7,14.1,2.7,3.3,4.9,6.9,6.5,10.6,1.3,3,.7,3.4-1.7,1.2-7.4-6.7-10.8-14.3-10.3-22.7.3-5.5,3.8-9,10.5-10.5,2.4-.5,2.7,0,1,1.8l-5.4,5.4Z"/>
        <path class="cls-1" d="M-895,814.3c5.3-3.3,10.5-6.9,15.6-10.6,3-2.2,3.6-1.7,1.8,1.6-2.4,4.3-6.1,7.9-11.3,10.6-2.1,1.1-3.9,1.5-5.6,1.2-2.7-.4-2.9-1.3-.6-2.8Z"/>
        <path class="cls-1" d="M-1068.2,839.3c-16,8.3-33.1,12.2-51.3,11.7-1.3,0-2.3-1.1-2.3-2.4v-2c0-1,.5-1.4,1.4-1.4,9.3.2,18.5-.4,27.7-1.8,6.4-1,10.9-3.3,13.3-7,5-.7,8.8.2,11.3,2.7Z"/>
        <path class="cls-1" d="M-762.3,846c1-2,2.7-2.5,5.2-1.7,2.3.8,3.2,2.4,2.9,4.8-.9,6.1-1.1,11.1-.7,14.8.9,7.6,5.9,9.9,15.2,6.9,4.5-1.5,7-6.4,5.5-11-.2-.5-.3-.9-.6-1.3-4.4-8.2-11.7-13.7-22-16.3-.7-.2-1-.6-1.2-1.3l-.3-2.4c-.2-1.1.3-1.5,1.4-1.2,14.8,3.4,24.2,11.6,28.1,24.6.6,2.1.3,4.3-.9,6.1-4,6.2-11.5,8.7-22.4,7.4-2.3-.3-3.9-1.5-4.8-3.6-2.6-6.1-3.3-12.2-2.2-18.2.9-4.5-.2-7-3.2-7.4Z"/>
        <path class="cls-1" d="M-1087.8,892.5c13.4,16.6,21.7,31.3,23.3,52.7,2,27.5,17.7,53.8,49.4,36,1.1-.6,1.6-2,1-3.1-.1-.2-.2-.4-.4-.5-9.8-10.1-18.3-22.1-25.3-35.9-4.4-8.6-19.1-27.1-44.1-55.4-.2-.2-.2-.3,0-.5l2-1.1c.7-.4,1.3-.3,1.9.3,25.5,28.6,48.8,60.4,69.9,95.5,1.2,2,.7,3.4-1.3,4.4-24.7,12-48,6.2-54.3-22.5-1.3-5.7-2.2-12.2-2.7-19.5-.6-7.3-2.3-13.6-5.1-18.9-7.2-13.4-13.1-24.1-17.7-32.2-1.3-2.2-8.3-8.4-21-18.5-12.5-9.9-28.9-16.2-44.8-25.1-5.2-2.9-10.2-2.3-14.6-2.9-12.4-1.7-12.2-3.2.4-4.4,6.7-.7,14.4,1.1,23,5.4,5.5,2.7,10.8,3.1,16.9,3.6,2.1.1,4,.9,5.6,2.2,9.6,7.7,19,15.3,28.1,22.9,4.1,3.4,6.4,7.3,7.1,11.8.3,2.2,1.2,4.1,2.5,5.7Z"/>
        <path class="cls-1" d="M-1788.5,852.6c3.5-2.3,8.2-1.4,10.5,2.1,0,0,0,0,0,0l4,6.1c5.7,8.6,3.5,20.1-4.9,25.7l-.7.5c-8.5,5.6-19.9,3.3-25.7-5.3l-4.1-6.1c-2.3-3.5-1.4-8.2,2.1-10.5,0,0,0,0,0,0l18.7-12.5ZM-1797.2,883.2c5.4,4,13.5,2.1,18.2-4.2,4.7-6.3,4.2-14.6-1.2-18.6,0,0,0,0,0,0-5.4-4-13.5-2.1-18.2,4.2-4.7,6.3-4.2,14.6,1.2,18.6,0,0,0,0,0,0Z"/>
        <path class="cls-1" d="M-558.8,965.9c-4.2,4.7-3.2,6.6,3,5.7,38.5-5.4,63.7-6.1,94.3-28.9,19.9-14.8,37.7-39.7,53.4-74.8.6-1.3.8-3.2.7-5.6,0-2.7.1-4.5.6-5.6,3.6-7.3,5.4-6.9,5.6,1.2.3,13.8-16.6,39.3-25.3,52.9-20.3,31.8-48.7,51.8-85.2,59.8-9.2,2-22.6,3.6-40.1,4.8-14.2,1-27.1,3.7-38.5,8-16.1,6.1-28.6,11.1-37.5,14.8-1.4.6-2.2,0-2.2-1.4v-2c0-.3.2-.6.5-.7,17.6-6.3,33.6-12.7,48-19.2,10.6-4.8,19-11.3,25.3-19.4,17.2-22.3,30.8-41.3,40.9-56.8,14.2-22,33.1-33.3,56.8-33.9,19.5-.5,33.9-2.2,43.2-5.2.7-.2,1.2,0,1.4.7l.6,1.7c0,.1,0,.2-.2.3-10.9,3.8-24.3,5.7-40.2,5.5-12.5-.1-25.4,3.7-38.7,11.6-6.8,4-15.1,13.8-24.9,29.4-15,23.9-28.8,42.8-41.4,56.8Z"/>
        <path class="cls-1" d="M-1817.5,875.9l-.8,5.2c-.4,2.6-1.3,2.8-2.7.6-1.5-2.4-1.6-5.3-.1-8.8.4-1,1.4-1.7,2.9-2.2,2.9-1,3.6-.1,2.2,2.5l-1.2,2.4c0,0-.1.2-.1.3Z"/>
        <path class="cls-1" d="M-809.5,885c-.5-2.1-3.2-4.6-8-7.5-.7-.4-.9-1.2-.5-1.9,0-.1.1-.2.2-.3l1.6-1.6c0-.1.2-.2.3,0,11.1,6,14.5,14.1,10.1,24.4-2,4.7-4.6,7.1-7.7,7.3-3.5.2-7.7-.1-12.5-.9-1.3-.2-2.2-1.5-1.8-3,.1-.6.4-1.1.8-1.5.7-.8,3.5-.9,8.2-.5,2.2.2,4.1-.4,5.8-1.7,3.7-2.9,4.9-7.2,3.6-12.7Z"/>
        <path class="cls-1" d="M-1814.5,981.9c-3.1,7.8-1.4,9.1,5.1,4.1,8.4-6.3,15.2-9.3,19.3-17.4,10-19.6,7.2-35.4-8.3-47.3-9.9-7.6-16.7-13.2-20.3-16.9-3.3-3.4-4.1-5.8-2.4-7.2.5-.4,1-.7,1.7-.8.9-.3,1.9.3,2.2,1.2,1.7,5.1,3.7,8.4,6.1,10.1,15,10.1,23.5,16.8,25.4,19.9,10.5,16.8,8.9,32.8-4.8,48.1-7.3,8.2-15.2,13.6-23.7,16.2-3.1,1-6.5-.7-7.6-3.8-.7-2.1-.2-4.4,1.4-6l4.9-4.8c2.6-2.5,3.3-2.1,2.1,1.2-.7,2.1-1.1,3.3-1.2,3.4Z"/>
        <path class="cls-1" d="M-1818.1,924.8c.4,3.6,1,5.8,2,6.8,3.5,3.7,5.2,6.2,5,7.5-.3,3.2-1.8,3.6-4.4,1-7.2-7.1-8.8-12.5-4.6-16.3,1.7-1.5,2.1-3.3,1.4-5.4-.6-1.7-1.3-3.2-2.2-4.5-.7-1.2-1-2.1-.9-2.7.2-.8.6-1.5,1.3-1.9,1.4-.8,2.2-.4,2.3,1.2.2,2.5,2.5,5.6,6.9,9.3.7.6.8,1.8.2,2.5-.4.5-1,.7-1.6.6l-2.9-.4c-1.8-.3-2.6.5-2.4,2.3Z"/>
        <path class="cls-1" d="M-1801.6,955.3c.3-.7.6-1.4.9-2,.2-.4.3-.8.1-1.2l-9.7-27.6c-.6-1.6,0-2.2,1.6-2l2.9.5c.7.1,1.3.6,1.6,1.2,4.8,11.6,7.4,19.6,7.6,24.2.7,11.3-3.2,20.4-11.9,27.2-.3.3-.7.3-1,0l-1.8-1.5c-.9-.7-1-2.1-.2-3,.1-.1.2-.2.4-.3,2.3-1.5,4.3-3.3,6.1-5.4.8-1,1.2-2.4,1.2-4.3,0-2.2-1.2-3.4-3.4-3.7-2-.3-3.3-2.1-3-4.1,0-.2,0-.3.1-.5.2-.6.5-1.2.9-1.9,1-1.7,2-1.6,3,.1l2.4,4.4c.3.6,1.1.8,1.7.5.3-.1.5-.4.6-.7Z"/>
        <path class="cls-1" d="M-1005.2,991.8c1.5-.7,3.2-2.9,5.2-6.7,1.4-2.8,3.2-4.9,5.2-6.3,27-19.6,53.5-19.6,79.4,0,17.7,13.4,27.2,31.2,28.5,53.2,1.3,21.3-6.7,36.6-23.8,45.8-18.6,10-36.4,8-53.3-6.1-6.7-5.6-9.7-12-8.9-19.1.3-3.1,1.2-3.2,2.5-.3.4.8,1.2,3.6,2.4,8.4.5,2.1,1.5,4,3.1,5.5,14,14,30.4,16.8,49.2,8.6,20.2-8.9,28.1-24.8,23.9-47.6-7.4-40.6-50-73.9-90.3-51.5-4.6,2.5-9.9,7.2-16.1,14.2-7.6,8.7-15.5,14-18.4,22.1-14.5,40.9-9.9,76.7,13.9,107.6,22.2,28.9,51.8,41.7,88.6,38.4,20.7-1.8,39.8-10.9,57.2-27.2,10.9-10.2,16.2-22.8,24.8-35.7,2.7-4.1,5.1-9.4,7.1-15.9,17.7-56.6,6-106.3-35.2-149.2-.5-.6-.6-1.2-.2-1.8h0c.4-.7,1.1-.7,2,0,8.1,6.1,13.1,10.6,15,13.5,36.2,54.6,40.4,108.1,12.4,160.3-12.8,23.9-29.2,40.8-49,50.6-24.3,12-49.4,14.1-75.1,6.4-27.8-8.3-49.2-28.1-64-59.6-13.8-29.4-13.7-59.8.5-91.3,3.7-8.3,8.2-13.6,13.5-16Z"/>
        <path class="cls-1" d="M-1248.2,1071.9c-3.1-16.3-11-35.1-11.9-51.3-.5-8.3.5-20.8,3.1-37.6,1.7-11.2-1.6-22.7-9.8-34.4-1.3-1.8-3.1-3.1-5.2-3.7-14.8-4-29.6-1.3-44.5,8-9.1,5.7-13.1,13.5-12.2,23.6.2,2.6-.7,3-2.7,1.4-2-1.5-2.9-3.6-2.7-6.2.3-3.6,2.1-8.6,5.5-14.9,2-3.8,5.9-7.1,11.5-9.9,15.1-7.6,48-15.3,57.5,3.5,5.9,11.8,8.2,23.9,6.7,36.4-3,26.6-.7,52.4,7.2,77.3,2.4,7.4,5.2,12.8,8.6,16,3.1,3,5.9,6.1,8.4,9.3,8.7,11.2,28.6,7.6,38.1,1.4,2.2-1.4,2.6-3.3,1.3-5.6l-4.5-7.8c-1-1.8-1.4-3.7-1.1-5.8,1.5-10.5,6.4-17.4,14.7-20.6,2.2-.9,4.4-.9,6.7.1,12.9,5.7,18.4,14.5,16.5,26.5-1.5,10.1-13.8,15.9-22.7,12.5-2.2-.8-4.1-.5-5.9,1.1-7,6.3-15.4,9.2-25.3,8.8-2.2,0-4.4.6-6.2,2-3.6,2.8-7.6,3-12.1.6-2.2-1.2-4-.7-5.3,1.5-8.3,14-20.4,23.2-36.3,27.5-2.1.6-3.7,1.8-4.7,3.7-1.1,2-2.6,3.5-4.4,4.4-9.1,4.4-15.5,2.3-19.2-6.4-2.9-6.9.3-15,7.3-17.9.6-.3,1.3-.5,2-.7,7.4-1.9,12.1,2,14.3,11.6.6,2.4,2,3.1,4.2,2.2,17.7-6.7,29.3-17.5,34.9-32.4.8-2,.4-3.8-1-5.4-1.7-1.8-3.7-2.9-6-3.3-2.2-.4-4-1.9-4.8-4-3.3-8.7-11.4-14.3-24.2-16.9-2.3-.5-3.3-2.1-3.1-4.9.2-2.6,1.6-3.9,4.2-4,8.2-.2,14.3,4.6,18.4,14.6.2.6.9,1,1.6,1h1.8c1.2,0,1.7-.6,1.4-1.8ZM-1166.7,1061.9c-4-5.8-11.9-7.2-17.6-3.3l-1.7,1.2c-5.8,4-7.2,11.9-3.3,17.6,0,0,0,0,0,0l3.4,5c4,5.8,11.9,7.2,17.6,3.3l1.7-1.2c5.8-4,7.2-11.9,3.3-17.6,0,0,0,0,0,0l-3.4-5ZM-1286.2,1137.8c4.1-.8,6.5-5.7,5.5-10.8-1.1-5.1-5.2-8.6-9.3-7.8,0,0,0,0,0,0-4.1.8-6.5,5.7-5.5,10.8,1.1,5.1,5.2,8.6,9.3,7.8,0,0,0,0,0,0Z"/>
        <path class="cls-1" d="M-1817.5,955.6c-.3-1-.5-1.8-.6-2.3-.7-3.2-.2-2.9,1.6.8l3.3,7c.4.8.2,2.1-.7,4-.8,1.8-2.7,4.2-5.6,7.2-1.9,2-2.8,1.3-2.7-2,0-.1,1.4-3.3,4.3-9.6.7-1.7.9-3.4.4-5.2Z"/>
        <path class="cls-1" d="M-1265.5,1046.9l1.8,3.1c1.1,1.9.6,3-1.6,3.5-.9.2-1.9-.1-2.9-.8-.4-.3-.8-.7-1-1.2-6.8-18.4-8-37.7-3.6-57.9,1.1-5.1-1.5-14.6-7.9-28.7-.4-.9-.1-1.3.8-1.2h1.6c0,.1.2.2.2.3,7.7,11.4,11.1,19.9,10.3,25.5-2.9,18.6-2.7,36.4.7,53.2.3,1.5.8,2.9,1.6,4.2Z"/>
        <path class="cls-1" d="M-698.8,998.9c12,3,24.5,4.3,37.4,3.9.7,0,1.2.2,1.3.6,0,.2,0,.4,0,.7-.2.3-.5.4-1,.5-13.7,1.2-26.5.4-38.5-2.5-11.9-3-23.6-8.2-35.2-15.6-.4-.3-.6-.5-.7-.8,0-.3,0-.5.3-.6.3-.3.8-.3,1.4,0,11.3,6.3,23,11,35,13.9Z"/>
        <path class="cls-1" d="M-1347.6,1089.3c6.5,2.4,23.1,7.8,35.1,4.5,21.4-5.9,40-10,55.6-12.3.9-.1,1.6.5,1.8,1.3,0,0,0,.2,0,.3v1.8c0,.3-.3.4-.8.5-16.2,2.7-30.5,5.9-42.6,9.6-16.5,5-32.4,5-47.7,0-29.4-9.7-41.6-29.2-36.5-58.5,1-5.9,3.7-12,8-18.2,7.5-10.8,15.6-23.8,27.8-23.4,4,0,4.3,1.1.8,3.1-12.7,7.2-21.5,15.5-26.6,24.8-12.3,22.8-9.6,41.8,8.2,57,4.4,3.8,10,6.9,16.9,9.5Z"/>
        <path class="cls-1" d="M-587.2,1129c-.7-11.4-4-17.5-14.8-21.9-14.2-5.8-34.9-14.4-28.9-32.3,2.5-7.5,7-17,13.6-28.3,1.1-1.9,1.4-3.9.8-6-4.7-20.4-17.7-32.8-38.7-37.2-2.5-.6-2.5-1.3,0-2.1,6.1-2,10.7-2.6,13.8-1.8,5.7,1.6,10.7,5.1,14,10,7,10,11.9,19.8,14.9,29.4.7,2.1.6,4.2-.2,6.2-1.6,4.1-5.2,12-10.8,23.4-5.6,11.4-3.1,20.1,7.4,26.3,7.3,4.3,13.7,7.6,19.2,9.9,8.6,3.7,10.8,11.7,13.6,19.8.5,1.4,2,2.2,3.4,1.7.5-.2.9-.4,1.2-.8,15.5-18.6,20.5-40.4,14.8-65.5-5.7-24.9-34.6-41.6-57.4-49.4-.3,0-.6-.3-.5-.5,0,0,0,0,0,0l.9-1.4c.4-.8,1.4-1.1,2.2-.8,21.2,7,38.4,18.4,51.7,34.2,7.1,8.4,10.5,19.2,10.4,32.5-.2,25.8-8.2,45.7-24,59.6-3,2.7-5.5,3.6-7.4,2.9-2.5-1-2.9-2.5-1.2-4.5l1.2-1.4c.5-.5.7-1.2.7-2Z"/>
        <path class="cls-1" d="M-1588.5,1019.1c1.8-2.1,1.5-5.3-.7-7.1-.2-.2-.5-.4-.7-.5-3.5-2-6.6-2-9.3-.1-1.5,1.1-2.8,3.2-3.7,6.4-1.3,4.8-2.2,7.6-2.6,8.4-1.6,3.3-2.5,3.3-2.5-.1-.3-8.9,2-15.4,6.9-19.5,3.3-2.8,6.8-3,10.4-.7,7.3,4.7,9.2,10.3,5.8,16.7-1.8,3.4-4.1,5.1-6.7,5-2.5-.2-2.9-1.2-1.3-3.1l4.6-5.4Z"/>
        <path class="cls-1" d="M-1360.6,1061c4.4,11.8,26.9,10.1,36.2,6.9,6.4-2.2,13-4.3,19.8-6.3,1-.3,1.9-.1,2.7.5l2.7,2.4c.5.4.4.7-.2.9-16.8,5.7-27.4,8.9-31.9,9.9-19.2,4-30.5-3.8-33.9-23.3-3.9-22.7,4.8-38.4,26.3-47.2.5-.2.9-.2,1.4.2l2,1.7c1.5,1.2,1.3,2.2-.5,2.9-17.3,6.4-26.1,19.4-26.4,38.7,0,5.1.5,9.3,1.9,12.9Z"/>
        <path class="cls-1" d="M-1668.3,1016.9c-1.7-.8-3.8-.1-4.8,1.6-2.4,4.4-1.6,8.7,2.5,12.7.8.8.9,2.1,0,3-.3.3-.7.6-1.2.6l-2.1.3c-.3,0-.6,0-.8-.4-5.1-7.9-4.9-15,.4-21.1,2.9-3.3,6.1-3.6,9.7-1,8.6,6.5,10.7,12.9,6.1,19.1-.7,1-1.7,1.4-2.9,1.3-.6,0-1.1-.3-1.6-.8-.2-.1-.2-.3,0-.5l2.5-4.4c.9-1.5.8-3-.1-4.5-1.6-2.4-4.2-4.4-7.7-5.9Z"/>
        <path class="cls-1" d="M-1529.1,1054.1c-8.1,3.6-14.7,8.5-19.7,14.6-3.3,3.9-3.5,8.4-.8,13.5l.8,1.6c1.8,3.4,6.2,4.6,9.8,2.7.6-.3,1.1-.7,1.6-1.2,7.2-6.7,10.1-15,8.8-24.9,0-.8.3-1.2,1-1l2,.3c.4,0,.6.3.7.7,1.1,8.1-.9,16.4-6,24.8-3.5,5.9-11.2,7.8-17,4.2-.7-.4-1.3-.9-1.9-1.4-10.5-9.5-3.9-22.5,6.3-29.7,2.7-1.9,6.1-4.6,10.3-8.1,2.3-2,4.8-3,7.5-3.1,4.1-.2,6.6-.5,7.4-.8,8.2-3.1,13.8-8.9,16.7-17.4,1.3-3.7.2-6.5-3.2-8.5l-2.8-1.7c-3.8-2.2-7.1-1.6-9.9,1.8-4.8,5.8-7.3,12.7-7.6,20.6,0,1-.5,1.6-1.4,1.9-.7.2-1.2,0-1.7-.8-.4-.6-.6-.9-.6-1-.6-12.4,4.6-21.4,15.5-27.1,2.1-1,4.1-1,6.1.2,5.7,3.3,8.7,5.4,9.1,6.3,3.4,8.4-.3,18.1-8.6,22.3-5.8,3-9.6,6.1-11.4,9.4-.9,1.6-2.9,2.2-4.6,1.4-1.7-.8-3.9-.7-6.5.5Z"/>
        <path class="cls-1" d="M-1333.6,1040.3l28.3,4.4c2.7.4,2.8,1.1.1,1.9-12.5,4-24.5,2-35.8-6.1-3.8-2.7-4.7-8-1.9-11.8.1-.2.2-.3.4-.5l11-13.1c.7-.9,1.7-1.1,2.7-.7.8.3,1.4.9,1.9,1.7.2.3.2.6,0,.8l-10.6,12.6c-2.3,2.7-2,6.8.7,9.1.9.8,2,1.3,3.2,1.5Z"/>
        <path class="cls-1" d="M-969.7,1046.1l-1.1,1.3c-1.6,1.9-2.3,1.6-2-.8,1.3-11.8,6.8-21.4,16.7-28.5,1.9-1.3,3.9-1.8,6.2-1.4,6.1,1.2,10.4,4.2,12.8,9.2,1.6,3.3.7,7.6-2.6,12.9-4.5,7.3-12.5,9.1-24,5.6-2.4-.7-4.4-.2-6,1.8ZM-944.1,1024.1c-4.4-3.9-11.4-3.1-15.8,1.8-4.4,4.9-4.3,12,0,15.9h0c4.4,3.9,11.4,3.1,15.8-1.8,0,0,0,0,0,0,4.4-4.9,4.3-12,0-15.9t0,0Z"/>
        <path class="cls-1" d="M-1604.3,1068.1c6-9.8,4.8-17-3.5-21.9-2.8-4.5-3.5-8.1-1.9-10.9.9-1.7,2.2-2.3,4.1-2l66.9,10.5c.5,0,.8.3,1,.8l.7,1.6c.5,1.3,0,1.8-1.3,1.6l-59.1-9.3c-2.1-.3-4.1,1.1-4.5,3.3-.1.7,0,1.4.2,2.1,4.7,11.8,8.6,22.1-3.4,29.9-1.3.9-2.5.8-3.7-.2l-1.4-1.2c-.4-.4-.4-1.1,0-1.5,0,0,.2-.2.3-.2l5.7-2.6Z"/>
        <path class="cls-1" d="M-1668.2,1047.7c-.1.1-.5.6-1,1.3-.3.4-.7.7-1.2.8-17.4,2.4-35.4,7.5-54,15.4-1.2.5-1.7.2-1.4-1.1l.4-2.4c0-.6.4-.9.8-1,12.2-3.5,24.2-7.5,35.9-12,15-5.8,26.5-8.9,34.4-9.3,12.2-.6,24.3-1.7,36.2-3.3,1.7-.2,2.4.5,2.3,2.1v1.6c-.1.3-.3.4-.5.4-15.9.9-31.8,2.6-47.6,5.1-1.7.3-3.1,1.1-4.2,2.4Z"/>
        <path class="cls-1" d="M-1744.2,1046.9c-2.2,3.2-3.3,5.5-3.3,6.9-.3,9-2.4,9.4-6.3,1.3-.4-.9.5-2.6,2.7-5.1.6-.7,1.6-2.3,3.1-4.8,2-3.3,4.7-4.5,8.1-3.7,3.2.8,3.3,1.7.3,2.7l-2.3.8c-.9.3-1.6.9-2.2,1.9Z"/>
        <path class="cls-1" d="M-1731.1,1046.9c-.4-.7-1-1.3-1.8-1.8-1-.6-1-1.1.1-1.5.9-.3,1.6-.5,2-.3,2.6.7,4,3.7,3.1,6.8,0,.3-.2.6-.3.9l-7.4,17c-1,2.2-.4,4.7,1.4,6.3l14.3,12c4,3.4,4.5,9.4,1.1,13.4-1.1,1.3-2.6,2.3-4.3,2.9-11.4,3.8-19.6-3.2-24.8-21-1-3.2-2.9-4.1-5.9-2.7-23.6,10.9-45.4,23.3-65.4,37.2-1.1.7-2,.5-2.6-.6l-1-1.7c-.4-.7-.3-1.3.4-1.7,18.6-12.8,39.1-24.3,61.3-34.4,4.9-2.2,8.3-4.5,10.3-7,2.3-2.9,5-4.2,8.2-4,2.2.1,4.2-1.4,4.6-3.6.7-3.4,2.9-7.8,6.7-13.2.7-1,.8-2.1,0-3.1ZM-1743.2,1076.9c1.5,11,5.8,18.7,12.8,23.1,1.7,1.1,3.9.8,5.3-.6l1.6-1.6c2.4-2.4,2.5-4.9.1-7.4l-14.8-16c-.7-.7-1.3-1.1-2-1-1.1,0-1.7.2-1.8.3-.9,1.1-1.4,2.3-1.2,3.2Z"/>
        <path class="cls-1" d="M-1609.3,1053.2l-3.1,10c0,1.2-.2,2.1-.7,2.7-.8,1.1-1.5,1-2-.3-2.3-5.7-1.1-10.7,3.4-14.9,1-1,1.8-.8,2.2.6.2.6.3,1.2.1,1.9Z"/>
        <path class="cls-1" d="M-1669.8,1087.8c.6,2.6,3.3,4.1,5.8,3.4.7-.2,1.4-.5,1.9-1,8.4-7.2,1.9-25.7-3.8-32.8-.5-.5-.5-1.4,0-1.9l1.5-1.5c0,0,.2,0,.2,0,9.1,9.9,12.5,19.2,10.2,28-4.8,18.5-12.2,19.8-22.1,3.9-2.9-4.6-2.9-13.8,0-27.8,0,0,0-.2.1-.3l1.9-1.6c1.1-1,1.7-.7,1.6.8-.6,11.5.3,21.8,2.6,30.8Z"/>
        <path class="cls-1" d="M-1472.2,1082.1c5.1-8.6,11.8-15.4,20.1-20.5,4.7-2.9,9.3-1.7,14,3.7.3.3,1.6,2.3,4,6.1,3.1,4.8,2,11.2-2.6,14.7-5.4,4.2-11.5,7.4-18.2,9.7-.8.3-1.4,0-1.8-.7l-.9-1.6c-.4-.7-.2-1.2.5-1.6l13.7-6.7c3.7-1.8,6-4.9,5.8-8-.4-6.3-3.5-10.1-9.5-11.3-3.3-.7-6.1.3-8.3,2.9l-12.9,15.3c-1.1,1.3-.8,2.4.7,3,4.4,1.9,5.7,4.5,3.9,7.7-1.2,2.1-1.3,4.5-.4,6.7,6.4,15.4,10.3,32.5,11.6,51.5,0,.2,0,.3-.3.3l-2,.3c-1.2.2-1.9-.3-2.1-1.6-1.8-14-4.7-27.1-8.5-39.4-2.1-6.6-5.7-7.6-10.8-2.9-4.8,4.4-11,6.6-18.7,6.5-7.8,0-12.5-4.2-13.9-12.5,0-.1,0-.9-.3-2.4-.8-8,2.8-12.1,10.9-12.1,7.2,0,12.7.3,16.6,1.2,1.7.3,2.9.3,3.7,0,1-.5,1.6-.9,1.9-1.4.9-1.4.6-2.6-.7-3.6l-40.3-29.3c-.3-.2-.4-.5-.1-.9.3-.6.8-.8,1.4-.6,14.8,5.9,28,15.1,39.6,27.8,1.4,1.5,2.6,1.4,3.7-.3ZM-1480.2,1106.2c8.6-4.5,8.3-7.6-1.1-9.5l-16.8-3.2c-3.4-.6-6.7,1.6-7.3,5-.2,1.2,0,2.5.4,3.6,3.7,8.7,9,11.4,16.1,8.1,4.9-2.2,7.8-3.6,8.7-4Z"/>
        <path class="cls-1" d="M-1298,1062.9c5.7-3.5,10.9-3.8,15.5-.8,1,.6,1.3,1.9.7,2.9-.4.6-1.1,1-1.9,1h-13.5c-.9,0-1.7-.7-1.7-1.6,0-.6.3-1.2.9-1.5Z"/>
        <path class="cls-1" d="M-476.7,1186.9c3.5,19,16.3,31.8,38.5,38.4,0,0,.2.1.1.1l-.9,2c-.4.8-1,1.1-1.9.8-29.7-9.9-46.8-36.4-36.7-68.2,6.3-19.8,17.8-35.4,34.5-46.8,10.3-7.1,24.7-13.5,37.9-8.2,13.3,5.4,23.5,10.9,30.8,16.5,12.2,9.4,24.2,20.7,35.9,33.6,10.8,12,23.3,18.7,37.9,29,1,.7,1.1,1.3.4,2h0c-.7.6-1.4.7-1.9.4-13.5-8.6-24.8-14.6-34.5-24.5-12.6-12.6-25.6-24.9-39.1-36.8-22.5-19.9-50.9-26.7-74.2-2.5-21.6,22.5-30.5,43.8-26.7,64.1Z"/>
        <path class="cls-1" d="M-1177.2,1136.1c-2.2,2-4.3,3.4-6.3,4.1-1.9.7-3.9.4-5.9-.8-7.4-4.3-15-11.2-22.9-20.7-3.5-4.3-6.8-4.4-9.9-.5-1.7,2.3-2.8,2-3.3-.8l-.5-2.7c-.3-2.1.6-3,2.7-2.7l8,1.3c1.7.3,3.2,1.1,4.4,2.3,2.9,3,8.2,8.1,16.1,15.3,6,5.5,11.9,7.2,17.6,5.2Z"/>
        <path class="cls-1" d="M-1177.2,1136.1c1.3-1.5,2.7-2.5,4.2-3.1,2-.9,3.9-.6,5.6.8l7,5.9c3.5,3,8.9,2.6,11.9-1,.9-1.1,1.5-2.3,1.8-3.7,4.4-20.2-15.5-24-23.8-9.2-.1.3-.3.3-.6,0l-1.3-1c-.6-.5-.7-1-.3-1.6,5.3-7.9,11.4-11.1,18.3-9.8,18.2,3.6,16.4,30-1.2,32.3-2.1.3-4.2-.4-5.7-1.7-5.3-4.4-10.6-7-15.9-7.8Z"/>
        <path class="cls-1" d="M-309.7,1120.6c-1.2,1.2-2.5,2.7-4.1,4.7-2.6,3.2-3.2,6.2-1.9,9.2,2.3,5.1,6.9,8.4,13.8,9.8,1.5.3,1.8,1.1.8,2.3l-1.2,1.3c-.1.2-.3.3-.5.2-7.2-2.4-12.3-6-15.2-10.8-2.8-4.7-2.5-9.1.8-13.3,3.6-4.5,6.7-7.4,9.5-8.8,4.5-2.3,9.7-1.2,12.2,2.4,3.7,5.4,5.5,13.3,5.2,23.6,0,2.2.6,4.3,1.8,6,1.5,2.1,4.6,5.5,9.1,10.1,4.1,4.2,5.8,10.8,5.1,19.7,0,1-.6,1.5-1.6,1.5h-1.8c-.2,0-.3,0-.3-.3-.7-11.2-4.7-20.6-12.2-28.1-1.6-1.6-2.5-3.4-2.8-5.6l-3-19.7c-.7-4.5-4.9-7.5-9.3-6.8-1.7.3-3.3,1.1-4.5,2.3Z"/>
        <path class="cls-1" d="M-1250.3,1176.1c-4.9,5.3-4.5,11.5,1.2,18.6,4.7,5.9,13,7.7,19.7,4.2,9.1-4.7,10.4-12.9,3.9-24.4-1.1-1.9-1.3-3.9-.7-5.9,4.7-14.8,5.3-30.1,1.8-45.8,0-.5.3-1,.8-1.1.1,0,.3,0,.4,0l1.7.5c0,0,.1.1.1.2,3.7,15.2,3.3,30.2-1.3,45-1,3.3-1.2,5.6-.7,7,.3.7.8,1.7,1.8,3,1.2,1.8,2.1,3.8,2.5,5.9,2,8.5-1.3,14.8-9.9,18.9-12.1,5.8-21.9-1.5-27.1-12.4-3-6.3-.3-13.9,6-16.9.2-.1.5-.2.7-.3,5.4-2.1,10.5-2.9,15.3-2.4,1.4.2,1.6.7.5,1.6-1.7,1.3-5.4,2-11.1,1.8-2.2,0-4.3.9-5.8,2.5Z"/>
        <path class="cls-1" d="M-51.4,1135.9c1.9,10.8-2.5,20.6-13.1,29.5-7.8,6.5-16.5,6-25.9-1.7-1.7-1.3-3.5-1.7-5.6-1.1-17.7,5.2-28.3,7.4-31.7,6.7-21.6-4.5-43.3-8.8-64.9-13.1-9.1-1.8-19.3-.8-26.8-1.2-3.8-.2-3.9-1-.3-2.2,9.9-3.6,17.8-4.7,23.6-3.3,29.8,7,52.1,11.3,66.8,13.1,8.9,1,18.3-.8,28.3-5.4,1.9-.9,3-2.4,3.3-4.4,2.5-17.2,12.6-26.8,30.3-28.7,9.1-1,14.3,3,15.9,12ZM-86.1,1160.4c5.9,5.6,16.8,3.7,24.2-4.1h0c7.4-7.9,8.6-18.8,2.7-24.4-5.9-5.6-16.8-3.7-24.2,4.1h0c-7.4,7.9-8.6,18.8-2.7,24.4Z"/>
        <path class="cls-1" d="M-454.8,1175.6c-.7,3.1.9,9.2,4.8,18.4,4.6,10.7,15.6,19.3,24.6,28.9.6.7.6,1.4,0,2.2h0c-.6.8-1.3.8-2.1,0-15-15.5-27.4-24.4-28-48.6-.3-12.2,4.7-22.3,15-30.4,13.5-10.6,27.5-12.9,42.1-6.9,6.7,2.7,15.6,9.7,26.9,20.8,9.3,9.2,19.8,16.2,31.6,21,8.6,3.6,15.8,6.4,21.6,8.4,0,0,.1,0,0,.2s0,.1-.2,0c-27.6-2.7-42.6-16.8-66.3-37.8-6.2-5.5-11.7-8.4-19.3-12.1-2.9-1.4-5.8-1.9-8.8-1.5-22.8,3.2-36.8,15.7-42,37.4Z"/>
        <path class="cls-1" d="M-1456.4,1171.9l-11.6,11.6c-1.7,1.7-3.6,2.1-5.8,1.4-12.8-4-18.4-10.6-16.6-19.5,1.6-8.2,9.7-13.5,18.1-11.8,1.8.4,3.5,1.1,5.1,2,7.5,4.6,14.9,4.8,22.1.7,8.8-5.1,14.2-7.8,16.4-8,6.7-.9,12.8.5,18.2,4.2,5.1,3.5,6.6,10.4,3.3,15.7-10.3,16.7-25.3,17.9-44.9,3.4-1.4-1-3.2-.8-4.4.3ZM-1426,1151.5c-1.2-.3-2.5,0-3.6.5l-18.6,10.3c-2.4,1.3-3.3,4.4-2,6.8.6,1.1,1.7,2,2.9,2.4l21.6,6.9c1.9.6,4.1,0,5.4-1.6l11.5-13.7c1.8-2.1,1.5-5.3-.7-7.1-.6-.5-1.3-.8-2-1l-14.4-3.5ZM-1461.4,1162.9c-14.5-5.8-22.8-4.7-25,3.2-.6,2.3-.2,4.3,1.2,6.1,1.1,1.3,2.7,2.6,4.8,3.7,4.6,2.5,7.8,3.3,9.5,2.3,4.4-2.4,8-5.5,11-9.3,2.1-2.7,1.6-4.7-1.6-6Z"/>
        <path class="cls-1" d="M-1481.1,1240c-14.1,2.1-24.6-1.7-31.7-11.3-2.2-3-2.8-6.8-1.6-10.3,2.1-6,6.3-9.8,12.7-11.6,2.2-.6,4.2-.3,6.1,1,7.2,4.9,13.3,11.1,18.5,18.5.7,1,2.1,1.2,3.1.5.3-.2.5-.5.7-.8,6.6-13.8,11.3-28.2,14.1-43.2,0-.6.4-1,.9-1.2l2.7-1.6c.3-.2.6,0,.8.2,0,.1,0,.3,0,.4-3.4,16.8-9.1,32.7-17,47.9-2,3.9-1.1,6.8,2.9,8.7,3.9,1.8,7.7,3.2,11.4,4.2,10.2,2.7,16.7,15.2,15,23.7-.9,4.4-3.5,7.3-7.8,8.7-2.3.7-2.5.3-.8-1.4,6.1-6.1,7.1-12.4,3.1-18.7-2.3-3.7-6.7-6.9-13.3-9.5-7.6-3-11.8-4.7-12.6-5-2-.7-3.4-1.9-4.2-3.9-4-9.2-9-16.7-15-22.5-3.8-3.7-10-3.6-13.7.2-.4.4-.8.9-1.2,1.5-5.7,8.9-3.4,14.8,6.7,17.9,7.3,2.2,14,4.7,20.1,7.5Z"/>
        <path class="cls-1" d="M-256.8,1212.2c19.1-7.5,44.7-24.2,63.7-5.7,15.7,15.2,27.2,34.4,34.5,57.4.7,2.4,2.3,4,4.7,4.7l8.2,2.6c1.8.6,3.3,1.7,4.4,3.1,10.4,13.9,10.6,27.3.6,40.1-1.4,1.7-3.2,2.7-5.4,2.8-11.1.6-19.8-4.8-26.1-16.2-5.9-10.8,1.9-22.1,9.5-28.5,1.4-1.2,1.9-3.1,1.2-4.8-10-26.2-23.5-46.7-40.6-61.6-8.4-7.3-21.2-4.2-32.4.8-11.9,5.4-21.5,8.6-28.6,9.7-3.2.5-5.9-1-8.2-4.4-.3-.6-.1-1.4.4-1.7.3-.2.6-.2.9-.1l6.3,2c2.3.7,4.5.6,6.7-.3ZM-158.8,1310.6c4,4.6,10.9,5,15.5,1,1.6-1.4,2.7-3.2,3.3-5.3l2.8-9.8c.9-3,.4-6.1-1.2-8.8l-5.7-9.2c-3.2-5.2-9.9-6.8-15.1-3.7-1.2.7-2.3,1.7-3.1,2.9l-6.3,8.7c-3,4.2-2.8,9.9.7,13.7l9.1,10.4Z"/>
        <path class="cls-1" d="M-526.8,1216c-1.5,2.8-3.6,4.5-6.4,5.1-2.4.5-2.8-.1-1.1-2,1.6-1.7,2.9-3.4,3.9-5.2.9-1.7,1.7-3.7,2.2-6,.6-2.4,1.3-2.5,2.2-.1,1,2.7.7,5.4-.8,8.2Z"/>
        <path class="cls-1" d="M-1481.1,1240l2.4,1.3c1.3.7,2.1,1.7,2.5,3.1,3.7,11.8,10.2,21.9,19.7,30,.3.3.3.6,0,.8l-2,1.1c-.7.4-1.3.3-1.8-.3-10.3-10.2-17.2-22.2-20.8-36.2Z"/>
        <ellipse class="cls-1" cx="-428.7" cy="1265.8" rx="5" ry="2.2" transform="translate(-1543 528) rotate(-75.2)"/>
        <path class="cls-1" d="M-386.9,1305.4c6.4,5.7,16.2,9.8,29.7,12.3.2,0,.3.2.3.4,0,.2-.2.3-.4.3-13.3.7-24.1-2.4-32.5-9.1-9-7.2-16.8-21.8-23.4-43.6-.5-1.6-.3-2.5.7-2.6h0c.9-.1,1.5.3,1.8,1.4,4.8,17.4,12.7,31.1,23.8,41.1Z"/>
        <path class="cls-1" d="M-658.3,1453c.2.4.8.6,1.2.4.2-.1.4-.3.5-.6l14.1-44.7c.4-1.4,1.2-1.7,2.4-.7l2.4,2c.5.5.7,1,.5,1.7-5.1,14.5-9.8,27-14,37.2-1.7,4.1-2.3,7.5-2,10.3.2,2.3-.5,4.8-2,7.6-1.4,2.4-1.2,4.6.8,6.6l12.6,12.6c2.5,2.5,6.3,3,9.3,1.4l6-3.3c3.1-1.8,4.3-5.7,2.6-8.8,0-.2-.2-.3-.3-.5-4.6-6.7-12.7-10.7-24.4-12-1.2-.1-1.6-.8-1.2-2l.5-1.7c0-.2.2-.3.3-.3,9.7,0,18.6,3.5,26.9,10.4,4.5,3.7,5.4,10.3,1.9,15-1.7,2.3-5.2,4.7-10.6,7.4-4.3,2.1-8.1,2.1-11.4.1-7.9-4.8-12.4-10.6-13.5-17.5-.7-5-2.4-5.3-4.9-1l-24.3,42.2c-1.1,1.9-.7,3.3,1.3,4.2,8.1,3.8,13.7,8.6,16.8,14.4,2.9,5.6,1.6,12.4-3.1,16.5-4.7,4.1-7.9,6.6-9.7,7.6-6.1,3.3-10.5,1.7-13.2-4.7-4.3-10.4-5.6-18.3-4-23.6.2-.8.7-1.2,1.5-1.3l1.7-.3c.8-.1,1.3.2,1.3,1,.8,9.4,1.2,15.1,1.1,17.1-.3,5.7.8,8.8,3.1,9.4,3,.8,6.2.3,8.5-1.5,11.2-8.5,13.1-16,5.9-22.5-6.6-5.9-11.6-8.9-15.1-8.9-2.5,0-4-1.4-4.3-3.9-.8-5.7-3.9-11.8-9.2-18-2.8-3.3-7.7-3.7-11-.9-.4.3-.7.7-1.1,1.1-3.5,4.4-1.7,9.3,5.4,14.5,4.5,3.3,6.9,5,7.1,5.2.5.3.6,1,.3,1.4-.2.4-.7.5-1.1.4-10.3-2-15.8-8-16.5-17.8-.4-5.6,3.8-10.5,9.5-10.9,1.2,0,2.4,0,3.6.4,6.3,1.9,10.4,5.2,12.5,10.1,4.5,10.9,8.4,10.5,11.8-1.1,2.1-7.5,6.6-15.6,13.3-24.3,6.1-7.9,4.2-12.3-5.8-13.2-8.8-.8-13.6-6.1-14.5-15.9-.6-6.4,4.2-12.1,10.6-12.7,2.5-.2,5,.4,7.1,1.6,5.2,3.2,9.6,7.9,13.2,14.2ZM-679.3,1443.1l-5.9,8c-.5.8-.4,1.8.4,2.4l1,.8c9.6,7.2,19,10.8,21,8.1l.8-1c2-2.7-4.1-10.7-13.7-17.8l-1-.8c-.8-.6-1.9-.4-2.5.4,0,0,0,0,0,0Z"/>
      </g>
      <g>
        <path class="cls-1" d="M250,211.1c-47.4-31.6,13-103.3,40.8-59.5,15,23.8,10.8,41.9-12.9,54.4-5.4,2.9-10.8,6.5-16.2,11.1-2.4,2-4,4.8-4.5,7.9-6.8,42.5-4.9,78.2,5.5,107.2,5,13.8,16.5,22.5,34.5,26.2.9.2,18,2.7,51.4,7.5,8.8,1.3,15,6.1,18.8,14.5.5,1.1.3,2.1-.5,3.1l-2.1,2.6c-1.3,1.5-2.3,1.4-3.1-.5l-4.8-10.6c-1-2.4-3-3.7-5.9-4.1-19.1-2.5-31.6-3.8-37.6-3.8-38.1-.4-60.3-19.2-66.8-56.4-5.5-31.9-3.7-62.9,5.7-93.1.8-2.7,0-4.9-2.3-6.4ZM241.7,166.5c-4,5.3-4.8,12.2-2.2,18.3l4.9,11.4c4,9.3,14.8,13.6,24.1,9.6,1.4-.6,2.8-1.4,4-2.4l14.2-11.1c6.9-5.3,9-14.8,5.2-22.6l-7.7-15.6c-4.5-9.1-15.5-12.8-24.6-8.3-2.5,1.3-4.7,3.1-6.4,5.3l-11.5,15.3Z"/>
        <path class="cls-1" d="M1348.1,492.8c23.9,43.8,30.9,91.8,20.9,144.1-16.9,88.5-80.8,160.5-171,171.1-41,4.8-79.5.5-115.6-13.1-79-29.6-147.8-87.8-210.5-147.6-2.6-2.6-4.7-2.2-6.2,1.2-29,62.9-42,137.4-38.9,223.6,3.7,102.8,27,201.6,70,296.6,5.2,11.6,17.8,38.5,37.8,80.7,9.8,20.6,12.8,19.6,9-2.8-3.8-22.7-6.2-38.7-7.4-47.9-9-73.8,13.3-137,66.6-189.5,48.6-47.9,105.1-67.8,169.6-59.7,57.2,7.3,100.6,48.2,120.4,103.8,17.8,49.8,14,98.2-11.3,145.3-24.5,45.7-64.1,71.8-118.9,78.2-22.8,2.7-42.1-1.2-57.8-11.7-62-41.3-73.7-149,.4-185.7,16-7.9,32.2-8.9,48.6-3,24.9,8.9,47.2,24.7,50.2,53,2.7,27.4-9.9,47.7-37.9,61-6.5,3-11.7,4-15.7,2.7-20.8-6.4-30.3-32.3-7-43.8,6.9-3.4,7.5-2.6,1.7,2.6-10.2,9.1-9.4,20,2.4,32.7,2.4,2.6,6.2,3.4,9.4,1.9,14.8-7,35-21.5,40.2-39.2,6.2-20.6-.2-37.3-19.1-50.2-30-20.4-57-22.8-80.9-7.1-18.8,12.3-29.7,32.4-32.9,60.3-5.3,46.4,11.6,91.1,56.3,114.6,9.9,5.2,21.2,7.2,34,6,54-5,94-29.3,120-73,16.4-27.7,25.3-67.6,21.8-99.6-8.2-74.3-47.6-121-118.3-140.1-42.5-11.4-101.3-.8-138.7,31.2-13.2,11.2-20.3,17.3-21.5,18.3-51.1,42.5-76.9,97-77.4,163.7-.3,32.8,10.9,73.3,17.3,106.9,1.5,8.3,11.9,26.3,31.3,54,40.6,58.5,89.4,114.4,146.2,167.7,14.6,13.6,28.8,24.4,42.8,32.3,2.1,1.2,4.3,1.6,6.7,1.4,19.7-2.1,37.8,3.2,54.3,15.7.9.2,1,1,.4,2.6-.7,1.5-1.8,1.9-3.3,1.3-15.6-6.7-26.4-10.9-32.3-12.7-24.7-7.4-27-3-6.9,13.4,33.1,27.2,69.2,52.1,108.2,74.8.5.4,1,1.1,1.4,2.1.2.5.4.9.7,1.2l-10.1,3.1h-4.2c-48.9-23.3-94.7-55.6-137.5-96.8-5.3-5.1-13.7-5.1-19,0-9.1,8.9-22.8,12.9-33.3,23.6-16.4,16.7-49.1,49.9-72.2,59.6-31.3,13-56.1,1.8-74.3-33.8-1.1-2-.3-4.5,1.7-5.6.5-.3,1.1-.4,1.8-.5,15.2-.5,30.1-5.3,44.7-14.2,24.9-15,46.9-27.2,66.3-36.4,10.9-5.2,27.6-8.2,50.2-9,1.5,0,2.3.6,2.5,2l.5,2.7c.2,1.3-.4,2-1.6,2.1-25.6,1.2-47.5,7.1-65.8,17.7-30.7,17.9-56.7,30.9-78.1,39.1-14.9,5.7-15.2,12.1-.9,19.2,7.2,3.6,12.3,6.2,15.4,7.7,13.1,6.5,26,6.2,38.8-.8,24.7-13.7,48.7-34.4,71.9-62,.8-1,1.8-1.8,3-2.3,11.6-4.8,20.8-10.8,27.4-18.1,2.2-2.3,2.2-4.6,0-6.9-47.4-48.1-81.6-81.5-102.7-100.3-.2-.2-.5-1.5-.8-3.9-.4-2.9-1.4-5.5-3.2-7.8-47.3-61.7-80.8-109.6-100.4-143.7-20.2-35.3-44.6-86.8-73.2-154.5-4.1-9.8-11.1-21-20.8-33.5-6.5-8.3-14.3-19.4-23.7-33.2-23.2-34.4-59.8-60.9-109.8-79.3-29.9-39.4-47.9-64.8-54.3-76.2-16.9-30.5-15.9-62.8,2.8-97,17.6-32,47-52.6,88.3-61.6,2.2-.5,3.3.4,3.3,2.7v2.8c0,3.9-3.1,7.2-7,7.3-30.8.9-55.9,17.4-75.5,49.5-21.8,36.1-20.5,71.6,2.8,106.2,7.7,11.5,16.4,23.2,26.1,35.2,9.4,11.6,11.8,10.1,7-4.5-11.4-35.4,21.9-61.2,49-80.2,8.9-6.2,11.3-18.3,5.5-27.5-3.2-5-10.3-15.9-21.4-32.6-5.3-8-5.2-15.7-7.3-24-.9-3.3.6-6.8,3.6-8.5l3-1.7c1.2-.8,2.9-.4,3.6.9.5.8.5,1.8,0,2.6-3.7,7.6-4.2,13.2-1.6,16.8,17,23.9,39.1,47.7,28.1,72-5.7,12.4-20.5,17.8-32.8,25.7-3.5,2.3-7.6,6.5-12.3,12.7-13.3,17.5-15.2,37.1-5.8,58.7,5.5,12.7,15.4,22.4,29.4,29.2,42.7,20.6,81.9,61.7,101.7,100.5.8,1.5,2.6,2.2,4.2,1.4.2,0,.3-.2.5-.3,1.2-.9,1.9-1.6,2.2-2.2.5-1.1.7-1.9.5-2.3-4.7-15-11.5-43.3-20.5-84.8-27-125.7-16.9-243.1,30.5-352.2,1-2.3.6-4.4-1.1-6.2-16.8-17.8-35.7-35.3-56.7-52.5-7.4-6-14.7-8.9-22-8.7-3.1.1-6.1-.7-8.8-2.3-23.6-14.3-46-10.5-67.2,11.5-7.2,7.5-8.3,15.8-3.4,24.9,1.4,2.6,4.3,6.9,8.7,13,11.1,15.4,31.4,11.3,43.8,0,9-8.2,7.5-17.7-4.3-28.5-6.1-5.6-15.6-5.1-21.1.9-.7.8-1.4,1.7-1.9,2.6l-2.6,4.4c-1.1,1.9-3.5,2.7-5.6,1.7l-3-1.5c-2.3-1.1-2.7-2.6-1.2-4.7,10.5-14.4,22.6-17.6,36.3-9.6,24.9,14.6,15.9,44.1-10.3,49.4-19.6,3.9-34.6-3.9-45.1-23.4-5.5-10.2-6.6-17.9-3.5-23.3,21-36.2,50.9-43.3,89.7-21.2,1.2.7,2.3.6,3.2-.4.1-.2.3-.5.5-1,.3-.6.3-1.1,0-1.4-41.8-48.9-93.5-78-155-87.5-9.7-1.5-18.3.8-25.7,6.9-1.3,1.1-2.4.9-3.3-.5l-1.6-2.8c-.7-1.2-1.6-1.5-2.8-1-2.4,1.1-3.3,3-2.5,5.8,8.1,28.1,12.3,47.9,12.6,59.3.8,34-15.4,56.4-48.5,66.3-30.7,9.2-54.6,1.3-71.6-23.8-3-4.4-8.9-20.5-17.7-48.2-7.1-22.1-18.7-41.9-34.8-59.7-8-8.8-13.4-16.7-16.4-23.9-2-4.7-5.5-7.5-10.6-8.5-3-.6-6.3-1.2-9.8-1.7-5.1-.9-6.1.8-2.8,4.9,12.5,16,20.3,29.7,23.4,40.9,15.2,55.4,26.8,93,34.6,112.9,5.7,14.6,15.7,27.1,30.2,37.6,11.5,8.4,25.7,12.3,42.7,11.8,31-1.1,59.2-13,84.4-35.7,11.1-9.9,19.5-24.2,25.2-42.9,4.4-14.3,3.4-27.7-2.8-40.2-7.6-14.9-15.7-26.8-24.6-35.6-.8-.8-1-1.7-.6-2.7l1-3.2c.2-.5.7-.8,1.2-.7.1,0,.2.1.3.2,31.9,29.9,41.5,61.2,28.8,94-19.1,49.5-70.7,74-122.4,73.3-51.9-.7-73.3-53.7-86.4-100.6-13-46.7-26.2-83.2-39.5-109.4-1.3-2.6-3.2-4.6-5.8-5.9-5.5-2.9-10-6.7-13.3-11.4-2.8-4.1-8.4-5.1-12.5-2.3-1,.7-1.9,1.6-2.6,2.7-10.4,16.9-12.9,36.7-7.3,59.5.7,3,2.7,4.7,5.8,4.8,8.2.4,15,6.7,20.4,18.9,10.8,24.9-27,46.4-42.1,27-6.1-7.8-6.4-16-.9-24.5,10.7-16.5,13.1-33.7,7.2-51.4-1-3-1.1-6,0-9l7.3-23.4c1.1-3.5-.1-4.8-3.7-4.1-55.3,11-111,17.2-167.2,18.8-1.9,0-3.1-.9-3.4-2.8l-.4-2.7c-.2-1.2.6-2.4,1.9-2.6.2,0,.3,0,.5,0,27.7.8,55-.3,82.1-3.3,1.9-.2,3.2-.8,3.7-1.7.5-.7.7-1.6.5-2.7-.2-1.4-1-2.3-2.4-2.7-19.9-5.4-32.2-10.4-37-15.1-36.9-35.4-73.6-76.9-124.1-92.6-5.8-1.8-12,.9-14.6,6.4-6,12.7-15.4,19.4-28.1,20.2-21.5,1.4-38.9,1.6-45.9-21.1-.9-3-.8-6.1.5-9,8.9-21.9,25.3-32.7,49.2-32.3,11.3.2,20.3,9.4,27,27.7,1,2.6,2.8,3.7,5.6,3.3l5.6-.8c3.3-.5,6.5-.2,9.6,1,24.6,9.6,44,21.1,58.3,34.5,24.3,22.8,43.7,40.8,58.2,53.8,8.5,7.7,22.4,12.2,32.1,17.5,5.2,2.8,10.5,4.1,16,3.9,40.6-1.6,67.6-5.6,81-12,34.5-16.4,58.7-42.6,72.6-78.3,9.3-23.8,20.7-46.5,31.2-69.7,10.7-23.6,27.5-37.9,50.5-43,33.8-7.6,68,1,102.4,25.7,34.5,24.7,52,57.5,52.5,98.2.5,41.5-13.8,76.2-42.9,104-1.7,1.6-1.7,4.3,0,5.9.7.8,1.8,1.2,2.8,1.3,51.4,2.4,97.4,21,138.1,55.6,36.6,31.1,73.1,65.8,109.7,103.9,1.8,1.9,3.5,1.7,4.9-.5,20.5-30.8,40.5-57.4,59.9-79.6,5.2-6,10.6-15.7,16-29.2,3.7-9,9.8-18.5,18.5-28.5,6.5-7.6,19.7-24.7,39.7-51.5,2.2-3,1.4-4.7-2.3-5-15.4-1.3-28.5-7.2-39.4-17.7-2.3-2.3-2.7-4.8-1.1-7.5l9.6-16.6c1.3-2.1,3.5-3.4,5.9-3.5,15.5-.2,27,7.2,34.5,22.3.9,1.7,1,3.3.5,4.8-.5,1.3-1.3,2.3-2.6,2.8-1.7.8-3.2.3-4.4-1.4l-10.7-15.4c-4-5.7-8.9-6.8-14.9-3.3l-3.7,2.1c-6.2,3.6-6.9,8-2,13.3,9.4,10.2,24.2,13.7,44.4,10.4,2.7-.4,5.2-1.8,6.9-3.9,15.6-18.2,36.6-36.9,63-56,2.8-2,2.6-3.7-.6-5-12.7-5.2-22.7-14.9-30.1-29.1-10.3-20,8-39.2,27.4-34.5,14.9,3.6,23.1,14.9,21.8,30.4-.8,9-1.2,14.9-1.4,17.8-.2,2.5,1.8,4.7,4.3,4.8,1.1,0,2.2-.3,3-.9,17.8-13.1,40.5-26.3,68.2-39.7,2.6-1.3,3.1-3.1,1.7-5.6-3.2-5.7-7.7-6.2-11-13.7-22.9-51.7,50.4-66.5,48.9-19.6-.2,6.8-8,17.9-23.2,33.4-2,2-1.8,3.7.6,5.2,15.4,9.1,23.3,17.5,23.9,25.1.9,12.9-4.1,21.2-14.7,24.9-8.6,3-18-1.6-20.9-10.1-.6-1.7-.9-3.6-.9-5.4v-20.4c0-3.8-1.8-5-5.3-3.7-18.8,7-39.5,19.2-62,36.6-2.9,2.1-2.8,4.2.2,6.1,21.7,14.3,30,36.6-.5,49.5-4.6,1.9-9.9,1-13.5-2.4-9.7-8.8-13.3-18.9-10.7-30.1,1.3-5.7-.5-6.9-5.3-3.6-20.8,14.4-39.8,31.5-57.1,51.4-1.6,1.9-1.4,4.7.5,6.3.7.6,1.7,1,2.7,1.1,8.7.5,11.8,9.7,9.5,27.3-.9,6.6,1.6,8.3,7.4,5.1,58.6-32.4,122.5-42,191.7-28.8,42.8,8.2,79.6,31.5,110.5,69.8ZM610.8,435.4c16.1-17.7,25.6-32.5,28.4-44.4,19.5-81.3-9.1-134.9-85.8-160.8-25.5-8.7-48.9-7.5-70.2,3.4-9.4,4.8-17.7,12.9-24.9,24.4-10.4,16.7-16.3,27-17.8,31-16.1,42.3-30.8,84.8-63.9,112.1-19.6,16.1-16.9,22.1,8.1,17.8,8.8-1.5,19.6-5.6,32.6-12.3,8.3-4.3,17-11.9,25.9-22.8,22.4-27,36.9-44.7,43.5-53,27.7-35,57.1-43,88.3-24.1,32.3,19.6,39.2,70,30.9,101.9-5.2,20.3-8.9,34.5-10.9,42.7-.2,1.2,0,2.2.9,3,.9.9,1.9,1.3,2.8,1.5,2.4.2,3.9-.8,4.7-3.1l3.2-10c.9-2.7,2.2-5.1,4.1-7.2ZM1171.4,248.1c-2.7,2.9-3.7,7.1-2.6,10.9l4.1,14.2c1.8,6.1,8.1,9.6,14.1,7.8,2.8-.8,5.1-2.6,6.6-5.1l12.4-20.5c3.3-5.4,1.6-12.4-3.8-15.7-.4-.2-.8-.5-1.2-.7l-7.5-3.5c-4.5-2.1-9.9-1-13.3,2.7l-9,9.8ZM69.6,306.1c-3.9-13.1-21-19.6-38.1-14.5,0,0,0,0,0,0-17.1,5.1-27.8,19.9-23.9,33h0c3.9,13.1,21,19.6,38.1,14.5,0,0,0,0,0,0,17.1-5.1,27.8-19.9,23.9-33h0ZM1068.5,290c-9.5,3.7-13.2,10.6-11,20.7,2.9,13.3,17.7,16.5,22,26.8,1,2.4,2.7,3.4,5.3,3.1,1.3-.1,2.4-.4,3.3-.7,1-.4,1.9-.9,2.9-1.7,2.1-1.5,2.7-3.5,1.8-5.9-3.9-10.3,4.8-22.8-2.3-34.5-5.3-8.9-12.7-11.5-22.1-7.7ZM403.6,430.4c35.3,6.9,64.6-1.9,88-26.3,11.9-12.4,30.5-21.7,44.1-27.6,6.5-2.7,14-1.6,19.3,3,22.5,19.4,26.7,44,12.8,74-.5,1-.6,2.3-.2,3.4,1.1,3,3.5,4.3,7.3,3.9,1.6-.2,3.2-1,4.2-2.2,4.4-5.1,7.6-9.6,9.4-13.6,17.6-38.7,18-75.7,1.3-111.1-12.5-26.4-30.6-36.6-54.2-30.4-47.5,12.4-69.4,68.2-91.7,93.8-10.4,12.1-28.3,21.6-53.7,28.5-1.6.4-2.5,2-2,3.6.2.7.6,1.2,1.1,1.6,2.3,1.5,4.9,1.6,8,0,2-.9,4.2-1.1,6.3-.7ZM1200.9,338.2c5.5-1.6,7.8-10.8,5-20.6t0,0c-2.8-9.8-9.5-16.5-15-15h0c-5.5,1.6-7.8,10.8-5,20.6,2.8,9.8,9.5,16.5,15,15ZM1117.6,385c3.4-2,5.5-4.8,6.6-8.4.9-3,.3-5.8-1.7-8.2-11.9-13.8-20.2-19.2-25-16.3-4.8,3-3.8,12.9,3.1,29.7,1.2,3,3.4,4.8,6.6,5.3,3.7.7,7.2,0,10.5-2.1ZM471.2,435.1c.2-.3.4-.4.7-.3,22.7,4.9,45.5,13.7,68.3,26.2,9.1,5,20.5,1.7,25.5-7.3,1.4-2.6,2.2-5.4,2.3-8.4.5-17.7,2.8-32.6-5.6-44-5.2-6.9-10.2-12.7-15.1-17.2-3.8-3.5-9.3-4.2-13.9-1.7-24.2,13.1-46.1,30.5-65.7,52.1-2,2.2-4.5,3.1-7.4,2.8-4.7-.5-7.9,0-9.5,1.6-2.9,2.7-2.4,4.5,1.6,5.3,8.2,1.6,16.9,6.7,26.1,15.2,19.2,17.7,3.3,54.8,40.7,56.7,24.6,1.3,39-9.4,43.1-32.2,1.2-6.9-3.4-13.5-10.3-14.7-.4,0-.8-.1-1.2-.2-8.1-.7-15.4-2.5-21.7-5.4-27.7-12.6-47-20.5-58.1-23.7-1.5-.4-1.9-1.3-1.1-2.6l1.3-2.3ZM1017,422.5l-11.5,11.2c-1.6,1.5-1.6,4.1,0,5.7l.6.6c7.9,8.1,18,11.1,22.5,6.7,0,0,0,0,0,0l.7-.8c4.5-4.4,1.8-14.6-6-22.7l-.6-.6c-1.5-1.6-4.1-1.6-5.7,0ZM1169.2,677c-3.8-5.4-7.9-12.2-12.2-20.5-1.4-2.7-3.4-4.9-6.1-6.5-28.2-16.6-54.1-11.1-77.6,16.3-19.4,22.6-21.5,47.9-6.1,75.9,14.6,26.6,36.7,42.3,66.2,47,87.2,13.9,152.1-15.4,194.6-87.8,20.8-35.5,30.1-75.3,27.8-119.3-7.6-144-157.3-174.3-268.6-131.1-87.5,33.9-157.1,91.9-208.9,174-1.5,2.4-1.2,4.6.8,6.6,45,43.9,97.4,84.7,157,122.3,15.2,9.6,28.2,15.5,38.9,17.6,3.3.7,3.8-.3,1.6-2.8-41.4-48.7-35.4-91.2,18.2-127.7,32.8-22.3,70.7-2,76.7,35.2.5,3.5-.2,3.7-2.2.8ZM488.6,507c-4.4-12.6-7.7-32.3-15.2-41.9-9.2-11.6-28.3-16.4-37.8-20.5-26-11.3-29.7-6.3-11.1,15.2,22.7,26.1,38,55.4,45.9,87.9,9.4,38.7,37.7,61.9,77.5,51.9,15.1-3.8,26.2-10,33.4-18.6,22-26.7,13.4-56,1.1-87.8-5.4-13.9-10.4-13.8-15.2.3-.4,1-1.4,4-3,9-1.2,3.4-2.8,5.9-4.8,7.5-19.6,14.7-40.3,17-62.1,6.7-4-1.9-7.1-5.4-8.6-9.6ZM1010.2,454c-2.6-1.3-6.3-4.4-11.1-9.1-2.2-2.1-4.2-2-6.1.4-12.2,15.2-23.9,31.4-35,48.5-1.5,2.3-3.6,4.5-6.3,6.7-4.9,3.8-7.3,5.8-7.4,5.9-1.2,1.8-1.2,3.4,0,4.6.6.7,1.4,1.2,2.4,1.4,1.2.2,2.5-.2,4.1-1.2,21.8-13.8,45.3-36.2,78.1-50.1,0,0,.1,0,.2-.2.1-.4.3-1.1.5-2.3.2-1.6-.4-2.3-2-2.1-7.1.7-12.9-.2-17.3-2.5ZM337,501.6l-10.4,23.2c-1.5,3.3,0,7.1,3.2,8.6l1.7.7c11.3,5.1,23.8,1.7,28-7.6,0,0,0,0,0,0l.6-1.5c4.2-9.2-1.6-20.9-12.9-25.9,0,0,0,0,0,0l-1.6-.7c-3.3-1.5-7.1,0-8.6,3.2Z"/>
        <path class="cls-1" d="M118.8,471.3c-5.6,4.3-13.5,3.2-17.8-2.4,0,0,0,0,0,0l-6.3-8.3c-11.2-14.7-8.6-35.6,5.8-46.5l2.1-1.6c14.4-11,35.2-7.9,46.4,6.8,0,0,0,0,0,0l6.2,8.3c4.2,5.6,3.1,13.5-2.4,17.7l-34.1,25.9ZM97.5,429.2c-3.6,4.2-4.7,10.1-2.9,15.4l3.8,11.1c2.8,8.2,11.8,12.6,20,9.8,2.2-.8,4.2-2,5.9-3.6l17.4-16.9c6.2-6,6.4-16,.4-22.2-.2-.2-.4-.4-.6-.6l-9.1-8.4c-6.4-5.9-16.3-5.4-22.2,1-.1.1-.2.3-.4.4l-12.2,14.3Z"/>
        <path class="cls-1" d="M1121.1,678.1c-33.4-7.3-42.9,41.4-10.2,50.6,21.1,5.9,42-5,49.6-26.9,1.9-5.5,3.2-9,4-10.4,7.3-13.2,9.5-12.3,6.6,2.5-4,20.7-29.2,47.1-52.7,44.5-15.5-1.6-26.6-9.6-33.2-24-8.3-18.3-2.4-32,17.9-41,14.7-6.5,35.2.3,36.8,17.8.5,5.7-1.4,9.8-5.7,12.4-3.5,2.1-4.8,1.2-3.8-2.7,1.6-6.5,1.7-11.2.4-14.3-2-4.6-5.2-7.4-9.7-8.4Z"/>
        <path class="cls-1" d="M689.1,968.1c-29.8-5.4-59.1-10.4-88-14.8-14.6-2.3-26.5-1.5-35.7,2.4-15.4,6.4-30,9.7-46,17.6-34.7,17.4-60.1,29.2-76.2,35.3-16.2,6.2-31.8,10.1-46.8,11.9-11,1.3-26.2-2.4-45.4-11.3-22.2-10.2-44.4-19.9-66.6-29.2,25.2,2.4,51.3,11.8,78.1,28.1,1.9,1.2,9.3,3,22,5.4,18.9,3.6,59.8-10,76.9-19.2,34.8-18.8,70.6-34.9,107.5-48.2,1-.3,1.6-1.4,1.3-2.4-.2-.5-.5-.9-1-1.2-36.1-20.2-74.9-34-116.3-41.3-9.4-1.7-28.3-.4-56.7,4-43.1,6.7-84.5,34.2-118.2,57.4-3.1,2.1-4,5.3-2.6,9.5.9,2.8,0,4.4-3,4.8-4.3.6-8.4.5-12.2-.3-4.4-1-4.9-3-1.5-5.9,73.9-64.8,161-96.4,256.7-63,8.5,3,23.9,9.9,46.2,20.7,15.4,7.5,31.2,12.8,47.6,15.9,22.7,4.3,43.4,8.4,62.1,12.2,10.7,2.2,16.5,6,17.6,11.4Z"/>
        <path class="cls-1" d="M1157.8,1151.5c-.5-.6-1.1-1.4-1.9-2.3-1.3-1.5-.9-2.2,1.1-2,9.6.8,15.6,3.5,17.9,8.1,6.5,13,3.8,15.1-8,6.1-1.7-1.3-4.7-4.6-9-10Z"/>
        <path class="cls-1" d="M1657.3,1165.2c-7,5.2-10.8,13.1-11.2,23.5h0c0,0-2.5,0-2.5,0-1.5,0-2.3-.8-2.4-2.3-1.4-19.5,20.1-40.8,39.4-29.3,17.2,10.2,22.7,25,16.4,44.3-2.8,8.5-11.8,13.2-20.3,10.6-13.4-4-24.3-10.3-32.6-18.8-.1-.1-.2-.2,0-.4l1.3-2.2c.7-1.2,1.5-1.3,2.6-.5,9.4,7.7,19.6,13.3,30.8,16.7,6.4,2,13.2-1.5,15.2-7.9.4-1.2.6-2.4.6-3.6.1-14.4-5-25-15.3-31.9-6.9-4.7-14.2-4.1-21.8,1.6Z"/>
        <path class="cls-1" d="M1542.1,1205.5l-12.1,14.3c-1.9,2.3-4.3,4-7.1,4.9-36.4,12.5-41-37.5-13-52.6,2.5-1.3,5.4-1.7,8.1-1,10.5,2.7,17.7,9.6,21.7,20.7,1,2.9,2.9,4.8,5.8,5.8,26.6,9.6,37.7,29.4,33.5,59.3-.2,1.8-.9,2.3-1.8,1.5h0c-1-.9-1.6-1.5-1.6-1.8.6-21.6-8-39-25.7-52-2.9-2.2-5.5-1.9-7.9.9ZM1499.9,1190.6c-3.7,4-4.4,9.9-1.7,14.6l5.6,9.5c3.4,5.9,11,7.9,16.9,4.5,1-.6,1.9-1.3,2.7-2.1l8.7-9.1c3.8-4,4.5-10,1.7-14.8l-5.6-9.4c-3.4-5.9-11-7.9-16.9-4.5-1,.6-2,1.3-2.8,2.2l-8.6,9.1Z"/>
        <path class="cls-1" d="M1583,1281.8c-.1-5.7,2.3-9.5,7.2-11.2,3-1.1,5.3-3.6,5.9-6.7,6.6-27.9,21.2-51.1,43.8-69.4.7-.5,1.1-.4,1.2.5l.6,3.9c.1,1-.2,1.8-.8,2.4-18.1,16.8-28.8,30.5-32.2,41.1-5.3,17-10.2,29.4-14.6,37.2-10.2,18.2-6.2,22.1,11.8,11.8,9.3-5.3,23.1-8.4,41.7-9.3,1.9-.1,2.6.8,2,2.7l-.7,2.3c-.1.5-.4.8-.9.8-17.5,1.2-32.7,5.7-45.8,13.5-12.3,7.4-12.7,15.4-1.2,23.9,21.4,15.9,47.1,26,77,30.4,6,.9,16.1,4.5,30.3,10.9,34.1,15.2,55.1,38.2,63,69,2.1,8.2,2.2,18.9,0,32.2-5.5,35.5-42.5,58.6-75.8,67.3-11.1,2.9-22,2-32.6-2.5-9.1-3.8-11.5-1.3-7,7.5,9.2,18.5,14,34.7,25.8,51.3,8,11.2,14.5,22.1,19.5,32.7,3.8,8,1.8,10.4-5.8,6.9-1.8-.7-2.8-3.4-3.2-8,0-.9-.2-1.7-.5-2.2l-43.4-76.4c-1.7-3-3.7-3.2-5.8-.5l-17.4,20.7c-2.1,2.4-4.6,4.2-7.7,5.2-32.1,11.1-61.2,6.1-87.3-15.1-10.3-8.3-15.1-19.3-14.3-32.9,1-19.3,4.1-32.1,9.4-38.5,37.6-45.1,58.4-95.8,62.3-151.9,1.3-18.8-7.5-34.4-26.4-46.8-8.6-5.6-19.3-7.9-32.1-6.9-10.1.9-21-2.8-33-10.9-2.6-1.8-6.2-1.5-8.4.7-4.6,4.5-9.6,11.6-15,21.3-3.3,5.9-2.5,12.3,2.5,19.2,5.1,7,11.9,9.9,20.5,8.6,16.8-2.5,24.9-12.7,24.3-30.5,0-.5.2-.7.7-.7h2.7c2.3,0,3.3,1.1,3.1,3.4-2.3,26.6-16.8,37.6-43.6,33.1-10.8-1.8-16.8-10-18.1-24.4-1-11.2,6.2-23.1,21.5-35.6,2.5-2.1,5.3-2.6,8.4-1.6,13.6,4.6,25.8,11.5,37.3,11.1,14-.5,29.2,4.1,45.4,13.7,3.8,2.3,5.7,1.2,5.7-3.2ZM1599.4,1346c.5-.3,1.2-.3,2.2,0,1.2.3,2.2,1.2,2.8,2.6,6.6,14.4,19.8,28.1,39.5,41.3,10.1,6.8,24.8,12.1,44.1,15.8,19.3,3.7,60.9,15.5,58.9,42.2-2.7,38.4-23.5,60.7-62.3,66.7-6.3.9-14.5-1.4-19.9-3-11.3-3.5-13.4-.3-6.5,9.6,4.4,6.2,13.1,8.9,26,8.1,20.5-1.3,40.6-10.5,60.3-27.8,19.3-16.8,25.8-37,19.6-60.6-9.6-36.9-34.1-61.4-73.3-73.7-34.8-10.8-53.2-16.5-55.3-17.1-11.1-3.2-19.8-6.8-26-10.9-11-7.1-16.9-4.1-17.9,8.8-3.8,47.6-19.6,88.6-47.5,123.1-11.9,14.7-18.6,26.2-19.8,34.5-2.9,19.3,0,33.4,8.5,42.4,7.4,7.7,18.1,13.1,31.9,16,15.3,3.2,27.1,4.4,35.5,3.5,20.3-2.1,30.5-22.8,44.5-36.6,1.5-1.5,2.1-3.3,1.8-5.4l-.9-5.9c-.5-3.3-2-3.7-4.3-1.4-9.1,9.5-19.3,18-30.3,25.6-27,18.5-57.2-13.3-63.4-36.7-.8-3-.5-5.9.7-8.7,2.7-5.7,15.6-28.9,38.8-69.6,14.6-25.4,18.5-52,11.8-79.8-.4-1.5-.2-2.5.6-2.9ZM1653.3,1499.6c10.7,5.7,17.9,8.4,21.7,8,37.3-3.7,60.1-21.9,68.3-54.6,1.8-7.1-1.2-14.5-7.5-18.4-22-13.5-45.7-22.4-71.2-26.7-12.2-2.1-17.6-6.5-27.9-15-12.7-10.4-15.5-8.2-8.4,6.6,8,16.7,12.3,22.2,29.5,30.4,16.5,8,42.3,21.5,40.9,41.9-.8,11.5-10.1,20.6-20.8,20.1-2.4,0-4.7-.7-6.9-1.7-2.3-1.1-6-1.8-11.1-2-3.3-.2-6,.6-8.2,2.3l-29,22.8c-2.2,1.7-5.1,2.5-8.1,2.3-17.2-1.5-27-12.5-29.4-33-.4-3.7.5-7,2.9-9.9l37.5-44.6c2.1-2.4,2.7-5.2,1.8-8.4l-10.8-36.6c0-.2-.2-.5-.5-.6-2.2-1.8-4-2.1-5.5-.9-.4.3-.6.7-.7,1.1-5.8,26.3-10.7,42.8-14.6,49.5-11.8,20.8-24.5,41.5-38,62.3-5.8,8.9-5,20.6,1.9,28.7,5.8,6.9,14.5,12.2,26,16.1,20.7,6.9,51-23.2,61.1-38.1,1.8-2.6,4.1-3.2,6.9-1.6ZM1645,1478c-4-16.2-6.2-33.2-6.9-51.1,0-.8-.8-1.5-1.6-1.4-.4,0-.7.2-.9.4-11.9,12.6-23.7,27.9-35.5,45.8-6.9,10.4-6.9,20.4,0,30.1,4.7,6.6,13.8,8.2,20.6,3.7,8.8-6,16.6-13.7,23.4-23.1.9-1.3,1.2-2.7.8-4.3ZM1649.7,1433.2c-1.7-1-3.9-.5-4.9,1.1-.5.7-.6,1.6-.5,2.5l8.9,44.8c.4,1.9,2.2,3.2,4.1,2.8l32.7-5.9c1.9-.4,3.2-2.2,2.8-4.2,0-.1,0-.3-.1-.4l-4.6-15.3c-.2-.8-.7-1.5-1.5-2l-37-23.5Z"/>
        <path class="cls-1" d="M734.1,1268.9c3.7-4.5,10.3-13.9,19.9-28.1,1.8-2.7,1.7-5.3-.2-7.9-7.1-9.6-15.8-12.7-26-9.2-4.7,1.6-7.6,6.3-6.9,11.2l4.7,30.9c0,.4-.4.7-.8.7-.2,0-.4,0-.5-.2-9.8-14.3-13.3-26.7-10.3-37.5,1.7-6.2,6.9-10.8,13.3-11.6,20.3-2.6,32.1,4.6,35.3,21.6.5,2.4-.2,4.8-1.7,6.7l-18.6,22c-2.8,3.4-3.3,7-1.6,11.1,8.1,19,17.7,34.3,3.7,54.2-5.8,8.1-16.7,10.6-25.4,5.8-10.1-5.6-14.6-14.2-13.6-25.9.5-6.5,7.3-20.7,20.4-42.5,1-1.8,2.5-2.3,4.4-1.4.8.4,1.6.7,2.6.7.6,0,1.1-.2,1.5-.6ZM747,1321c1.7-1.9,2.3-4.5,1.5-6.9l-10.3-29.2c-1.2-3.6-5.2-5.5-8.7-4.2-1.5.5-2.8,1.6-3.6,2.9l-16.4,26.7c-1.4,2.3-1.4,5.2,0,7.4l12.1,18.2c2.1,3.2,6.3,4,9.5,1.9.4-.3.8-.6,1.2-1l14.7-15.7Z"/>
        <path class="cls-1" d="M636.3,1308.1c12.1,4.8,18.2,15.2,18.5,31.3.4,19.8-14.7,24.1-30.9,23.9-8.7-.1-13.9-4.4-15.5-13-2.7-14.1-2.2-26.2,1.5-36.2,3.1-8.4.7-10.6-7.3-6.7-25.4,12.7-51,27.1-76.7,43.4,0,0-.1,0-.2,0l-1.4-2.5c-.5-1-.4-1.8.5-2.5,26-18,53.6-33.8,82.9-47.4,2.9-1.3,4.6-3.6,5.1-6.8.7-4.3,2.2-10.1,4.5-17.4,7.5-24.4-9.6-41.3-35.2-39.5-5.3.4-9.3,5-8.9,10.3,0,.5.1,1,.2,1.5,3.3,14.1,11.4,26.9,24.4,38.5,1,.9,1.2,1.8.5,2.9l-1.6,2.8c-.4.7-1.3,1-2,.6,0,0-.2,0-.3-.2-18.8-14.7-27.4-31.3-25.6-50,.9-9.4,9.3-16.3,18.7-15.4,1.1.1,2.2.3,3.3.6,33.1,9.8,42.7,30.6,28.8,62.2-1.3,2.9-.6,5.2,2.3,6.8.7.4,1.4.6,2.3.6,1.1.1,2.2-.2,3.4-1.1,1.5-1.1,3.9-2.8,7-5.1,2.6-1.9,5.1-3.1,7.5-3.7,20.2-5.4,43.3-10.3,69.1-14.7.9-.1,1.3.3,1.2,1.2l-.5,3c-.2,1.3-.9,2.1-2.2,2.2-29.3,3.5-53.8,9.5-73.5,18.2-9.3,4.1-9.3,8.1.2,11.9ZM648.1,1327c0-2.2-.9-4.2-2.6-5.6l-19.3-15.5c-3-2.4-7.3-2-9.8,1-1,1.2-1.5,2.6-1.6,4.1l-1.6,35.1c-.2,3.8,2.7,7.1,6.6,7.3.2,0,.3,0,.5,0h20.3c3.8,0,6.8-3.1,6.9-6.9l.5-19.6Z"/>
        <path class="cls-1" d="M826.8,1288.8c-24.8-8.3-50.3-12.2-76.5-11.8-.9,0-1.3-.4-1.5-1.2l-.4-2.4c-.2-1.7.5-2.5,2.2-2.5,20.1.4,46.5,3.7,79.2,10,19,3.6,31.6-3.2,37.7-20.5,6.3-17.8,1.3-22.5-15.2-13.9-4,2.1-5.7,9.2-5.1,21.3,0,1.1-.5,1.7-1.6,1.9l-3.6.5c-1.5.2-2.3-.4-2.4-2-.2-15.3,3.5-25.4,11.1-30.3,8.9-5.7,20.7-2.9,26.4,6.2,2.4,3.9,3.4,8.6,2.8,13.1-1.3,9.9-9.8,19-25.3,27.5-2.9,1.5-3,3.4-.5,5.5,4.3,3.5,12.5,7.7,24.6,12.6,7.5,3,15.3,7.6,23.5,13.7,29.1,21.9,54.7,40.6,76.8,56.1,6.3,4.4,13.7,11.9,22.4,22.3,6.9,8.4,15.1,15.7,24.6,21.8,1.2.8,1.3,1.7.4,2.7l-2.1,2.6c-.4.5-.8.6-1.4.3l-30.6-17.7c-2.9-1.6-4.6-4.1-4.9-7.5-.3-2.7-.5-4.3-.5-4.8-.2-1.9-1.2-3.5-2.8-4.6-12.8-8.7-26.4-18.1-40.8-28.1-.1-.1-12.9-10.4-38.5-31-19.1-15.4-40.2-26.1-63.2-32.3-3.4-.9-6.2,0-8.5,2.6l-18.2,21.7c-1.9,2.3-1.6,5.7.6,7.6.9.7,2,1.2,3.1,1.3,17.3.9,26.3-7.3,27.1-24.7,0-2.4,1.2-3.4,3.6-3l2.6.5c.5,0,.8.3.8.8,1.5,20.2-8.2,32.1-29,35.7-8.1,1.4-15.8-4-17.2-12.1-.6-3.7.2-7.5,2.2-10.7,3.4-5.2,9.7-12.6,19.2-22.3,2.4-2.4,2-4.1-1.2-5.2Z"/>
        <path class="cls-1" d="M1321.9,1621.4l-66.6-62.4c-2.3-2.1-3.6-4.7-4.1-7.8l-1.3-8c-10-18-17.9-33.7-19.4-55-.9-13.5-2-26.8-3.6-40.1-1.9-17,.8-35.1,8.3-54.2,12.3-31.4,18.6-48.4,18.8-51,2.6-28.4-14.1-47-50.1-55.8-2.1-.6-4.2.7-4.8,2.9-.3,1.1,0,2.3.6,3.2.5.8,1.2,1.9,1.9,3.4.6,1.2.9,2.6,1,4,2.3,47.5,7.4,102,15.3,163.8,0,.7-.2,1.1-.8,1.2l-2.5.4c-1.5.3-2.9-.7-3.2-2.2,0,0,0,0,0,0-9.5-56.4-15.8-117-19-182-.1-3.2,1.4-4.5,4.5-4,22.8,3.4,58,16.6,62.3,43,2.1,13,2.4,22,.7,27-21.1,62.7-36.3,98.9-15.4,155.8,11.5,31.2,37.2,70.5,77.2,118Z"/>
        <path class="cls-1" d="M1712.6,1314.9c-7.1,10.9-18.6,11.6-34.5,2.1-2.9-1.7-4.3-4.2-4.2-7.5,0-4.9.5-10.5-1.7-16.6-.7-1.7-.6-3.1.2-4.3.8-1.2,2.1-1.9,3.9-1.9,6.5-.4,11.4-3,15.9-5,3-1.4,5.9-1.1,8.6.8,15,10.7,19,21.5,11.8,32.4ZM1698.5,1317.4c7.3-2.3,11.3-10.5,8.8-18.3-2.4-7.8-10.4-12.3-17.7-10-7.3,2.3-11.3,10.5-8.8,18.3,2.4,7.8,10.4,12.3,17.7,10Z"/>
        <path class="cls-1" d="M490.2,1330.6c-.3-.2-.7-.4-1.3-.5-10.5-3.4-18.1-2.9-22.9,1.4-4.8,4.2-4.5,8.1.8,11.7,10.1,6.8,23,10.8,38.7,12.1.6,0,1.1.5,1,1.2,0,0,0,.1,0,.2-.3,1.1-.7,1.7-1.3,1.8-11,2.4-23.4-.3-37.3-8-6.3-3.5-9.4-7-9.5-10.6-.2-9.8,7.2-17.9,16.4-18.1.1,0,.2,0,.4,0,13.4,0,26.2,6.8,38.4,20.3.5.5.5,1.4,0,1.9-.5.5-1.2.5-1.7.2l-21.7-13.5Z"/>
        <path class="cls-1" d="M542.4,1382.4c3.5-1.9,5.8-4.4,6.9-7.4,1.1-2.9.3-6.2-2-8.3-3.8-3.4-6.1-5.7-6.9-6.9-2.6-3.9-1.9-4.8,1.9-2.8,12.6,6.5,15.8,14.3,9.6,23.5-3.7,5.5-10.5,8-16.9,6.4-15.3-4-20.6-14.3-15.8-31.2.3-1,.9-1.4,1.9-1.3l2.3.4c2,.3,2.7,1.4,2.2,3.4-3.1,10.6-.9,18.3,6.7,23.2,3.7,2.4,7,2.7,10.1,1.1Z"/>
        <path class="cls-1" d="M882.3,1426c-.6,1.3-1.5,2.4-2.7,3.4-2.5,1.9-4,1.3-4.5-1.8-.6-3.8.8-6.5,4.2-8.1,48.1-22.4,62.1,46.1,20.4,64.1-12.3,5.4-26.3,3.3-41.9-6.1-35.7-21.5-35.4-69.7,6-85.6,37.3-14.3,74.6-14,111.9.9,4.4,1.8,4.4,3.4-.3,4.7-3.6,1-7.5.6-11.6-1.1-38.7-15.7-88.1-13.6-115,20.7-19.4,24.7-4,47.2,22.3,57.8,15.8,6.5,29.4,2.3,40.7-12.3,14.7-19,.9-41.6-22.5-41.1-3.4,0-5.7,1.6-7.1,4.6Z"/>
        <path class="cls-1" d="M1340.9,1625.3c-2.5-2.6-4.5-5.9-5.9-10.1-24.6-30.8-36.4-64.3-35.4-100.6,1.5-52,25.9-89.1,73.1-111.4,4.1-1.9,7.4-4.8,9.7-8.7,3.4-5.6,5.9-5.3,7.6,1,6.1,22.7,18.7,40.8,15.2,69-.4,3-1.9,5.5-4.4,7.2-8.2,5.7-26.3,14.5-54.6,26.4-11.1,4.8-18.3,14.5-21.5,29.2,0,.2-.2.4-.5.4h-2.5c-1.8,0-2.4-.8-1.9-2.5,4.1-14.4,9.7-23.6,16.8-27.8,5.5-3.2,23.4-12.3,53.7-27.3,7.1-3.5,11.1-11.2,10-19-1.6-11.3-5-23.7-10.1-37-2.7-7.1-7.6-9.1-14.5-5.8-46.5,21.9-70.1,60.1-70.6,114.6,0,7.6.9,12.2,2.7,13.8,2.3,1.8,4.3,3.9,6.1,6.2,1.9,2.4,3,5.2,3.3,8.2,2.7,28.8,13.9,54,33.7,75.6,2,2.2,1.5,3.3-1.5,3.2-2.3,0-5.1-1.6-8.5-4.7Z"/>
      </g>
    </g>
  </g>
</svg>