<svg width="180" height="411" viewBox="0 0 180 411" fill="none" xmlns="http://www.w3.org/2000/svg">
<g clip-path="url(#clip0_24_1334)">
<path d="M63.8445 81.3151C52.8567 73.9899 66.858 57.3691 73.3024 67.5223C76.7795 73.0394 75.8059 77.2352 70.312 80.1328C69.0602 80.8051 67.8085 81.6396 66.5567 82.7059C66.0003 83.1696 65.6294 83.8186 65.5135 84.5372C63.9372 94.3892 64.3777 102.665 66.7885 109.387C67.9475 112.586 70.6134 114.603 74.786 115.461C74.9946 115.507 78.9585 116.087 86.701 117.199C88.7409 117.501 90.1782 118.613 91.059 120.561C91.175 120.816 91.1286 121.047 90.9431 121.279L90.4563 121.882C90.155 122.23 89.9232 122.206 89.7377 121.766L88.625 119.309C88.3932 118.752 87.9296 118.451 87.2574 118.358C82.8298 117.779 79.9321 117.478 78.5413 117.478C69.7093 117.385 64.5631 113.027 63.0563 104.403C61.7814 97.0086 62.1986 89.8225 64.3777 82.8218C64.5631 82.196 64.3777 81.686 63.8445 81.3383V81.3151ZM61.9205 70.9763C60.9932 72.2049 60.8078 73.8044 61.4105 75.2185L62.5464 77.8611C63.4736 80.0169 65.9772 81.0137 68.133 80.0865C68.4575 79.9474 68.7821 79.7619 69.0602 79.5301L72.3519 76.957C73.9514 75.7284 74.4382 73.5262 73.5574 71.7181L71.7724 68.1019C70.7293 65.9924 68.1794 65.1347 66.0699 66.1778C65.4904 66.4792 64.9804 66.8965 64.5863 67.4064L61.9205 70.9531V70.9763Z" fill="#D2AB68"/>
<path d="M318.396 146.616C323.936 156.769 325.559 167.896 323.24 180.02C319.323 200.535 304.51 217.226 283.601 219.683C274.097 220.795 265.172 219.799 256.804 216.646C238.491 209.784 222.542 196.293 208.007 182.431C207.405 181.828 206.918 181.921 206.57 182.709C199.848 197.29 196.834 214.56 197.553 234.542C198.41 258.372 203.812 281.275 213.78 303.297C214.985 305.986 217.906 312.221 222.542 322.004C224.814 326.779 225.509 326.547 224.628 321.355C223.747 316.093 223.191 312.384 222.913 310.251C220.827 293.143 225.996 278.493 238.351 266.323C249.617 255.219 262.715 250.606 277.667 252.484C290.926 254.176 300.987 263.657 305.576 276.546C309.703 288.09 308.822 299.31 302.957 310.228C297.278 320.822 288.098 326.872 275.395 328.356C270.109 328.981 265.636 328.077 261.996 325.643C247.624 316.07 244.912 291.104 262.089 282.596C265.798 280.765 269.553 280.533 273.355 281.901C279.127 283.964 284.296 287.626 284.992 294.187C285.618 300.538 282.697 305.244 276.206 308.327C274.699 309.022 273.494 309.254 272.567 308.953C267.745 307.469 265.543 301.465 270.944 298.8C272.543 298.012 272.683 298.197 271.338 299.402C268.974 301.512 269.159 304.039 271.894 306.983C272.451 307.585 273.332 307.771 274.073 307.423C277.504 305.8 282.187 302.439 283.392 298.336C284.829 293.561 283.346 289.689 278.965 286.699C272.01 281.97 265.751 281.414 260.211 285.053C255.853 287.905 253.326 292.564 252.585 299.031C251.356 309.787 255.274 320.149 265.636 325.597C267.93 326.802 270.55 327.266 273.517 326.988C286.035 325.829 295.307 320.196 301.334 310.066C305.136 303.645 307.199 294.395 306.388 286.977C304.487 269.754 295.354 258.928 278.965 254.501C269.113 251.858 255.482 254.315 246.813 261.733C243.753 264.329 242.107 265.743 241.829 265.975C229.983 275.827 224.002 288.461 223.886 303.923C223.817 311.526 226.413 320.914 227.897 328.703C228.244 330.627 230.655 334.8 235.152 341.221C244.564 354.782 255.876 367.74 269.043 380.096C272.428 383.248 275.719 385.752 278.965 387.583C279.451 387.861 279.961 387.954 280.518 387.908C285.084 387.421 289.28 388.649 293.105 391.547C293.314 391.593 293.337 391.779 293.198 392.15C293.036 392.497 292.781 392.59 292.433 392.451C288.817 390.898 286.313 389.924 284.945 389.507C279.22 387.792 278.686 388.812 283.346 392.613C291.019 398.919 299.387 404.691 308.428 409.953C308.544 410.046 308.66 410.208 308.752 410.44C308.799 410.556 308.845 410.648 308.915 410.718L306.573 411.436H305.6C294.264 406.035 283.647 398.548 273.726 388.997C272.497 387.815 270.55 387.815 269.321 388.997C267.212 391.06 264.036 391.987 261.602 394.468C257.8 398.339 250.22 406.035 244.865 408.284C237.61 411.297 231.861 408.701 227.642 400.449C227.387 399.985 227.572 399.405 228.036 399.15C228.152 399.081 228.291 399.058 228.453 399.035C231.977 398.919 235.431 397.806 238.815 395.743C244.587 392.266 249.687 389.438 254.184 387.305C256.711 386.099 260.582 385.404 265.821 385.219C266.169 385.219 266.354 385.358 266.401 385.682L266.516 386.308C266.563 386.609 266.424 386.772 266.146 386.795C260.211 387.073 255.135 388.441 250.892 390.898C243.776 395.047 237.749 398.061 232.788 399.962C229.334 401.283 229.264 402.767 232.579 404.413C234.248 405.247 235.431 405.85 236.149 406.197C239.186 407.704 242.176 407.635 245.143 406.012C250.869 402.836 256.433 398.038 261.811 391.64C261.996 391.408 262.228 391.223 262.506 391.107C265.195 389.994 267.328 388.603 268.858 386.911C269.368 386.378 269.368 385.845 268.858 385.311C257.87 374.161 249.942 366.419 245.051 362.061C245.004 362.014 244.935 361.713 244.865 361.157C244.773 360.484 244.541 359.882 244.123 359.349C233.159 345.046 225.393 333.942 220.85 326.037C216.167 317.854 210.511 305.916 203.881 290.223C202.931 287.951 201.308 285.355 199.06 282.457C197.553 280.533 195.745 277.96 193.566 274.761C188.188 266.787 179.703 260.644 168.113 256.378C161.182 247.245 157.009 241.357 155.526 238.714C151.608 231.644 151.84 224.157 156.175 216.229C160.254 208.811 167.07 204.036 176.643 201.949C177.153 201.833 177.408 202.042 177.408 202.575V203.224C177.408 204.128 176.69 204.893 175.786 204.916C168.646 205.125 162.828 208.95 158.284 216.391C153.231 224.759 153.532 232.989 158.933 241.009C160.718 243.675 162.735 246.387 164.983 249.169C167.162 251.858 167.719 251.51 166.606 248.126C163.963 239.92 171.683 233.939 177.965 229.535C180.028 228.097 180.584 225.293 179.24 223.16C178.498 222.001 176.852 219.474 174.279 215.603C173.05 213.748 173.074 211.963 172.587 210.039C172.378 209.274 172.726 208.463 173.421 208.069L174.117 207.675C174.395 207.49 174.789 207.582 174.951 207.884C175.067 208.069 175.067 208.301 174.951 208.486C174.094 210.248 173.978 211.546 174.58 212.381C178.521 217.921 183.644 223.438 181.094 229.071C179.773 231.946 176.342 233.197 173.491 235.029C172.68 235.562 171.729 236.535 170.64 237.973C167.557 242.029 167.116 246.573 169.295 251.58C170.57 254.524 172.865 256.772 176.11 258.349C186.009 263.124 195.096 272.651 199.685 281.646C199.871 281.993 200.288 282.156 200.659 281.97C200.705 281.97 200.729 281.924 200.775 281.901C201.053 281.692 201.215 281.53 201.285 281.391C201.401 281.136 201.447 280.95 201.401 280.858C200.311 277.38 198.735 270.82 196.649 261.2C190.39 232.061 192.731 204.847 203.719 179.556C203.951 179.023 203.858 178.536 203.464 178.119C199.57 173.993 195.188 169.936 190.32 165.949C188.605 164.558 186.913 163.886 185.22 163.932C184.502 163.955 183.806 163.77 183.181 163.399C177.71 160.084 172.517 160.965 167.603 166.065C165.934 167.804 165.679 169.728 166.815 171.837C167.139 172.44 167.811 173.437 168.831 174.851C171.405 178.42 176.11 177.47 178.985 174.851C181.071 172.95 180.723 170.748 177.988 168.244C176.574 166.946 174.372 167.062 173.097 168.453C172.934 168.638 172.772 168.847 172.656 169.055L172.054 170.075C171.799 170.516 171.242 170.701 170.755 170.469L170.06 170.122C169.527 169.867 169.434 169.519 169.782 169.032C172.216 165.694 175.021 164.952 178.197 166.807C183.969 170.191 181.882 177.03 175.809 178.258C171.265 179.162 167.788 177.354 165.354 172.834C164.079 170.469 163.824 168.684 164.543 167.433C169.411 159.041 176.342 157.395 185.336 162.518C185.615 162.681 185.87 162.657 186.078 162.426C186.101 162.379 186.148 162.31 186.194 162.194C186.264 162.055 186.264 161.939 186.194 161.869C176.504 150.534 164.52 143.788 150.263 141.586C148.015 141.238 146.021 141.771 144.306 143.185C144.005 143.44 143.75 143.394 143.541 143.069L143.17 142.42C143.008 142.142 142.799 142.073 142.521 142.188C141.965 142.443 141.756 142.884 141.941 143.533C143.819 150.047 144.793 154.637 144.862 157.279C145.048 165.161 141.292 170.353 133.619 172.648C126.503 174.781 120.963 172.95 117.022 167.131C116.326 166.111 114.959 162.379 112.919 155.958C111.273 150.835 108.584 146.245 104.852 142.119C102.997 140.079 101.745 138.248 101.05 136.579C100.586 135.489 99.7751 134.84 98.5929 134.608C97.8974 134.469 97.1325 134.33 96.3211 134.214C95.1389 134.006 94.9071 134.4 95.6721 135.35C98.5697 139.059 100.378 142.235 101.096 144.831C104.62 157.673 107.309 166.39 109.117 171.003C110.438 174.387 112.756 177.285 116.118 179.719C118.784 181.666 122.075 182.57 126.016 182.454C133.202 182.199 139.739 179.44 145.581 174.178C148.154 171.883 150.101 168.569 151.422 164.234C152.442 160.919 152.211 157.813 150.773 154.915C149.012 151.461 147.134 148.702 145.071 146.662C144.885 146.477 144.839 146.268 144.932 146.037L145.164 145.295C145.21 145.179 145.326 145.109 145.442 145.132C145.465 145.132 145.488 145.156 145.511 145.179C152.906 152.11 155.131 159.366 152.187 166.969C147.76 178.444 135.798 184.123 123.814 183.961C111.783 183.798 106.822 171.513 103.785 160.641C100.772 149.815 97.712 141.354 94.6289 135.281C94.3276 134.678 93.8871 134.214 93.2844 133.913C92.0095 133.241 90.9663 132.36 90.2013 131.27C89.5523 130.32 88.2541 130.088 87.3037 130.737C87.0719 130.899 86.8633 131.108 86.701 131.363C84.2902 135.281 83.7106 139.87 85.0088 145.156C85.171 145.851 85.6347 146.245 86.3533 146.268C88.2541 146.361 89.8304 147.821 91.0822 150.65C93.5858 156.422 84.8233 161.406 81.323 156.908C79.9089 155.1 79.8394 153.199 81.1144 151.229C83.5947 147.404 84.1511 143.417 82.7834 139.314C82.5516 138.619 82.5284 137.923 82.7834 137.228L84.4756 131.803C84.7306 130.992 84.4524 130.691 83.6179 130.853C70.7988 133.403 57.887 134.84 44.8592 135.211C44.4188 135.211 44.1406 135.002 44.071 134.562L43.9783 133.936C43.932 133.658 44.1174 133.38 44.4188 133.333C44.4651 133.333 44.4883 133.333 44.5347 133.333C50.9558 133.519 57.2842 133.264 63.5663 132.568C64.0067 132.522 64.3081 132.383 64.424 132.174C64.5399 132.012 64.5863 131.803 64.5399 131.548C64.4935 131.224 64.3081 131.015 63.9836 130.923C59.3705 129.671 56.5193 128.512 55.4066 127.422C46.8528 119.216 38.3453 109.596 26.6389 105.957C25.2944 105.539 23.8572 106.165 23.2545 107.44C21.8636 110.384 19.6846 111.937 16.7406 112.123C11.7567 112.447 7.72316 112.494 6.10049 107.231C5.89186 106.536 5.91504 105.817 6.21639 105.145C8.2795 100.069 12.0812 97.565 17.6215 97.6577C20.2409 97.7041 22.3272 99.8367 23.8804 104.079C24.1122 104.682 24.5294 104.937 25.1785 104.844L26.4766 104.658C27.2416 104.542 27.9834 104.612 28.702 104.89C34.4045 107.116 38.9017 109.781 42.2166 112.888C47.8496 118.173 52.3467 122.346 55.7079 125.359C57.6783 127.144 60.9005 128.187 63.149 129.416C64.3545 130.065 65.5831 130.366 66.858 130.32C76.2695 129.949 82.5284 129.022 85.6347 127.538C93.6321 123.736 99.2419 117.663 102.464 109.387C104.62 103.87 107.263 98.6081 109.697 93.2301C112.177 87.7594 116.071 84.4445 121.403 83.2623C129.238 81.5005 137.166 83.4941 145.14 89.2198C153.138 94.9455 157.195 102.549 157.31 111.984C157.426 121.604 154.111 129.648 147.366 136.092C146.972 136.463 146.972 137.089 147.366 137.46C147.528 137.645 147.783 137.738 148.015 137.761C159.93 138.317 170.593 142.629 180.028 150.65C188.512 157.859 196.973 165.903 205.458 174.735C205.875 175.175 206.269 175.129 206.593 174.619C211.346 167.479 215.982 161.313 220.479 156.167C221.684 154.776 222.936 152.527 224.188 149.398C225.046 147.312 226.46 145.109 228.476 142.791C229.983 141.029 233.043 137.065 237.679 130.853C238.189 130.158 238.004 129.763 237.146 129.694C233.576 129.393 230.539 128.025 228.013 125.591C227.48 125.058 227.387 124.478 227.758 123.852L229.983 120.004C230.284 119.517 230.794 119.216 231.351 119.193C234.944 119.147 237.61 120.862 239.348 124.362C239.557 124.756 239.58 125.127 239.464 125.475C239.348 125.776 239.163 126.008 238.861 126.124C238.467 126.309 238.12 126.194 237.841 125.799L235.361 122.23C234.434 120.908 233.298 120.653 231.907 121.465L231.049 121.951C229.612 122.786 229.45 123.806 230.586 125.035C232.765 127.399 236.196 128.21 240.878 127.445C241.504 127.353 242.084 127.028 242.478 126.541C246.094 122.322 250.962 117.987 257.082 113.56C257.731 113.096 257.684 112.702 256.943 112.401C253.999 111.195 251.681 108.947 249.965 105.655C247.577 101.019 251.82 96.5682 256.317 97.6577C259.771 98.4922 261.672 101.112 261.37 104.705C261.185 106.791 261.092 108.159 261.046 108.831C260.999 109.41 261.463 109.92 262.042 109.944C262.297 109.944 262.552 109.874 262.738 109.735C266.864 106.698 272.126 103.638 278.547 100.532C279.15 100.231 279.266 99.8135 278.941 99.234C278.2 97.9127 277.156 97.7968 276.392 96.0582C271.083 84.0736 288.075 80.6428 287.727 91.5147C287.681 93.091 285.873 95.6641 282.349 99.2572C281.885 99.7208 281.932 100.115 282.488 100.463C286.058 102.572 287.889 104.519 288.028 106.281C288.237 109.271 287.078 111.195 284.621 112.053C282.627 112.749 280.448 111.682 279.776 109.712C279.637 109.318 279.567 108.877 279.567 108.46V103.731C279.567 102.85 279.15 102.572 278.339 102.873C273.981 104.496 269.182 107.324 263.966 111.358C263.294 111.845 263.317 112.331 264.013 112.772C269.043 116.087 270.967 121.256 263.897 124.246C262.831 124.687 261.602 124.478 260.768 123.69C258.519 121.65 257.684 119.309 258.287 116.713C258.589 115.391 258.171 115.113 257.059 115.878C252.237 119.216 247.832 123.18 243.822 127.793C243.451 128.234 243.498 128.883 243.938 129.253C244.1 129.393 244.332 129.485 244.564 129.508C246.581 129.624 247.299 131.757 246.766 135.837C246.558 137.367 247.137 137.761 248.482 137.019C262.066 129.508 276.878 127.283 292.92 130.343C302.841 132.244 311.372 137.645 318.535 146.523L318.396 146.616ZM147.482 133.31C151.214 129.207 153.416 125.776 154.065 123.018C158.585 104.172 151.956 91.7465 134.176 85.7426C128.265 83.7259 122.84 84.0041 117.903 86.5308C115.724 87.6435 113.8 89.5212 112.131 92.187C109.72 96.0582 108.352 98.4459 108.004 99.3731C104.272 109.179 100.865 119.031 93.1917 125.359C88.6482 129.091 89.2741 130.482 95.0694 129.485C97.1093 129.138 99.6128 128.187 102.626 126.634C104.55 125.637 106.567 123.875 108.63 121.349C113.823 115.09 117.184 110.987 118.714 109.063C125.135 100.949 131.95 99.0949 139.183 103.476C146.67 108.02 148.27 119.703 146.346 127.098C145.14 131.803 144.283 135.095 143.819 136.996C143.773 137.274 143.819 137.506 144.028 137.691C144.236 137.9 144.468 137.993 144.677 138.039C145.233 138.085 145.581 137.854 145.766 137.32L146.508 135.002C146.717 134.376 147.018 133.82 147.459 133.333L147.482 133.31ZM277.435 89.892C276.809 90.5643 276.577 91.5379 276.832 92.4188L277.782 95.7105C278.2 97.1245 279.66 97.9359 281.051 97.5186C281.7 97.3332 282.233 96.9159 282.581 96.3364L285.455 91.5843C286.22 90.3325 285.826 88.7098 284.574 87.9448C284.482 87.8985 284.389 87.8289 284.296 87.7826L282.558 86.9712C281.515 86.4844 280.263 86.7394 279.475 87.5971L277.388 89.8689L277.435 89.892ZM22.0259 103.337C21.1218 100.3 17.1578 98.7936 13.1939 99.9758C9.22993 101.158 6.74955 104.589 7.65362 107.626C8.55768 110.662 12.5216 112.169 16.4856 110.987C20.4496 109.805 22.9299 106.374 22.0259 103.337ZM253.581 99.6049C251.379 100.463 250.521 102.062 251.031 104.403C251.704 107.486 255.135 108.228 256.131 110.616C256.363 111.172 256.757 111.404 257.36 111.335C257.661 111.311 257.916 111.242 258.125 111.172C258.357 111.08 258.565 110.964 258.797 110.778C259.284 110.43 259.423 109.967 259.214 109.41C258.31 107.023 260.327 104.125 258.681 101.413C257.453 99.3499 255.737 98.7472 253.558 99.6281L253.581 99.6049ZM99.4506 132.151C107.633 133.751 114.426 131.711 119.85 126.054C122.608 123.18 126.92 121.024 130.073 119.657C131.58 119.031 133.318 119.286 134.547 120.352C139.762 124.849 140.736 130.552 137.514 137.506C137.398 137.738 137.375 138.039 137.467 138.294C137.722 138.99 138.279 139.291 139.16 139.198C139.531 139.152 139.902 138.966 140.133 138.688C141.153 137.506 141.895 136.463 142.312 135.536C146.392 126.564 146.485 117.987 142.614 109.781C139.716 103.662 135.52 101.297 130.05 102.734C119.039 105.609 113.962 118.544 108.793 124.478C106.382 127.283 102.232 129.485 96.3443 131.085C95.9734 131.177 95.7648 131.548 95.8807 131.919C95.9271 132.082 96.0198 132.197 96.1357 132.29C96.6688 132.638 97.2715 132.661 97.9902 132.29C98.4538 132.082 98.9638 132.035 99.4506 132.128V132.151ZM284.273 110.778C285.548 110.407 286.081 108.275 285.432 106.003C284.783 103.731 283.23 102.178 281.955 102.526C280.68 102.897 280.147 105.029 280.796 107.301C281.445 109.573 282.998 111.126 284.273 110.778ZM264.963 121.627C265.751 121.163 266.238 120.514 266.493 119.68C266.702 118.984 266.563 118.335 266.099 117.779C263.341 114.58 261.417 113.328 260.304 114C259.191 114.696 259.423 116.991 261.022 120.885C261.301 121.581 261.811 121.998 262.552 122.114C263.41 122.276 264.221 122.114 264.986 121.627H264.963ZM115.121 133.241C115.167 133.171 115.214 133.148 115.283 133.171C120.545 134.307 125.831 136.347 131.116 139.244C133.225 140.404 135.868 139.639 137.027 137.552C137.352 136.95 137.537 136.301 137.56 135.605C137.676 131.502 138.209 128.048 136.262 125.405C135.057 123.806 133.898 122.461 132.762 121.418C131.881 120.607 130.606 120.445 129.54 121.024C123.93 124.061 118.853 128.094 114.31 133.102C113.846 133.612 113.266 133.82 112.594 133.751C111.505 133.635 110.763 133.751 110.392 134.121C109.72 134.747 109.836 135.165 110.763 135.35C112.664 135.721 114.681 136.903 116.813 138.874C121.264 142.977 117.578 151.577 126.248 152.017C131.95 152.319 135.288 149.838 136.239 144.553C136.517 142.953 135.451 141.424 133.851 141.145C133.759 141.145 133.666 141.122 133.573 141.099C131.695 140.937 130.003 140.519 128.543 139.847C122.122 136.926 117.648 135.095 115.075 134.353C114.727 134.261 114.634 134.052 114.82 133.751L115.121 133.217V133.241ZM241.643 130.32L238.977 132.916C238.606 133.264 238.606 133.866 238.977 134.237L239.116 134.376C240.948 136.254 243.289 136.95 244.332 135.93L244.494 135.744C245.538 134.724 244.912 132.36 243.104 130.482L242.964 130.343C242.617 129.972 242.014 129.972 241.643 130.343V130.32ZM276.925 189.316C276.044 188.064 275.093 186.487 274.097 184.563C273.772 183.938 273.308 183.428 272.683 183.057C266.146 179.209 260.142 180.484 254.694 186.835C250.197 192.074 249.71 197.939 253.28 204.43C256.664 210.596 261.787 214.235 268.626 215.325C288.84 218.547 303.884 211.755 313.736 194.972C318.558 186.742 320.714 177.516 320.181 167.317C318.419 133.936 283.717 126.912 257.916 136.926C237.633 144.785 221.499 158.23 209.491 177.261C209.143 177.818 209.213 178.328 209.676 178.791C220.108 188.968 232.255 198.426 246.071 207.142C249.594 209.367 252.608 210.735 255.088 211.222C255.853 211.384 255.969 211.152 255.459 210.573C245.862 199.283 247.253 189.431 259.678 180.97C267.281 175.801 276.067 180.507 277.458 189.13C277.574 189.941 277.411 189.988 276.948 189.316H276.925ZM119.154 149.908C118.134 146.987 117.37 142.42 115.631 140.195C113.498 137.506 109.071 136.393 106.869 135.443C100.841 132.823 99.9837 133.982 104.295 138.966C109.558 145.017 113.104 151.809 114.936 159.342C117.115 168.314 123.675 173.692 132.901 171.373C136.401 170.493 138.974 169.055 140.643 167.062C145.743 160.872 143.75 154.08 140.898 146.709C139.647 143.487 138.487 143.51 137.375 146.778C137.282 147.01 137.05 147.706 136.679 148.865C136.401 149.653 136.03 150.232 135.567 150.603C131.023 154.011 126.225 154.544 121.171 152.156C120.244 151.716 119.525 150.905 119.178 149.931L119.154 149.908ZM240.067 137.622C239.464 137.32 238.606 136.602 237.494 135.512C236.984 135.026 236.52 135.049 236.08 135.605C233.252 139.129 230.539 142.884 227.966 146.848C227.619 147.381 227.132 147.891 226.506 148.401C225.37 149.282 224.814 149.746 224.791 149.769C224.512 150.186 224.512 150.557 224.791 150.835C224.93 150.997 225.115 151.113 225.347 151.16C225.625 151.206 225.926 151.113 226.297 150.881C231.351 147.682 236.798 142.49 244.402 139.268C244.402 139.268 244.425 139.268 244.448 139.221C244.471 139.129 244.518 138.966 244.564 138.688C244.61 138.317 244.471 138.155 244.1 138.201C242.454 138.364 241.11 138.155 240.09 137.622H240.067ZM84.012 148.656L81.6012 154.034C81.2534 154.799 81.6012 155.68 82.343 156.028L82.737 156.19C85.3565 157.372 88.2541 156.584 89.2277 154.428L89.3668 154.08C90.3404 151.948 88.9959 149.236 86.3765 148.076L86.0056 147.914C85.2406 147.566 84.3597 147.914 84.012 148.656Z" fill="#D2AB68"/>
<path d="M33.431 141.632C32.1328 142.629 30.3015 142.374 29.3048 141.076L27.8443 139.152C25.2481 135.744 25.8508 130.899 29.1888 128.373L29.6756 128.002C33.0137 125.452 37.8354 126.17 40.4317 129.578L41.8689 131.502C42.8425 132.8 42.5875 134.631 41.3125 135.605L33.4078 141.609L33.431 141.632ZM28.4934 131.873C27.6589 132.847 27.4039 134.214 27.8212 135.443L28.702 138.016C29.3511 139.917 31.4374 140.937 33.3383 140.288C33.8482 140.102 34.3119 139.824 34.7059 139.453L38.7394 135.536C40.1767 134.145 40.223 131.827 38.8322 130.389C38.7858 130.343 38.7394 130.297 38.6931 130.25L36.5836 128.303C35.1 126.935 32.8051 127.051 31.4374 128.535C31.4142 128.558 31.391 128.604 31.3447 128.628L28.5166 131.942L28.4934 131.873Z" fill="#D2AB68"/>
<path d="M165.632 256.796C158.724 255.544 151.932 254.385 145.233 253.365C141.849 252.832 139.09 253.017 136.957 253.921C133.388 255.405 130.003 256.17 126.294 258.001C118.25 262.035 112.362 264.77 108.63 266.184C104.875 267.621 101.259 268.525 97.7815 268.942C95.2316 269.244 91.7081 268.386 87.2573 266.323C82.1111 263.959 76.9649 261.71 71.8187 259.554C77.6603 260.11 83.7106 262.29 89.9231 266.068C90.3636 266.346 92.079 266.763 95.0229 267.32C99.4042 268.154 108.885 265.002 112.849 262.869C120.916 258.511 129.215 254.779 137.769 251.696C138.001 251.626 138.14 251.371 138.07 251.139C138.024 251.024 137.954 250.931 137.838 250.861C129.47 246.179 120.476 242.98 110.879 241.287C108.7 240.893 104.319 241.195 97.7351 242.215C87.7441 243.768 78.1471 250.143 70.3351 255.521C69.6165 256.007 69.4079 256.749 69.7324 257.723C69.941 258.372 69.7324 258.743 69.037 258.836C68.0402 258.975 67.0898 258.951 66.2089 258.766C65.1889 258.534 65.073 258.071 65.8612 257.398C82.992 242.377 103.183 235.052 125.367 242.794C127.337 243.49 130.907 245.089 136.077 247.593C139.646 249.331 143.309 250.56 147.111 251.279C152.373 252.275 157.171 253.226 161.506 254.107C163.987 254.617 165.331 255.497 165.586 256.749L165.632 256.796Z" fill="#D2AB68"/>
<path d="M176.064 326.524C176.922 325.481 178.452 323.302 180.677 320.01C181.094 319.384 181.071 318.782 180.631 318.179C178.985 315.954 176.968 315.235 174.604 316.046C173.514 316.417 172.842 317.507 173.004 318.643L174.094 325.806C174.094 325.898 174.001 325.968 173.908 325.968C173.862 325.968 173.815 325.968 173.792 325.922C171.52 322.607 170.709 319.732 171.405 317.229C171.799 315.791 173.004 314.725 174.488 314.54C179.193 313.937 181.929 315.606 182.671 319.547C182.786 320.103 182.624 320.659 182.276 321.1L177.965 326.2C177.316 326.988 177.2 327.822 177.594 328.773C179.472 333.177 181.697 336.724 178.452 341.337C177.107 343.215 174.58 343.794 172.564 342.681C170.222 341.383 169.179 339.39 169.411 336.678C169.527 335.171 171.103 331.879 174.14 326.826C174.372 326.408 174.719 326.292 175.16 326.501C175.345 326.594 175.531 326.663 175.763 326.663C175.902 326.663 176.018 326.617 176.11 326.524H176.064ZM179.054 338.602C179.448 338.161 179.587 337.558 179.402 337.002L177.014 330.233C176.736 329.399 175.809 328.958 174.998 329.26C174.65 329.375 174.349 329.63 174.163 329.932L170.361 336.121C170.037 336.654 170.037 337.327 170.361 337.837L173.166 342.056C173.653 342.797 174.627 342.983 175.369 342.496C175.461 342.426 175.554 342.357 175.647 342.264L179.054 338.625V338.602Z" fill="#D2AB68"/>
<path d="M153.393 335.611C156.198 336.724 157.612 339.135 157.681 342.867C157.774 347.457 154.274 348.453 150.519 348.407C148.502 348.384 147.296 347.387 146.925 345.394C146.3 342.125 146.415 339.32 147.273 337.002C147.992 335.055 147.435 334.545 145.581 335.449C139.693 338.393 133.759 341.731 127.801 345.509C127.801 345.509 127.778 345.509 127.755 345.509L127.43 344.93C127.314 344.698 127.337 344.513 127.546 344.35C133.573 340.178 139.971 336.515 146.763 333.363C147.435 333.061 147.829 332.528 147.945 331.786C148.108 330.789 148.455 329.445 148.989 327.753C150.727 322.097 146.763 318.179 140.829 318.596C139.6 318.689 138.673 319.755 138.766 320.984C138.766 321.1 138.789 321.216 138.812 321.332C139.577 324.6 141.455 327.567 144.468 330.256C144.7 330.465 144.746 330.674 144.584 330.929L144.213 331.578C144.121 331.74 143.912 331.809 143.75 331.717C143.75 331.717 143.703 331.717 143.68 331.67C139.322 328.263 137.328 324.415 137.746 320.08C137.954 317.901 139.902 316.301 142.081 316.51C142.336 316.533 142.591 316.58 142.846 316.649C150.518 318.921 152.744 323.742 149.522 331.068C149.22 331.74 149.383 332.273 150.055 332.644C150.217 332.737 150.379 332.783 150.588 332.783C150.843 332.806 151.098 332.737 151.376 332.528C151.724 332.273 152.28 331.879 152.999 331.346C153.602 330.905 154.181 330.627 154.737 330.488C159.42 329.236 164.775 328.1 170.756 327.081C170.964 327.057 171.057 327.15 171.034 327.359L170.918 328.054C170.871 328.355 170.709 328.541 170.408 328.564C163.616 329.375 157.936 330.766 153.37 332.783C151.214 333.733 151.214 334.661 153.416 335.542L153.393 335.611ZM156.128 339.992C156.128 339.482 155.92 339.019 155.526 338.694L151.052 335.101C150.356 334.545 149.359 334.638 148.78 335.333C148.548 335.611 148.432 335.936 148.409 336.283L148.038 344.42C147.992 345.301 148.664 346.066 149.568 346.112C149.614 346.112 149.638 346.112 149.684 346.112H154.39C155.271 346.112 155.966 345.394 155.989 344.513L156.105 339.969L156.128 339.992Z" fill="#D2AB68"/>
<path d="M197.553 331.137C191.804 329.213 185.893 328.309 179.819 328.402C179.611 328.402 179.518 328.309 179.472 328.124L179.379 327.567C179.333 327.173 179.495 326.988 179.889 326.988C184.548 327.081 190.668 327.846 198.248 329.306C202.653 330.141 205.573 328.564 206.988 324.554C208.448 320.428 207.289 319.338 203.464 321.332C202.537 321.819 202.143 323.464 202.282 326.269C202.282 326.524 202.166 326.663 201.911 326.71L201.076 326.826C200.729 326.872 200.543 326.733 200.52 326.362C200.474 322.815 201.331 320.474 203.093 319.338C205.156 318.017 207.892 318.666 209.213 320.775C209.769 321.679 210.001 322.769 209.862 323.812C209.561 326.107 207.59 328.216 203.997 330.187C203.325 330.535 203.302 330.975 203.881 331.462C204.878 332.273 206.779 333.247 209.584 334.383C211.322 335.078 213.131 336.144 215.031 337.558C221.777 342.635 227.711 346.97 232.834 350.563C234.295 351.583 236.01 353.322 238.027 355.732C239.626 357.68 241.527 359.372 243.729 360.786C244.008 360.971 244.031 361.18 243.822 361.412L243.335 362.014C243.243 362.13 243.15 362.154 243.011 362.084L235.917 357.981C235.245 357.61 234.851 357.031 234.782 356.242C234.712 355.616 234.666 355.246 234.666 355.13C234.619 354.689 234.388 354.318 234.017 354.063C231.049 352.047 227.897 349.868 224.559 347.549C224.536 347.526 221.568 345.139 215.634 340.363C211.206 336.793 206.315 334.313 200.984 332.876C200.195 332.667 199.546 332.876 199.013 333.479L194.794 338.509C194.354 339.042 194.423 339.83 194.933 340.271C195.142 340.433 195.397 340.549 195.652 340.572C199.662 340.781 201.749 338.88 201.934 334.846C201.934 334.29 202.212 334.058 202.769 334.151L203.371 334.267C203.487 334.267 203.557 334.336 203.557 334.452C203.904 339.135 201.656 341.893 196.834 342.728C194.957 343.052 193.172 341.801 192.847 339.923C192.708 339.065 192.893 338.184 193.357 337.443C194.145 336.237 195.606 334.522 197.808 332.273C198.364 331.717 198.271 331.323 197.53 331.068L197.553 331.137Z" fill="#D2AB68"/>
<path d="M119.525 340.827C119.456 340.781 119.363 340.734 119.224 340.711C116.79 339.923 115.028 340.039 113.916 341.036C112.803 342.009 112.872 342.913 114.101 343.748C116.442 345.324 119.433 346.251 123.072 346.553C123.211 346.553 123.327 346.669 123.304 346.831C123.304 346.831 123.304 346.854 123.304 346.877C123.234 347.132 123.142 347.271 123.003 347.294C120.453 347.851 117.578 347.225 114.356 345.44C112.896 344.629 112.177 343.817 112.154 342.983C112.107 340.711 113.823 338.833 115.955 338.787C115.979 338.787 116.002 338.787 116.048 338.787C119.154 338.787 122.122 340.363 124.95 343.493C125.066 343.609 125.066 343.817 124.95 343.933C124.834 344.049 124.672 344.049 124.556 343.979L119.525 340.85V340.827Z" fill="#D2AB68"/>
<path d="M131.626 352.835C132.437 352.394 132.97 351.815 133.225 351.119C133.48 350.447 133.295 349.682 132.762 349.195C131.881 348.407 131.348 347.874 131.162 347.596C130.56 346.692 130.722 346.483 131.603 346.947C134.523 348.454 135.265 350.262 133.828 352.394C132.97 353.669 131.394 354.249 129.91 353.878C126.364 352.951 125.135 350.563 126.248 346.645C126.317 346.414 126.456 346.321 126.688 346.344L127.221 346.437C127.685 346.506 127.847 346.761 127.731 347.225C127.013 349.682 127.523 351.467 129.285 352.603C130.142 353.159 130.907 353.229 131.626 352.858V352.835Z" fill="#D2AB68"/>
</g>
<defs>
<clipPath id="clip0_24_1334">
<rect width="411" height="411" fill="white"/>
</clipPath>
</defs>
</svg>
