<svg width="1436" height="702" viewBox="0 0 1436 702" fill="none" xmlns="http://www.w3.org/2000/svg">
<g clip-path="url(#clip0_32_812)">
<path d="M1242.84 372.315C1231.86 364.99 1245.86 348.369 1252.3 358.522C1255.78 364.039 1254.81 368.235 1249.31 371.133C1248.06 371.805 1246.81 372.64 1245.56 373.706C1245 374.17 1244.63 374.819 1244.51 375.537C1242.94 385.389 1243.38 393.665 1245.79 400.387C1246.95 403.586 1249.61 405.603 1253.79 406.461C1253.99 406.507 1257.96 407.087 1265.7 408.199C1267.74 408.501 1269.18 409.613 1270.06 411.561C1270.17 411.816 1270.13 412.047 1269.94 412.279L1269.46 412.882C1269.15 413.23 1268.92 413.206 1268.74 412.766L1267.63 410.309C1267.39 409.752 1266.93 409.451 1266.26 409.358C1261.83 408.779 1258.93 408.477 1257.54 408.477C1248.71 408.385 1243.56 404.027 1242.06 395.403C1240.78 388.009 1241.2 380.822 1243.38 373.822C1243.56 373.196 1243.38 372.686 1242.84 372.338V372.315ZM1240.92 361.976C1239.99 363.205 1239.81 364.804 1240.41 366.218L1241.55 368.861C1242.47 371.017 1244.98 372.014 1247.13 371.086C1247.46 370.947 1247.78 370.762 1248.06 370.53L1251.35 367.957C1252.95 366.728 1253.44 364.526 1252.56 362.718L1250.77 359.102C1249.73 356.992 1247.18 356.135 1245.07 357.178C1244.49 357.479 1243.98 357.896 1243.59 358.406L1240.92 361.953V361.976Z" fill="#D2AB68"/>
<path d="M1497.4 437.616C1502.94 447.769 1504.56 458.896 1502.24 471.02C1498.32 491.535 1483.51 508.226 1462.6 510.683C1453.1 511.795 1444.17 510.799 1435.8 507.646C1417.49 500.784 1401.54 487.293 1387.01 473.431C1386.4 472.828 1385.92 472.921 1385.57 473.709C1378.85 488.29 1375.83 505.56 1376.55 525.542C1377.41 549.372 1382.81 572.275 1392.78 594.297C1393.98 596.986 1396.91 603.221 1401.54 613.004C1403.81 617.779 1404.51 617.547 1403.63 612.355C1402.75 607.093 1402.19 603.384 1401.91 601.251C1399.83 584.143 1405 569.493 1417.35 557.323C1428.62 546.219 1441.71 541.606 1456.67 543.484C1469.93 545.176 1479.99 554.657 1484.58 567.546C1488.7 579.09 1487.82 590.31 1481.96 601.228C1476.28 611.822 1467.1 617.872 1454.39 619.356C1449.11 619.981 1444.64 619.077 1441 616.643C1426.62 607.07 1423.91 582.104 1441.09 573.596C1444.8 571.765 1448.55 571.533 1452.35 572.901C1458.13 574.964 1463.3 578.626 1463.99 585.187C1464.62 591.538 1461.7 596.244 1455.21 599.327C1453.7 600.022 1452.49 600.254 1451.57 599.953C1446.74 598.469 1444.54 592.465 1449.94 589.8C1451.54 589.012 1451.68 589.197 1450.34 590.402C1447.97 592.512 1448.16 595.039 1450.89 597.983C1451.45 598.585 1452.33 598.771 1453.07 598.423C1456.5 596.8 1461.19 593.439 1462.39 589.336C1463.83 584.561 1462.35 580.689 1457.96 577.699C1451.01 572.97 1444.75 572.414 1439.21 576.053C1434.85 578.905 1432.33 583.564 1431.58 590.031C1430.36 600.787 1434.27 611.149 1444.64 616.597C1446.93 617.802 1449.55 618.266 1452.52 617.988C1465.03 616.829 1474.31 611.196 1480.33 601.066C1484.14 594.645 1486.2 585.395 1485.39 577.977C1483.49 560.754 1474.35 549.928 1457.96 545.501C1448.11 542.858 1434.48 545.315 1425.81 552.733C1422.75 555.329 1421.11 556.743 1420.83 556.975C1408.98 566.827 1403 579.461 1402.89 594.923C1402.82 602.526 1405.41 611.914 1406.9 619.703C1407.24 621.627 1409.66 625.8 1414.15 632.221C1423.56 645.782 1434.88 658.74 1448.04 671.096C1451.43 674.248 1454.72 676.752 1457.96 678.583C1458.45 678.861 1458.96 678.954 1459.52 678.908C1464.08 678.421 1468.28 679.649 1472.11 682.547C1472.31 682.593 1472.34 682.779 1472.2 683.15C1472.04 683.497 1471.78 683.59 1471.43 683.451C1467.82 681.898 1465.31 680.924 1463.95 680.507C1458.22 678.792 1457.69 679.812 1462.35 683.613C1470.02 689.919 1478.39 695.691 1487.43 700.953C1487.54 701.046 1487.66 701.208 1487.75 701.44C1487.8 701.556 1487.85 701.648 1487.91 701.718L1485.57 702.436H1484.6C1473.26 697.035 1462.65 689.548 1452.73 679.997C1451.5 678.815 1449.55 678.815 1448.32 679.997C1446.21 682.06 1443.04 682.987 1440.6 685.468C1436.8 689.339 1429.22 697.035 1423.87 699.284C1416.61 702.297 1410.86 699.701 1406.64 691.449C1406.39 690.985 1406.57 690.405 1407.04 690.15C1407.15 690.081 1407.29 690.058 1407.45 690.035C1410.98 689.919 1414.43 688.806 1417.82 686.743C1423.59 683.266 1428.69 680.438 1433.18 678.305C1435.71 677.099 1439.58 676.404 1444.82 676.219C1445.17 676.219 1445.35 676.358 1445.4 676.682L1445.52 677.308C1445.56 677.609 1445.42 677.772 1445.15 677.795C1439.21 678.073 1434.13 679.441 1429.89 681.898C1422.78 686.047 1416.75 689.061 1411.79 690.962C1408.33 692.283 1408.26 693.767 1411.58 695.413C1413.25 696.247 1414.43 696.85 1415.15 697.197C1418.19 698.704 1421.18 698.635 1424.14 697.012C1429.87 693.836 1435.43 689.038 1440.81 682.64C1441 682.408 1441.23 682.223 1441.51 682.107C1444.2 680.994 1446.33 679.603 1447.86 677.911C1448.37 677.378 1448.37 676.845 1447.86 676.311C1436.87 665.161 1428.94 657.419 1424.05 653.061C1424 653.014 1423.93 652.713 1423.87 652.157C1423.77 651.484 1423.54 650.882 1423.12 650.349C1412.16 636.046 1404.39 624.942 1399.85 617.037C1395.17 608.854 1389.51 596.916 1382.88 581.223C1381.93 578.951 1380.31 576.355 1378.06 573.457C1376.55 571.533 1374.74 568.96 1372.57 565.761C1367.19 557.787 1358.7 551.644 1347.11 547.378C1340.18 538.245 1336.01 532.357 1334.53 529.714C1330.61 522.644 1330.84 515.157 1335.17 507.229C1339.25 499.811 1346.07 495.036 1355.64 492.949C1356.15 492.833 1356.41 493.042 1356.41 493.575V494.224C1356.41 495.128 1355.69 495.893 1354.79 495.916C1347.65 496.125 1341.83 499.95 1337.28 507.391C1332.23 515.759 1332.53 523.989 1337.93 532.009C1339.72 534.675 1341.73 537.387 1343.98 540.169C1346.16 542.858 1346.72 542.51 1345.61 539.126C1342.96 530.92 1350.68 524.939 1356.96 520.535C1359.03 519.097 1359.58 516.293 1358.24 514.16C1357.5 513.001 1355.85 510.474 1353.28 506.603C1352.05 504.748 1352.07 502.963 1351.59 501.039C1351.38 500.274 1351.73 499.463 1352.42 499.069L1353.12 498.675C1353.39 498.49 1353.79 498.582 1353.95 498.884C1354.07 499.069 1354.07 499.301 1353.95 499.486C1353.09 501.248 1352.98 502.546 1353.58 503.381C1357.52 508.921 1362.64 514.438 1360.09 520.071C1358.77 522.946 1355.34 524.197 1352.49 526.029C1351.68 526.562 1350.73 527.535 1349.64 528.973C1346.56 533.029 1346.12 537.573 1348.3 542.58C1349.57 545.524 1351.86 547.772 1355.11 549.349C1365.01 554.124 1374.1 563.651 1378.69 572.646C1378.87 572.993 1379.29 573.156 1379.66 572.97C1379.71 572.97 1379.73 572.924 1379.77 572.901C1380.05 572.692 1380.22 572.53 1380.28 572.391C1380.4 572.136 1380.45 571.95 1380.4 571.858C1379.31 568.38 1377.74 561.82 1375.65 552.2C1369.39 523.061 1371.73 495.847 1382.72 470.556C1382.95 470.023 1382.86 469.536 1382.46 469.119C1378.57 464.993 1374.19 460.936 1369.32 456.949C1367.6 455.558 1365.91 454.886 1364.22 454.932C1363.5 454.955 1362.81 454.77 1362.18 454.399C1356.71 451.084 1351.52 451.965 1346.6 457.065C1344.93 458.804 1344.68 460.728 1345.81 462.837C1346.14 463.44 1346.81 464.437 1347.83 465.851C1350.4 469.42 1355.11 468.47 1357.98 465.851C1360.07 463.95 1359.72 461.748 1356.99 459.244C1355.57 457.946 1353.37 458.062 1352.1 459.453C1351.93 459.638 1351.77 459.847 1351.66 460.055L1351.05 461.075C1350.8 461.516 1350.24 461.701 1349.76 461.469L1349.06 461.122C1348.53 460.867 1348.43 460.519 1348.78 460.032C1351.22 456.694 1354.02 455.952 1357.2 457.807C1362.97 461.191 1360.88 468.03 1354.81 469.258C1350.27 470.162 1346.79 468.354 1344.35 463.834C1343.08 461.469 1342.82 459.684 1343.54 458.433C1348.41 450.041 1355.34 448.395 1364.34 453.518C1364.61 453.681 1364.87 453.657 1365.08 453.426C1365.1 453.379 1365.15 453.31 1365.19 453.194C1365.26 453.055 1365.26 452.939 1365.19 452.869C1355.5 441.534 1343.52 434.788 1329.26 432.586C1327.01 432.238 1325.02 432.771 1323.31 434.185C1323 434.44 1322.75 434.394 1322.54 434.069L1322.17 433.42C1322.01 433.142 1321.8 433.073 1321.52 433.188C1320.96 433.443 1320.76 433.884 1320.94 434.533C1322.82 441.047 1323.79 445.637 1323.86 448.279C1324.05 456.161 1320.29 461.353 1312.62 463.648C1305.5 465.781 1299.96 463.95 1296.02 458.131C1295.33 457.111 1293.96 453.379 1291.92 446.958C1290.27 441.835 1287.58 437.245 1283.85 433.119C1282 431.079 1280.75 429.248 1280.05 427.579C1279.59 426.489 1278.78 425.84 1277.59 425.608C1276.9 425.469 1276.13 425.33 1275.32 425.214C1274.14 425.006 1273.91 425.4 1274.67 426.35C1277.57 430.059 1279.38 433.235 1280.1 435.831C1283.62 448.673 1286.31 457.39 1288.12 462.003C1289.44 465.387 1291.76 468.285 1295.12 470.719C1297.78 472.666 1301.08 473.57 1305.02 473.454C1312.2 473.199 1318.74 470.44 1324.58 465.178C1327.15 462.883 1329.1 459.569 1330.42 455.234C1331.44 451.919 1331.21 448.813 1329.77 445.915C1328.01 442.461 1326.13 439.702 1324.07 437.662C1323.89 437.477 1323.84 437.268 1323.93 437.037L1324.16 436.295C1324.21 436.179 1324.33 436.109 1324.44 436.132C1324.46 436.132 1324.49 436.156 1324.51 436.179C1331.91 443.11 1334.13 450.366 1331.19 457.969C1326.76 469.444 1314.8 475.123 1302.81 474.961C1290.78 474.798 1285.82 462.513 1282.79 451.641C1279.77 440.815 1276.71 432.354 1273.63 426.281C1273.33 425.678 1272.89 425.214 1272.28 424.913C1271.01 424.241 1269.97 423.36 1269.2 422.27C1268.55 421.32 1267.25 421.088 1266.3 421.737C1266.07 421.899 1265.86 422.108 1265.7 422.363C1263.29 426.281 1262.71 430.87 1264.01 436.156C1264.17 436.851 1264.63 437.245 1265.35 437.268C1267.25 437.361 1268.83 438.821 1270.08 441.65C1272.59 447.422 1263.82 452.406 1260.32 447.908C1258.91 446.1 1258.84 444.199 1260.11 442.229C1262.59 438.404 1263.15 434.417 1261.78 430.314C1261.55 429.619 1261.53 428.923 1261.78 428.228L1263.48 422.803C1263.73 421.992 1263.45 421.691 1262.62 421.853C1249.8 424.403 1236.89 425.84 1223.86 426.211C1223.42 426.211 1223.14 426.002 1223.07 425.562L1222.98 424.936C1222.93 424.658 1223.12 424.38 1223.42 424.333C1223.47 424.333 1223.49 424.333 1223.53 424.333C1229.96 424.519 1236.28 424.264 1242.57 423.568C1243.01 423.522 1243.31 423.383 1243.42 423.174C1243.54 423.012 1243.59 422.803 1243.54 422.548C1243.49 422.224 1243.31 422.015 1242.98 421.923C1238.37 420.671 1235.52 419.512 1234.41 418.422C1225.85 410.216 1217.35 400.596 1205.64 396.957C1204.29 396.539 1202.86 397.165 1202.25 398.44C1200.86 401.384 1198.68 402.937 1195.74 403.123C1190.76 403.447 1186.72 403.494 1185.1 398.231C1184.89 397.536 1184.92 396.817 1185.22 396.145C1187.28 391.069 1191.08 388.565 1196.62 388.658C1199.24 388.704 1201.33 390.837 1202.88 395.079C1203.11 395.682 1203.53 395.937 1204.18 395.844L1205.48 395.658C1206.24 395.542 1206.98 395.612 1207.7 395.89C1213.4 398.116 1217.9 400.781 1221.22 403.888C1226.85 409.173 1231.35 413.346 1234.71 416.359C1236.68 418.144 1239.9 419.187 1242.15 420.416C1243.35 421.065 1244.58 421.366 1245.86 421.32C1255.27 420.949 1261.53 420.022 1264.63 418.538C1272.63 414.736 1278.24 408.663 1281.46 400.387C1283.62 394.87 1286.26 389.608 1288.7 384.23C1291.18 378.759 1295.07 375.445 1300.4 374.262C1308.24 372.501 1316.17 374.494 1324.14 380.22C1332.14 385.946 1336.19 393.549 1336.31 402.984C1336.43 412.604 1333.11 420.648 1326.37 427.092C1325.97 427.463 1325.97 428.089 1326.37 428.46C1326.53 428.645 1326.78 428.738 1327.01 428.761C1338.93 429.317 1349.59 433.629 1359.03 441.65C1367.51 448.859 1375.97 456.903 1384.46 465.735C1384.87 466.175 1385.27 466.129 1385.59 465.619C1390.35 458.479 1394.98 452.313 1399.48 447.167C1400.68 445.776 1401.94 443.527 1403.19 440.398C1404.05 438.312 1405.46 436.109 1407.48 433.791C1408.98 432.029 1412.04 428.065 1416.68 421.853C1417.19 421.158 1417 420.763 1416.15 420.694C1412.58 420.393 1409.54 419.025 1407.01 416.591C1406.48 416.058 1406.39 415.478 1406.76 414.852L1408.98 411.004C1409.28 410.517 1409.79 410.216 1410.35 410.193C1413.94 410.147 1416.61 411.862 1418.35 415.362C1418.56 415.756 1418.58 416.127 1418.46 416.475C1418.35 416.776 1418.16 417.008 1417.86 417.124C1417.47 417.309 1417.12 417.194 1416.84 416.799L1414.36 413.23C1413.43 411.908 1412.3 411.653 1410.91 412.465L1410.05 412.951C1408.61 413.786 1408.45 414.806 1409.59 416.035C1411.76 418.399 1415.2 419.21 1419.88 418.445C1420.5 418.353 1421.08 418.028 1421.48 417.541C1425.09 413.322 1429.96 408.987 1436.08 404.56C1436.73 404.096 1436.68 403.702 1435.94 403.401C1433 402.195 1430.68 399.947 1428.97 396.655C1426.58 392.019 1430.82 387.568 1435.32 388.658C1438.77 389.492 1440.67 392.112 1440.37 395.705C1440.18 397.791 1440.09 399.159 1440.05 399.831C1440 400.41 1440.46 400.92 1441.04 400.944C1441.3 400.944 1441.55 400.874 1441.74 400.735C1445.86 397.698 1451.13 394.638 1457.55 391.532C1458.15 391.231 1458.27 390.814 1457.94 390.234C1457.2 388.913 1456.16 388.797 1455.39 387.058C1450.08 375.074 1467.07 371.643 1466.73 382.515C1466.68 384.091 1464.87 386.664 1461.35 390.257C1460.89 390.721 1460.93 391.115 1461.49 391.463C1465.06 393.572 1466.89 395.519 1467.03 397.281C1467.24 400.271 1466.08 402.195 1463.62 403.053C1461.63 403.749 1459.45 402.682 1458.78 400.712C1458.64 400.318 1458.57 399.877 1458.57 399.46V394.731C1458.57 393.85 1458.15 393.572 1457.34 393.873C1452.98 395.496 1448.18 398.324 1442.97 402.358C1442.29 402.845 1442.32 403.331 1443.01 403.772C1448.04 407.087 1449.97 412.256 1442.9 415.246C1441.83 415.687 1440.6 415.478 1439.77 414.69C1437.52 412.65 1436.68 410.309 1437.29 407.713C1437.59 406.391 1437.17 406.113 1436.06 406.878C1431.24 410.216 1426.83 414.18 1422.82 418.793C1422.45 419.234 1422.5 419.883 1422.94 420.253C1423.1 420.393 1423.33 420.485 1423.56 420.508C1425.58 420.624 1426.3 422.757 1425.77 426.837C1425.56 428.367 1426.14 428.761 1427.48 428.019C1441.07 420.508 1455.88 418.283 1471.92 421.343C1481.84 423.244 1490.37 428.645 1497.53 437.523L1497.4 437.616ZM1326.48 424.31C1330.21 420.207 1332.42 416.776 1333.07 414.018C1337.59 395.172 1330.96 382.747 1313.18 376.743C1307.26 374.726 1301.84 375.004 1296.9 377.531C1294.72 378.643 1292.8 380.521 1291.13 383.187C1288.72 387.058 1287.35 389.446 1287 390.373C1283.27 400.179 1279.86 410.031 1272.19 416.359C1267.65 420.091 1268.27 421.482 1274.07 420.485C1276.11 420.138 1278.61 419.187 1281.63 417.634C1283.55 416.637 1285.57 414.875 1287.63 412.349C1292.82 406.09 1296.18 401.987 1297.71 400.063C1304.14 391.949 1310.95 390.095 1318.18 394.476C1325.67 399.02 1327.27 410.703 1325.35 418.098C1324.14 422.803 1323.28 426.095 1322.82 427.996C1322.77 428.274 1322.82 428.506 1323.03 428.691C1323.24 428.9 1323.47 428.993 1323.68 429.039C1324.23 429.085 1324.58 428.854 1324.77 428.32L1325.51 426.002C1325.72 425.376 1326.02 424.82 1326.46 424.333L1326.48 424.31ZM1456.43 380.892C1455.81 381.564 1455.58 382.538 1455.83 383.419L1456.78 386.71C1457.2 388.125 1458.66 388.936 1460.05 388.519C1460.7 388.333 1461.23 387.916 1461.58 387.336L1464.46 382.584C1465.22 381.332 1464.83 379.71 1463.57 378.945C1463.48 378.898 1463.39 378.829 1463.3 378.783L1461.56 377.971C1460.51 377.484 1459.26 377.739 1458.47 378.597L1456.39 380.869L1456.43 380.892ZM1201.03 394.337C1200.12 391.3 1196.16 389.794 1192.19 390.976C1188.23 392.158 1185.75 395.589 1186.65 398.626C1187.56 401.662 1191.52 403.169 1195.49 401.987C1199.45 400.805 1201.93 397.374 1201.03 394.337ZM1432.58 390.605C1430.38 391.463 1429.52 393.062 1430.03 395.403C1430.7 398.486 1434.13 399.228 1435.13 401.616C1435.36 402.172 1435.76 402.404 1436.36 402.335C1436.66 402.311 1436.92 402.242 1437.12 402.172C1437.36 402.08 1437.57 401.964 1437.8 401.778C1438.28 401.43 1438.42 400.967 1438.21 400.41C1437.31 398.023 1439.33 395.125 1437.68 392.413C1436.45 390.35 1434.74 389.747 1432.56 390.628L1432.58 390.605ZM1278.45 423.151C1286.63 424.751 1293.43 422.711 1298.85 417.054C1301.61 414.18 1305.92 412.024 1309.07 410.657C1310.58 410.031 1312.32 410.286 1313.55 411.352C1318.76 415.849 1319.74 421.552 1316.51 428.506C1316.4 428.738 1316.37 429.039 1316.47 429.294C1316.72 429.99 1317.28 430.291 1318.16 430.198C1318.53 430.152 1318.9 429.966 1319.13 429.688C1320.15 428.506 1320.9 427.463 1321.31 426.536C1325.39 417.564 1325.48 408.987 1321.61 400.781C1318.72 394.662 1314.52 392.297 1309.05 393.734C1298.04 396.609 1292.96 409.544 1287.79 415.478C1285.38 418.283 1281.23 420.485 1275.34 422.085C1274.97 422.177 1274.76 422.548 1274.88 422.919C1274.93 423.082 1275.02 423.197 1275.14 423.29C1275.67 423.638 1276.27 423.661 1276.99 423.29C1277.45 423.082 1277.96 423.035 1278.45 423.128V423.151ZM1463.27 401.778C1464.55 401.407 1465.08 399.275 1464.43 397.003C1463.78 394.731 1462.23 393.178 1460.95 393.526C1459.68 393.897 1459.15 396.029 1459.8 398.301C1460.45 400.573 1462 402.126 1463.27 401.778ZM1443.96 412.627C1444.75 412.163 1445.24 411.514 1445.49 410.68C1445.7 409.984 1445.56 409.335 1445.1 408.779C1442.34 405.58 1440.42 404.328 1439.3 405C1438.19 405.696 1438.42 407.991 1440.02 411.885C1440.3 412.581 1440.81 412.998 1441.55 413.114C1442.41 413.276 1443.22 413.114 1443.99 412.627H1443.96ZM1294.12 424.241C1294.17 424.171 1294.21 424.148 1294.28 424.171C1299.55 425.307 1304.83 427.347 1310.12 430.244C1312.23 431.404 1314.87 430.639 1316.03 428.552C1316.35 427.95 1316.54 427.301 1316.56 426.605C1316.68 422.502 1317.21 419.048 1315.26 416.405C1314.06 414.806 1312.9 413.461 1311.76 412.418C1310.88 411.607 1309.61 411.445 1308.54 412.024C1302.93 415.061 1297.85 419.094 1293.31 424.102C1292.85 424.612 1292.27 424.82 1291.59 424.751C1290.5 424.635 1289.76 424.751 1289.39 425.121C1288.72 425.747 1288.84 426.165 1289.76 426.35C1291.66 426.721 1293.68 427.903 1295.81 429.874C1300.26 433.977 1296.58 442.577 1305.25 443.017C1310.95 443.319 1314.29 440.838 1315.24 435.553C1315.52 433.953 1314.45 432.424 1312.85 432.145C1312.76 432.145 1312.67 432.122 1312.57 432.099C1310.7 431.937 1309 431.519 1307.54 430.847C1301.12 427.926 1296.65 426.095 1294.07 425.353C1293.73 425.261 1293.63 425.052 1293.82 424.751L1294.12 424.217V424.241ZM1420.64 421.32L1417.98 423.916C1417.61 424.264 1417.61 424.866 1417.98 425.237L1418.12 425.376C1419.95 427.254 1422.29 427.95 1423.33 426.93L1423.49 426.744C1424.54 425.724 1423.91 423.36 1422.1 421.482L1421.96 421.343C1421.62 420.972 1421.01 420.972 1420.64 421.343V421.32ZM1455.92 480.316C1455.04 479.064 1454.09 477.487 1453.1 475.563C1452.77 474.938 1452.31 474.428 1451.68 474.057C1445.15 470.209 1439.14 471.484 1433.69 477.835C1429.2 483.074 1428.71 488.939 1432.28 495.43C1435.66 501.596 1440.79 505.235 1447.63 506.325C1467.84 509.547 1482.88 502.755 1492.74 485.972C1497.56 477.742 1499.71 468.516 1499.18 458.317C1497.42 424.936 1462.72 417.912 1436.92 427.926C1416.63 435.785 1400.5 449.23 1388.49 468.261C1388.14 468.818 1388.21 469.328 1388.68 469.791C1399.11 479.968 1411.25 489.426 1425.07 498.142C1428.59 500.367 1431.61 501.735 1434.09 502.222C1434.85 502.384 1434.97 502.152 1434.46 501.573C1424.86 490.283 1426.25 480.431 1438.68 471.97C1446.28 466.801 1455.07 471.507 1456.46 480.13C1456.57 480.941 1456.41 480.988 1455.95 480.316H1455.92ZM1298.15 440.908C1297.13 437.987 1296.37 433.42 1294.63 431.195C1292.5 428.506 1288.07 427.393 1285.87 426.443C1279.84 423.823 1278.98 424.982 1283.3 429.966C1288.56 436.017 1292.1 442.809 1293.94 450.342C1296.11 459.314 1302.67 464.692 1311.9 462.373C1315.4 461.493 1317.97 460.055 1319.64 458.062C1324.74 451.872 1322.75 445.08 1319.9 437.709C1318.65 434.487 1317.49 434.51 1316.37 437.778C1316.28 438.01 1316.05 438.706 1315.68 439.865C1315.4 440.653 1315.03 441.232 1314.57 441.603C1310.02 445.011 1305.22 445.544 1300.17 443.156C1299.24 442.716 1298.53 441.905 1298.18 440.931L1298.15 440.908ZM1419.07 428.622C1418.46 428.32 1417.61 427.602 1416.49 426.512C1415.98 426.026 1415.52 426.049 1415.08 426.605C1412.25 430.129 1409.54 433.884 1406.97 437.848C1406.62 438.381 1406.13 438.891 1405.51 439.401C1404.37 440.282 1403.81 440.746 1403.79 440.769C1403.51 441.186 1403.51 441.557 1403.79 441.835C1403.93 441.997 1404.12 442.113 1404.35 442.16C1404.63 442.206 1404.93 442.113 1405.3 441.881C1410.35 438.682 1415.8 433.49 1423.4 430.268C1423.4 430.268 1423.42 430.268 1423.45 430.221C1423.47 430.129 1423.52 429.966 1423.56 429.688C1423.61 429.317 1423.47 429.155 1423.1 429.201C1421.45 429.364 1420.11 429.155 1419.09 428.622H1419.07ZM1263.01 439.656L1260.6 445.034C1260.25 445.799 1260.6 446.68 1261.34 447.028L1261.74 447.19C1264.36 448.372 1267.25 447.584 1268.23 445.428L1268.37 445.08C1269.34 442.948 1268 440.236 1265.38 439.076L1265.01 438.914C1264.24 438.566 1263.36 438.914 1263.01 439.656Z" fill="#D2AB68"/>
<path d="M1212.43 432.632C1211.13 433.629 1209.3 433.374 1208.3 432.076L1206.84 430.152C1204.25 426.744 1204.85 421.899 1208.19 419.373L1208.68 419.002C1212.01 416.452 1216.84 417.17 1219.43 420.578L1220.87 422.502C1221.84 423.8 1221.59 425.631 1220.31 426.605L1212.41 432.609L1212.43 432.632ZM1207.49 422.873C1206.66 423.847 1206.4 425.214 1206.82 426.443L1207.7 429.016C1208.35 430.917 1210.44 431.937 1212.34 431.288C1212.85 431.102 1213.31 430.824 1213.71 430.453L1217.74 426.536C1219.18 425.145 1219.22 422.827 1217.83 421.389C1217.79 421.343 1217.74 421.297 1217.69 421.25L1215.58 419.303C1214.1 417.935 1211.81 418.051 1210.44 419.535C1210.41 419.558 1210.39 419.604 1210.34 419.628L1207.52 422.942L1207.49 422.873Z" fill="#D2AB68"/>
<path d="M1444.77 480.571C1437.03 478.878 1434.83 490.168 1442.41 492.3C1447.3 493.668 1452.15 491.141 1453.91 486.065C1454.35 484.79 1454.65 483.978 1454.84 483.654C1456.53 480.594 1457.04 480.802 1456.37 484.233C1455.44 489.032 1449.6 495.151 1444.15 494.549C1440.56 494.178 1437.98 492.323 1436.45 488.985C1434.53 484.743 1435.9 481.567 1440.6 479.481C1444.01 477.974 1448.76 479.551 1449.13 483.607C1449.25 484.929 1448.81 485.879 1447.81 486.482C1447 486.969 1446.7 486.76 1446.93 485.856C1447.3 484.349 1447.32 483.26 1447.02 482.541C1446.56 481.475 1445.82 480.826 1444.77 480.594V480.571Z" fill="#D2AB68"/>
<path d="M1344.63 547.796C1337.72 546.544 1330.93 545.385 1324.23 544.365C1320.85 543.832 1318.09 544.017 1315.96 544.921C1312.39 546.405 1309 547.17 1305.29 549.001C1297.25 553.035 1291.36 555.77 1287.63 557.184C1283.87 558.621 1280.26 559.525 1276.78 559.942C1274.23 560.244 1270.71 559.386 1266.26 557.323C1261.11 554.959 1255.96 552.71 1250.82 550.554C1256.66 551.11 1262.71 553.29 1268.92 557.068C1269.36 557.346 1271.08 557.763 1274.02 558.32C1278.4 559.154 1287.89 556.002 1291.85 553.869C1299.92 549.511 1308.22 545.779 1316.77 542.696C1317 542.626 1317.14 542.371 1317.07 542.139C1317.02 542.024 1316.95 541.931 1316.84 541.861C1308.47 537.179 1299.48 533.98 1289.88 532.287C1287.7 531.893 1283.32 532.195 1276.74 533.215C1266.74 534.768 1257.15 541.143 1249.34 546.521C1248.62 547.007 1248.41 547.749 1248.73 548.723C1248.94 549.372 1248.73 549.743 1248.04 549.836C1247.04 549.975 1246.09 549.951 1245.21 549.766C1244.19 549.534 1244.07 549.071 1244.86 548.398C1261.99 533.377 1282.18 526.052 1304.37 533.794C1306.34 534.49 1309.91 536.089 1315.08 538.593C1318.65 540.331 1322.31 541.56 1326.11 542.279C1331.37 543.275 1336.17 544.226 1340.51 545.107C1342.99 545.617 1344.33 546.497 1344.59 547.749L1344.63 547.796Z" fill="#D2AB68"/>
<path d="M1355.06 617.524C1355.92 616.481 1357.45 614.302 1359.68 611.01C1360.09 610.384 1360.07 609.782 1359.63 609.179C1357.98 606.954 1355.97 606.235 1353.6 607.046C1352.51 607.417 1351.84 608.507 1352 609.643L1353.09 616.806C1353.09 616.898 1353 616.968 1352.91 616.968C1352.86 616.968 1352.82 616.968 1352.79 616.922C1350.52 613.607 1349.71 610.732 1350.4 608.229C1350.8 606.791 1352 605.725 1353.49 605.54C1358.19 604.937 1360.93 606.606 1361.67 610.547C1361.79 611.103 1361.62 611.659 1361.28 612.1L1356.96 617.2C1356.32 617.988 1356.2 618.822 1356.59 619.773C1358.47 624.177 1360.7 627.724 1357.45 632.337C1356.11 634.215 1353.58 634.794 1351.56 633.681C1349.22 632.383 1348.18 630.39 1348.41 627.678C1348.53 626.171 1350.1 622.879 1353.14 617.826C1353.37 617.408 1353.72 617.292 1354.16 617.501C1354.35 617.594 1354.53 617.663 1354.76 617.663C1354.9 617.663 1355.02 617.617 1355.11 617.524H1355.06ZM1358.05 629.602C1358.45 629.161 1358.59 628.558 1358.4 628.002L1356.01 621.233C1355.74 620.399 1354.81 619.958 1354 620.26C1353.65 620.375 1353.35 620.63 1353.16 620.932L1349.36 627.121C1349.04 627.654 1349.04 628.327 1349.36 628.837L1352.17 633.056C1352.65 633.797 1353.63 633.983 1354.37 633.496C1354.46 633.426 1354.55 633.357 1354.65 633.264L1358.05 629.625V629.602Z" fill="#D2AB68"/>
<path d="M1332.39 626.611C1335.2 627.724 1336.61 630.135 1336.68 633.867C1336.77 638.457 1333.27 639.454 1329.52 639.407C1327.5 639.384 1326.3 638.387 1325.93 636.394C1325.3 633.125 1325.42 630.32 1326.27 628.002C1326.99 626.055 1326.44 625.545 1324.58 626.449C1318.69 629.393 1312.76 632.731 1306.8 636.51C1306.8 636.51 1306.78 636.51 1306.75 636.51L1306.43 635.93C1306.31 635.698 1306.34 635.513 1306.55 635.35C1312.57 631.178 1318.97 627.515 1325.76 624.363C1326.44 624.061 1326.83 623.528 1326.95 622.786C1327.11 621.79 1327.46 620.445 1327.99 618.753C1329.73 613.097 1325.76 609.179 1319.83 609.596C1318.6 609.689 1317.67 610.755 1317.77 611.984C1317.77 612.1 1317.79 612.216 1317.81 612.332C1318.58 615.6 1320.45 618.567 1323.47 621.256C1323.7 621.465 1323.75 621.674 1323.58 621.929L1323.21 622.578C1323.12 622.74 1322.91 622.81 1322.75 622.717C1322.75 622.717 1322.7 622.717 1322.68 622.67C1318.32 619.263 1316.33 615.415 1316.75 611.08C1316.95 608.901 1318.9 607.301 1321.08 607.51C1321.34 607.533 1321.59 607.58 1321.85 607.649C1329.52 609.921 1331.74 614.742 1328.52 622.068C1328.22 622.74 1328.38 623.273 1329.05 623.644C1329.22 623.737 1329.38 623.783 1329.59 623.783C1329.84 623.806 1330.1 623.737 1330.38 623.528C1330.72 623.273 1331.28 622.879 1332 622.346C1332.6 621.905 1333.18 621.627 1333.74 621.488C1338.42 620.236 1343.77 619.101 1349.76 618.081C1349.96 618.057 1350.06 618.15 1350.03 618.359L1349.92 619.054C1349.87 619.356 1349.71 619.541 1349.41 619.564C1342.62 620.375 1336.94 621.766 1332.37 623.783C1330.21 624.734 1330.21 625.661 1332.42 626.542L1332.39 626.611ZM1335.13 630.992C1335.13 630.482 1334.92 630.019 1334.53 629.694L1330.05 626.101C1329.36 625.545 1328.36 625.638 1327.78 626.333C1327.55 626.611 1327.43 626.936 1327.41 627.283L1327.04 635.42C1326.99 636.301 1327.66 637.066 1328.57 637.112C1328.61 637.112 1328.64 637.112 1328.68 637.112H1333.39C1334.27 637.112 1334.97 636.394 1334.99 635.513L1335.11 630.969L1335.13 630.992Z" fill="#D2AB68"/>
<path d="M1376.55 622.137C1370.8 620.213 1364.89 619.309 1358.82 619.402C1358.61 619.402 1358.52 619.309 1358.47 619.124L1358.38 618.567C1358.33 618.173 1358.49 617.988 1358.89 617.988C1363.55 618.081 1369.67 618.846 1377.25 620.306C1381.65 621.14 1384.57 619.564 1385.99 615.554C1387.45 611.428 1386.29 610.338 1382.46 612.332C1381.54 612.818 1381.14 614.464 1381.28 617.269C1381.28 617.524 1381.17 617.663 1380.91 617.71L1380.08 617.826C1379.73 617.872 1379.54 617.733 1379.52 617.362C1379.47 613.815 1380.33 611.474 1382.09 610.338C1384.16 609.017 1386.89 609.666 1388.21 611.775C1388.77 612.679 1389 613.769 1388.86 614.812C1388.56 617.107 1386.59 619.216 1383 621.187C1382.32 621.535 1382.3 621.975 1382.88 622.462C1383.88 623.273 1385.78 624.247 1388.58 625.383C1390.32 626.078 1392.13 627.144 1394.03 628.558C1400.78 633.635 1406.71 637.97 1411.83 641.563C1413.29 642.583 1415.01 644.322 1417.03 646.732C1418.63 648.68 1420.53 650.372 1422.73 651.786C1423.01 651.971 1423.03 652.18 1422.82 652.412L1422.34 653.014C1422.24 653.13 1422.15 653.154 1422.01 653.084L1414.92 648.981C1414.25 648.61 1413.85 648.03 1413.78 647.242C1413.71 646.616 1413.67 646.246 1413.67 646.13C1413.62 645.689 1413.39 645.318 1413.02 645.063C1410.05 643.047 1406.9 640.868 1403.56 638.549C1403.54 638.526 1400.57 636.139 1394.63 631.363C1390.21 627.793 1385.32 625.313 1379.98 623.876C1379.2 623.667 1378.55 623.876 1378.01 624.479L1373.79 629.509C1373.35 630.042 1373.42 630.83 1373.93 631.271C1374.14 631.433 1374.4 631.549 1374.65 631.572C1378.66 631.781 1380.75 629.88 1380.93 625.846C1380.93 625.29 1381.21 625.058 1381.77 625.151L1382.37 625.267C1382.49 625.267 1382.56 625.336 1382.56 625.452C1382.9 630.135 1380.66 632.893 1375.83 633.728C1373.96 634.052 1372.17 632.801 1371.85 630.923C1371.71 630.065 1371.89 629.184 1372.36 628.442C1373.15 627.237 1374.61 625.522 1376.81 623.273C1377.36 622.717 1377.27 622.323 1376.53 622.068L1376.55 622.137Z" fill="#D2AB68"/>
<path d="M1298.53 631.827C1298.46 631.781 1298.36 631.734 1298.22 631.711C1295.79 630.923 1294.03 631.039 1292.92 632.036C1291.8 633.009 1291.87 633.913 1293.1 634.748C1295.44 636.324 1298.43 637.251 1302.07 637.553C1302.21 637.553 1302.33 637.669 1302.3 637.831C1302.3 637.831 1302.3 637.854 1302.3 637.877C1302.23 638.132 1302.14 638.271 1302 638.294C1299.45 638.851 1296.58 638.225 1293.36 636.44C1291.9 635.629 1291.18 634.817 1291.15 633.983C1291.11 631.711 1292.82 629.833 1294.96 629.787C1294.98 629.787 1295 629.787 1295.05 629.787C1298.15 629.787 1301.12 631.363 1303.95 634.493C1304.07 634.609 1304.07 634.817 1303.95 634.933C1303.83 635.049 1303.67 635.049 1303.56 634.98L1298.53 631.85V631.827Z" fill="#D2AB68"/>
<path d="M1310.63 643.835C1311.44 643.394 1311.97 642.815 1312.23 642.119C1312.48 641.447 1312.29 640.682 1311.76 640.195C1310.88 639.407 1310.35 638.874 1310.16 638.596C1309.56 637.692 1309.72 637.483 1310.6 637.947C1313.52 639.454 1314.27 641.262 1312.83 643.394C1311.97 644.669 1310.39 645.249 1308.91 644.878C1305.36 643.951 1304.14 641.563 1305.25 637.645C1305.32 637.414 1305.46 637.321 1305.69 637.344L1306.22 637.437C1306.69 637.506 1306.85 637.761 1306.73 638.225C1306.01 640.682 1306.52 642.467 1308.28 643.603C1309.14 644.159 1309.91 644.229 1310.63 643.858V643.835Z" fill="#D2AB68"/>
<path d="M1389.42 653.942C1389.28 654.243 1389.07 654.498 1388.79 654.73C1388.21 655.17 1387.87 655.031 1387.75 654.313C1387.61 653.432 1387.93 652.806 1388.72 652.435C1399.87 647.242 1403.12 663.121 1393.45 667.294C1390.6 668.546 1387.36 668.059 1383.74 665.88C1375.46 660.896 1375.53 649.723 1385.13 646.037C1393.78 642.722 1402.42 642.792 1411.07 646.246C1412.09 646.663 1412.09 647.034 1411 647.335C1410.17 647.567 1409.26 647.474 1408.31 647.08C1399.34 643.441 1387.89 643.927 1381.65 651.878C1377.16 657.604 1380.73 662.82 1386.82 665.277C1390.48 666.784 1393.64 665.81 1396.26 662.426C1399.66 658.021 1396.47 652.783 1391.04 652.898C1390.25 652.898 1389.72 653.269 1389.4 653.965L1389.42 653.942Z" fill="#D2AB68"/>
</g>
<g clip-path="url(#clip1_32_812)">
<path d="M197.155 81.3151C208.143 73.9899 194.142 57.3691 187.698 67.5224C184.22 73.0395 185.194 77.2352 190.688 80.1329C191.94 80.8051 193.191 81.6396 194.443 82.706C195 83.1696 195.37 83.8186 195.486 84.5373C197.063 94.3892 196.622 102.665 194.211 109.387C193.052 112.586 190.387 114.603 186.214 115.461C186.005 115.507 182.041 116.087 174.299 117.199C172.259 117.501 170.822 118.613 169.941 120.561C169.825 120.816 169.871 121.047 170.057 121.279L170.544 121.882C170.845 122.23 171.077 122.206 171.262 121.766L172.375 119.309C172.607 118.752 173.07 118.451 173.743 118.358C178.17 117.779 181.068 117.478 182.459 117.478C191.291 117.385 196.437 113.027 197.944 104.403C199.219 97.0087 198.801 89.8225 196.622 82.8219C196.437 82.196 196.622 81.686 197.155 81.3383V81.3151ZM199.079 70.9763C200.007 72.2049 200.192 73.8044 199.589 75.2185L198.454 77.8611C197.526 80.0169 195.023 81.0137 192.867 80.0865C192.542 79.9474 192.218 79.762 191.94 79.5301L188.648 76.957C187.049 75.7285 186.562 73.5263 187.443 71.7181L189.228 68.1019C190.271 65.9924 192.821 65.1347 194.93 66.1779C195.51 66.4792 196.02 66.8965 196.414 67.4065L199.079 70.9532V70.9763Z" fill="#D2AB68"/>
<path d="M-57.3957 146.616C-62.9359 156.769 -64.5586 167.896 -62.2405 180.02C-58.3229 200.535 -43.5102 217.226 -22.6009 219.683C-13.0967 220.795 -4.17197 219.799 4.1964 216.646C22.5094 209.784 38.458 196.293 52.9925 182.431C53.5952 181.828 54.082 181.921 54.4297 182.709C61.1522 197.29 64.1658 214.56 63.4472 234.542C62.5895 258.372 57.1883 281.275 47.2204 303.297C46.015 305.986 43.0942 312.221 38.458 322.004C36.1862 326.779 35.4908 326.547 36.3717 321.355C37.2526 316.093 37.8089 312.384 38.0871 310.251C40.1734 293.143 35.004 278.493 22.6485 266.323C11.3825 255.219 -1.71478 250.606 -16.6666 252.484C-29.9261 254.176 -39.9867 263.657 -44.5765 276.546C-48.7028 288.09 -47.8219 299.31 -41.9571 310.228C-36.2777 320.822 -27.098 326.872 -14.3948 328.356C-9.10953 328.981 -4.63559 328.077 -0.996155 325.643C13.3761 316.07 16.0883 291.104 -1.08887 282.596C-4.79785 280.765 -8.55319 280.533 -12.3549 281.901C-18.127 283.964 -23.2963 287.626 -23.9918 294.187C-24.6176 300.538 -21.6968 305.244 -15.2061 308.327C-13.6994 309.022 -12.494 309.254 -11.5667 308.953C-6.74506 307.469 -4.54288 301.465 -9.94406 298.8C-11.5435 298.012 -11.6826 298.197 -10.3381 299.402C-7.97363 301.512 -8.15909 304.039 -10.8945 306.983C-11.4508 307.585 -12.3317 307.771 -13.0735 307.423C-16.5043 305.8 -21.1869 302.439 -22.3923 298.336C-23.8295 293.561 -22.3459 289.689 -17.9647 286.699C-11.0104 281.97 -4.7515 281.414 0.788788 285.053C5.14682 287.905 7.67357 292.564 8.41536 299.031C9.64395 309.787 5.72635 320.149 -4.63559 325.597C-6.93051 326.802 -9.54996 327.266 -12.5172 326.988C-25.0349 325.829 -34.3073 320.196 -40.3344 310.066C-44.1361 303.645 -46.1992 294.395 -45.3879 286.977C-43.487 269.754 -34.3537 258.928 -17.9647 254.501C-8.11273 251.858 5.5177 254.315 14.1874 261.733C17.2473 264.329 18.8932 265.743 19.1714 265.975C31.0169 275.827 36.9976 288.461 37.1135 303.923C37.183 311.526 34.5867 320.914 33.1032 328.703C32.7554 330.627 30.3446 334.8 25.8475 341.221C16.436 354.782 5.12366 367.74 -8.04318 380.096C-11.4276 383.248 -14.7193 385.752 -17.9647 387.583C-18.4515 387.861 -18.9615 387.954 -19.5178 387.908C-24.0845 387.421 -28.2802 388.649 -32.1051 391.547C-32.3138 391.593 -32.3369 391.779 -32.1978 392.15C-32.0356 392.497 -31.7806 392.59 -31.4329 392.451C-27.8166 390.898 -25.3131 389.924 -23.9454 389.507C-18.2197 387.792 -17.6865 388.812 -22.3459 392.613C-30.0188 398.919 -38.3872 404.691 -47.4278 409.953C-47.5437 410.046 -47.6596 410.208 -47.7523 410.44C-47.7987 410.556 -47.8451 410.648 -47.9146 410.718L-45.5733 411.436H-44.5997C-33.2642 406.035 -22.6473 398.548 -12.7258 388.997C-11.4972 387.815 -9.54996 387.815 -8.32138 388.997C-6.21191 391.06 -3.03607 391.987 -0.602081 394.468C3.19962 398.339 10.7798 406.035 16.1346 408.284C23.3903 411.297 29.1392 408.701 33.3582 400.449C33.6132 399.985 33.4277 399.405 32.9641 399.15C32.8482 399.081 32.7091 399.058 32.5468 399.035C29.0233 398.919 25.5693 397.806 22.1849 395.743C16.4128 392.266 11.313 389.438 6.81586 387.305C4.28912 386.099 0.417877 385.404 -4.82104 385.219C-5.16876 385.219 -5.35422 385.358 -5.40057 385.682L-5.51648 386.308C-5.56284 386.609 -5.42374 386.772 -5.14557 386.795C0.788788 387.073 5.86543 388.441 10.1076 390.898C17.2241 395.047 23.2512 398.061 28.212 399.962C31.6659 401.283 31.7355 402.767 28.4206 404.413C26.7516 405.247 25.5693 405.85 24.8507 406.197C21.814 407.704 18.8236 407.635 15.8565 406.012C10.1308 402.836 4.56729 398.038 -0.810715 391.64C-0.996155 391.408 -1.22797 391.223 -1.50613 391.107C-4.19513 389.994 -6.32782 388.603 -7.85776 386.911C-8.36774 386.378 -8.36774 385.845 -7.85776 385.311C3.13007 374.161 11.058 366.419 15.9492 362.061C15.9956 362.014 16.0651 361.713 16.1346 361.157C16.2274 360.484 16.4592 359.882 16.8764 359.349C27.8411 345.046 35.6067 333.942 40.1502 326.037C44.8328 317.854 50.489 305.916 57.1187 290.223C58.0692 287.951 59.6918 285.355 61.9404 282.457C63.4472 280.533 65.2553 277.96 67.4343 274.761C72.8123 266.787 81.2966 260.644 92.8871 256.378C99.8182 247.245 103.991 241.357 105.474 238.714C109.392 231.644 109.16 224.157 104.825 216.229C100.745 208.811 93.9303 204.036 84.3565 201.949C83.8465 201.833 83.5915 202.042 83.5915 202.575V203.224C83.5915 204.128 84.3101 204.893 85.2142 204.916C92.3539 205.125 98.1724 208.95 102.716 216.391C107.769 224.759 107.468 232.989 102.067 241.009C100.282 243.675 98.2651 246.387 96.0165 249.169C93.8375 251.858 93.2812 251.51 94.3939 248.126C97.0365 239.92 89.3172 233.939 83.0352 229.535C80.972 228.097 80.4157 225.293 81.7602 223.16C82.502 222.001 84.1478 219.474 86.7209 215.603C87.9495 213.748 87.9264 211.963 88.4132 210.039C88.6218 209.274 88.2741 208.463 87.5786 208.069L86.8832 207.675C86.605 207.49 86.211 207.582 86.0487 207.884C85.9328 208.069 85.9328 208.301 86.0487 208.486C86.9064 210.248 87.0223 211.546 86.4196 212.381C82.4788 217.921 77.3558 223.438 79.9057 229.071C81.227 231.946 84.6578 233.197 87.5091 235.029C88.3204 235.562 89.2708 236.535 90.3604 237.973C93.4434 242.029 93.8839 246.573 91.7048 251.58C90.4299 254.524 88.135 256.772 84.8896 258.349C74.9913 263.124 65.9044 272.651 61.3145 281.646C61.1291 281.993 60.7118 282.156 60.3409 281.97C60.2945 281.97 60.2713 281.924 60.225 281.901C59.9468 281.692 59.7845 281.53 59.715 281.391C59.5991 281.136 59.5527 280.95 59.5991 280.858C60.6886 277.38 62.2649 270.82 64.3512 261.2C70.6101 232.061 68.2688 204.847 57.281 179.556C57.0492 179.023 57.1419 178.536 57.536 178.119C61.4304 173.993 65.8116 169.936 70.6797 165.949C72.3951 164.558 74.0873 163.886 75.7795 163.932C76.4981 163.955 77.1935 163.77 77.8194 163.399C83.2901 160.084 88.4827 160.965 93.3971 166.065C95.0661 167.804 95.3211 169.728 94.1852 171.837C93.8607 172.44 93.1884 173.437 92.1685 174.851C89.5954 178.42 84.8896 177.47 82.0152 174.851C79.9289 172.95 80.2766 170.748 83.012 168.244C84.426 166.946 86.6282 167.062 87.9032 168.453C88.0654 168.638 88.2277 168.847 88.3436 169.055L88.9463 170.075C89.2013 170.516 89.7576 170.701 90.2444 170.469L90.9399 170.122C91.4731 169.867 91.5658 169.519 91.2181 169.032C88.784 165.694 85.9791 164.952 82.8033 166.807C77.0313 170.191 79.1176 177.03 85.191 178.258C89.7345 179.162 93.2116 177.354 95.6456 172.834C96.9206 170.469 97.1756 168.684 96.457 167.433C91.5889 159.041 84.6578 157.395 75.6636 162.518C75.3854 162.681 75.1304 162.657 74.9218 162.426C74.8986 162.379 74.8522 162.31 74.8059 162.194C74.7363 162.055 74.7363 161.939 74.8059 161.869C84.4956 150.534 96.4802 143.788 110.737 141.586C112.985 141.238 114.979 141.771 116.694 143.185C116.995 143.44 117.25 143.394 117.459 143.069L117.83 142.42C117.992 142.142 118.201 142.073 118.479 142.188C119.035 142.443 119.244 142.884 119.058 143.533C117.181 150.047 116.207 154.637 116.138 157.279C115.952 165.161 119.708 170.353 127.38 172.648C134.497 174.781 140.037 172.95 143.978 167.131C144.674 166.111 146.041 162.379 148.081 155.958C149.727 150.835 152.416 146.245 156.148 142.119C158.003 140.079 159.254 138.248 159.95 136.579C160.413 135.489 161.225 134.84 162.407 134.608C163.103 134.469 163.867 134.33 164.679 134.214C165.861 134.006 166.093 134.4 165.328 135.35C162.43 139.059 160.622 142.235 159.904 144.831C156.38 157.673 153.691 166.39 151.883 171.003C150.562 174.387 148.243 177.285 144.882 179.719C142.216 181.666 138.925 182.57 134.984 182.454C127.798 182.199 121.261 179.44 115.419 174.178C112.846 171.883 110.899 168.569 109.577 164.234C108.557 160.919 108.789 157.813 110.227 154.915C111.988 151.461 113.866 148.702 115.929 146.662C116.115 146.477 116.161 146.268 116.068 146.037L115.836 145.295C115.79 145.179 115.674 145.109 115.558 145.132C115.535 145.132 115.512 145.156 115.489 145.179C108.094 152.11 105.868 159.366 108.812 166.969C113.24 178.444 125.201 184.123 137.186 183.961C149.217 183.798 154.178 171.513 157.215 160.641C160.228 149.815 163.288 141.354 166.371 135.281C166.672 134.678 167.113 134.214 167.716 133.913C168.99 133.241 170.034 132.36 170.799 131.27C171.448 130.32 172.746 130.088 173.696 130.737C173.928 130.899 174.137 131.108 174.299 131.363C176.71 135.281 177.289 139.87 175.991 145.156C175.829 145.851 175.365 146.245 174.647 146.268C172.746 146.361 171.17 147.821 169.918 150.65C167.414 156.422 176.177 161.406 179.677 156.908C181.091 155.1 181.161 153.199 179.886 151.229C177.405 147.404 176.849 143.417 178.217 139.314C178.448 138.619 178.472 137.923 178.217 137.228L176.524 131.803C176.269 130.992 176.548 130.691 177.382 130.853C190.201 133.403 203.113 134.84 216.141 135.211C216.581 135.211 216.859 135.002 216.929 134.562L217.022 133.936C217.068 133.658 216.883 133.38 216.581 133.333C216.535 133.333 216.512 133.333 216.465 133.333C210.044 133.519 203.716 133.264 197.434 132.568C196.993 132.522 196.692 132.383 196.576 132.174C196.46 132.012 196.414 131.803 196.46 131.548C196.506 131.224 196.692 131.015 197.016 130.923C201.629 129.671 204.481 128.512 205.593 127.422C214.147 119.216 222.655 109.596 234.361 105.957C235.706 105.539 237.143 106.165 237.745 107.44C239.136 110.384 241.315 111.937 244.259 112.123C249.243 112.447 253.277 112.494 254.899 107.231C255.108 106.536 255.085 105.817 254.784 105.145C252.72 100.069 248.919 97.565 243.378 97.6577C240.759 97.7041 238.673 99.8367 237.12 104.079C236.888 104.682 236.471 104.937 235.821 104.844L234.523 104.658C233.758 104.542 233.017 104.612 232.298 104.89C226.595 107.116 222.098 109.781 218.783 112.888C213.15 118.173 208.653 122.346 205.292 125.359C203.322 127.144 200.099 128.187 197.851 129.416C196.645 130.065 195.417 130.366 194.142 130.32C184.73 129.949 178.472 129.022 175.365 127.538C167.368 123.736 161.758 117.663 158.536 109.387C156.38 103.87 153.737 98.6081 151.303 93.2301C148.823 87.7594 144.929 84.4445 139.597 83.2623C131.762 81.5005 123.834 83.4941 115.86 89.2198C107.862 94.9455 103.805 102.549 103.689 111.984C103.574 121.604 106.888 129.648 113.634 136.092C114.028 136.463 114.028 137.089 113.634 137.46C113.472 137.645 113.217 137.738 112.985 137.761C101.07 138.317 90.4067 142.629 80.972 150.65C72.4878 157.859 64.0267 165.903 55.5424 174.735C55.1252 175.175 54.7311 175.129 54.4066 174.619C49.6544 167.479 45.0182 161.313 40.5211 156.167C39.3157 154.776 38.0639 152.527 36.8121 149.398C35.9544 147.312 34.5404 145.109 32.5236 142.791C31.0169 141.029 27.957 137.065 23.3208 130.853C22.8108 130.158 22.9962 129.763 23.8539 129.694C27.4238 129.393 30.4605 128.025 32.9873 125.591C33.5204 125.058 33.6132 124.478 33.2423 123.852L31.0169 120.004C30.7155 119.517 30.2055 119.216 29.6492 119.193C26.0561 119.147 23.3903 120.862 21.6517 124.362C21.4431 124.756 21.4199 125.127 21.5358 125.475C21.6517 125.776 21.8372 126.008 22.1385 126.124C22.5326 126.309 22.8803 126.194 23.1585 125.799L25.6389 122.23C26.5661 120.908 27.702 120.653 29.0928 121.465L29.9505 121.951C31.3878 122.786 31.55 123.806 30.4142 125.035C28.2352 127.399 24.8044 128.21 20.1218 127.445C19.4959 127.353 18.9164 127.028 18.5223 126.541C14.9061 122.322 10.038 117.987 3.91823 113.56C3.26917 113.096 3.31552 112.702 4.05731 112.401C7.0013 111.195 9.3194 108.947 11.0348 105.655C13.4225 101.019 9.18031 96.5682 4.68318 97.6577C1.22922 98.4922 -0.671616 101.112 -0.37027 104.705C-0.184814 106.791 -0.0920868 108.159 -0.0457306 108.831C0.000640869 109.41 -0.462997 109.92 -1.04251 109.944C-1.29752 109.944 -1.55249 109.874 -1.73795 109.735C-5.86417 106.698 -11.1263 103.638 -17.5474 100.532C-18.1501 100.231 -18.2661 99.8135 -17.9415 99.234C-17.1997 97.9127 -16.1566 97.7968 -15.3916 96.0582C-10.0831 84.0736 -27.0749 80.6428 -26.7271 91.5147C-26.6808 93.091 -24.8726 95.6641 -21.3491 99.2572C-20.8855 99.7208 -20.9319 100.115 -21.4882 100.463C-25.0581 102.572 -26.8894 104.519 -27.0285 106.281C-27.2371 109.271 -26.0781 111.195 -23.6209 112.053C-21.6273 112.749 -19.4483 111.682 -18.776 109.712C-18.6369 109.318 -18.5674 108.877 -18.5674 108.46V103.731C-18.5674 102.85 -18.1501 102.572 -17.3388 102.873C-12.9808 104.496 -8.18228 107.324 -2.96655 111.358C-2.29431 111.845 -2.31747 112.331 -3.01291 112.772C-8.04318 116.087 -9.96722 121.256 -2.897 124.246C-1.83069 124.687 -0.602081 124.478 0.232437 123.69C2.481 121.65 3.31551 119.309 2.7128 116.713C2.41144 115.391 2.82872 115.113 3.94141 115.878C8.76306 119.216 13.1675 123.18 17.1778 127.793C17.5487 128.234 17.5023 128.883 17.0619 129.253C16.8996 129.393 16.6678 129.485 16.436 129.508C14.4193 129.624 13.7006 131.757 14.2338 135.837C14.4424 137.367 13.8629 137.761 12.5184 137.019C-1.0657 129.508 -15.8784 127.283 -31.9197 130.343C-41.8412 132.244 -50.3718 137.645 -57.5347 146.523L-57.3957 146.616ZM113.518 133.31C109.786 129.207 107.584 125.776 106.935 123.018C102.415 104.172 109.044 91.7465 126.824 85.7426C132.735 83.7259 138.16 84.0041 143.097 86.5308C145.276 87.6435 147.2 89.5212 148.869 92.187C151.28 96.0582 152.648 98.4459 152.996 99.3731C156.728 109.179 160.135 119.031 167.808 125.359C172.352 129.091 171.726 130.482 165.931 129.485C163.891 129.138 161.387 128.187 158.374 126.634C156.45 125.637 154.433 123.875 152.37 121.349C147.177 115.09 143.816 110.987 142.286 109.063C135.865 100.949 129.05 99.0949 121.817 103.476C114.33 108.02 112.73 119.703 114.654 127.098C115.86 131.803 116.717 135.095 117.181 136.996C117.227 137.274 117.181 137.506 116.972 137.691C116.764 137.9 116.532 137.993 116.323 138.039C115.767 138.085 115.419 137.854 115.234 137.32L114.492 135.002C114.283 134.376 113.982 133.82 113.541 133.333L113.518 133.31ZM-16.4348 89.892C-15.8089 90.5643 -15.5771 91.5379 -15.832 92.4188L-16.7825 95.7105C-17.1997 97.1245 -18.6601 97.9359 -20.051 97.5186C-20.7 97.3332 -21.2332 96.9159 -21.5809 96.3364L-24.4554 91.5843C-25.2204 90.3325 -24.8263 88.7098 -23.5745 87.9448C-23.4818 87.8985 -23.389 87.8289 -23.2963 87.7826L-21.5577 86.9712C-20.5146 86.4844 -19.2628 86.7394 -18.4747 87.5971L-16.3884 89.8689L-16.4348 89.892ZM238.974 103.337C239.878 100.3 243.842 98.7936 247.806 99.9758C251.77 101.158 254.25 104.589 253.346 107.626C252.442 110.662 248.478 112.169 244.514 110.987C240.55 109.805 238.07 106.374 238.974 103.337ZM7.41856 99.6049C9.62076 100.463 10.4785 102.062 9.96848 104.403C9.29623 107.486 5.86543 108.228 4.86865 110.616C4.63684 111.172 4.24275 111.404 3.64005 111.335C3.33868 111.311 3.08371 111.242 2.87508 111.172C2.64328 111.08 2.43463 110.964 2.20282 110.778C1.71602 110.43 1.57693 109.967 1.78555 109.41C2.68962 107.023 0.672882 104.125 2.31873 101.413C3.54733 99.3499 5.26273 98.7472 7.44174 99.6281L7.41856 99.6049ZM161.549 132.151C153.366 133.751 146.574 131.711 141.15 126.054C138.392 123.18 134.08 121.024 130.927 119.657C129.42 119.031 127.682 119.286 126.453 120.352C121.238 124.849 120.264 130.552 123.486 137.506C123.602 137.738 123.625 138.039 123.532 138.294C123.277 138.99 122.721 139.291 121.84 139.198C121.469 139.152 121.098 138.966 120.867 138.688C119.847 137.506 119.105 136.463 118.688 135.536C114.608 126.564 114.515 117.987 118.386 109.781C121.284 103.662 125.48 101.297 130.95 102.734C141.961 105.609 147.038 118.544 152.207 124.478C154.618 127.283 158.768 129.485 164.656 131.085C165.027 131.177 165.235 131.548 165.119 131.919C165.073 132.082 164.98 132.197 164.864 132.29C164.331 132.638 163.728 132.661 163.01 132.29C162.546 132.082 162.036 132.035 161.549 132.128V132.151ZM-23.2732 110.778C-24.5481 110.407 -25.0813 108.275 -24.4322 106.003C-23.7831 103.731 -22.23 102.178 -20.955 102.526C-19.6801 102.897 -19.1469 105.029 -19.796 107.301C-20.4451 109.573 -21.9982 111.126 -23.2732 110.778ZM-3.96332 121.627C-4.7515 121.163 -5.23828 120.514 -5.49326 119.68C-5.7019 118.984 -5.56284 118.335 -5.09921 117.779C-2.34067 114.58 -0.416626 113.328 0.69606 114C1.80875 114.696 1.57695 116.991 -0.0225525 120.885C-0.30072 121.581 -0.810699 121.998 -1.55249 122.114C-2.41019 122.276 -3.22153 122.114 -3.98651 121.627H-3.96332ZM145.879 133.241C145.833 133.171 145.786 133.148 145.717 133.171C140.455 134.307 135.169 136.347 129.884 139.244C127.775 140.404 125.132 139.639 123.973 137.552C123.648 136.95 123.463 136.301 123.44 135.605C123.324 131.502 122.791 128.048 124.738 125.405C125.943 123.806 127.102 122.461 128.238 121.418C129.119 120.607 130.394 120.445 131.46 121.024C137.07 124.061 142.147 128.094 146.69 133.102C147.154 133.612 147.733 133.82 148.406 133.751C149.495 133.635 150.237 133.751 150.608 134.121C151.28 134.747 151.164 135.165 150.237 135.35C148.336 135.721 146.319 136.903 144.187 138.874C139.736 142.977 143.422 151.577 134.752 152.017C129.05 152.319 125.711 149.838 124.761 144.553C124.483 142.953 125.549 141.424 127.149 141.145C127.241 141.145 127.334 141.122 127.427 141.099C129.305 140.937 130.997 140.519 132.457 139.847C138.878 136.926 143.352 135.095 145.925 134.353C146.273 134.261 146.366 134.052 146.18 133.751L145.879 133.217V133.241ZM19.3568 130.32L22.0226 132.916C22.3935 133.264 22.3935 133.866 22.0226 134.237L21.8835 134.376C20.0522 136.254 17.711 136.95 16.6678 135.93L16.5055 135.744C15.4624 134.724 16.0883 132.36 17.8964 130.482L18.0355 130.343C18.3832 129.972 18.9859 129.972 19.3568 130.343V130.32ZM-15.9247 189.316C-15.0439 188.064 -14.0934 186.487 -13.0967 184.563C-12.7721 183.938 -12.3085 183.428 -11.6826 183.057C-5.14557 179.209 0.858322 180.484 6.30586 186.835C10.803 192.074 11.2898 197.939 7.71992 204.43C4.33549 210.596 -0.787537 214.235 -7.62595 215.325C-27.8398 218.547 -42.8843 211.755 -52.7363 194.972C-57.5579 186.742 -59.7138 177.516 -59.1806 167.317C-57.4189 133.936 -22.7168 126.912 3.08372 136.926C23.3671 144.785 39.5011 158.23 51.5089 177.261C51.8566 177.818 51.7871 178.328 51.3235 178.791C40.892 188.968 28.7451 198.426 14.9292 207.142C11.4057 209.367 8.39217 210.735 5.91179 211.222C5.14682 211.384 5.03091 211.152 5.54091 210.573C15.1379 199.283 13.747 189.431 1.32193 180.97C-6.28143 175.801 -15.067 180.507 -16.4579 189.13C-16.5738 189.941 -16.4116 189.988 -15.9479 189.316H-15.9247ZM141.845 149.908C142.865 146.987 143.63 142.42 145.369 140.195C147.502 137.506 151.929 136.393 154.131 135.443C160.159 132.823 161.016 133.982 156.705 138.966C151.442 145.017 147.896 151.809 146.064 159.342C143.885 168.314 137.325 173.692 128.099 171.373C124.599 170.493 122.026 169.055 120.357 167.062C115.257 160.872 117.25 154.08 120.102 146.709C121.353 143.487 122.512 143.51 123.625 146.778C123.718 147.01 123.95 147.706 124.321 148.865C124.599 149.653 124.97 150.232 125.433 150.603C129.977 154.011 134.775 154.544 139.829 152.156C140.756 151.716 141.475 150.905 141.822 149.931L141.845 149.908ZM20.9331 137.622C21.5358 137.32 22.3935 136.602 23.5062 135.512C24.0162 135.026 24.4798 135.049 24.9203 135.605C27.7483 139.129 30.4605 142.884 33.0336 146.848C33.3813 147.381 33.8681 147.891 34.494 148.401C35.6299 149.282 36.1862 149.746 36.2094 149.769C36.4876 150.186 36.4876 150.557 36.2094 150.835C36.0703 150.997 35.8849 151.113 35.6531 151.16C35.3749 151.206 35.0736 151.113 34.7027 150.881C29.6492 147.682 24.2016 142.49 16.5983 139.268C16.5983 139.268 16.5751 139.268 16.5519 139.221C16.5287 139.129 16.4824 138.966 16.436 138.688C16.3896 138.317 16.5287 138.155 16.8996 138.201C18.5455 138.364 19.89 138.155 20.9099 137.622H20.9331ZM176.988 148.656L179.399 154.034C179.746 154.799 179.399 155.68 178.657 156.028L178.263 156.19C175.643 157.372 172.746 156.584 171.772 154.428L171.633 154.08C170.66 151.948 172.004 149.236 174.623 148.076L174.994 147.914C175.759 147.566 176.64 147.914 176.988 148.656Z" fill="#D2AB68"/>
<path d="M227.569 141.632C228.867 142.629 230.698 142.374 231.695 141.076L233.156 139.152C235.752 135.744 235.149 130.899 231.811 128.373L231.324 128.002C227.986 125.452 223.165 126.17 220.568 129.578L219.131 131.502C218.158 132.8 218.413 134.631 219.687 135.605L227.592 141.609L227.569 141.632ZM232.507 131.873C233.341 132.847 233.596 134.214 233.179 135.443L232.298 138.016C231.649 139.917 229.563 140.937 227.662 140.288C227.152 140.102 226.688 139.824 226.294 139.453L222.261 135.536C220.823 134.145 220.777 131.827 222.168 130.389C222.214 130.343 222.261 130.297 222.307 130.25L224.416 128.303C225.9 126.935 228.195 127.051 229.563 128.535C229.586 128.558 229.609 128.604 229.655 128.628L232.483 131.942L232.507 131.873Z" fill="#D2AB68"/>
<path d="M-4.77466 189.571C2.96782 187.878 5.17 199.168 -2.4102 201.3C-7.3014 202.668 -12.1462 200.141 -13.908 195.065C-14.3484 193.79 -14.6498 192.978 -14.8352 192.654C-16.5275 189.594 -17.0374 189.802 -16.3652 193.233C-15.4379 198.032 -9.59633 204.151 -4.14878 203.549C-0.555716 203.178 2.0174 201.323 3.54735 197.985C5.47138 193.743 4.10369 190.567 -0.602066 188.481C-4.00968 186.974 -8.76181 188.551 -9.13271 192.607C-9.24861 193.929 -8.80815 194.879 -7.81137 195.482C-7.00003 195.969 -6.6987 195.76 -6.93051 194.856C-7.3014 193.349 -7.32459 192.26 -7.02324 191.541C-6.55961 190.475 -5.8178 189.826 -4.77466 189.594V189.571Z" fill="#D2AB68"/>
<path d="M95.3676 256.796C102.276 255.544 109.068 254.385 115.767 253.365C119.151 252.832 121.91 253.017 124.042 253.921C127.612 255.405 130.997 256.17 134.706 258.001C142.75 262.035 148.638 264.77 152.37 266.184C156.125 267.621 159.741 268.525 163.218 268.942C165.768 269.244 169.292 268.386 173.743 266.323C178.889 263.959 184.035 261.71 189.181 259.554C183.34 260.11 177.289 262.29 171.077 266.068C170.636 266.346 168.921 266.763 165.977 267.32C161.596 268.154 152.115 265.002 148.151 262.869C140.084 258.511 131.785 254.779 123.231 251.696C122.999 251.626 122.86 251.371 122.93 251.139C122.976 251.024 123.046 250.931 123.162 250.861C131.53 246.179 140.524 242.98 150.121 241.287C152.3 240.893 156.681 241.195 163.265 242.215C173.256 243.768 182.853 250.143 190.665 255.521C191.383 256.007 191.592 256.749 191.268 257.723C191.059 258.372 191.268 258.743 191.963 258.836C192.96 258.975 193.91 258.951 194.791 258.766C195.811 258.534 195.927 258.071 195.139 257.398C178.008 242.377 157.817 235.052 135.633 242.794C133.663 243.49 130.093 245.089 124.923 247.593C121.354 249.331 117.691 250.56 113.889 251.279C108.627 252.275 103.829 253.226 99.4938 254.107C97.0134 254.617 95.6689 255.497 95.4139 256.749L95.3676 256.796Z" fill="#D2AB68"/>
<path d="M84.9361 326.524C84.0784 325.481 82.5484 323.302 80.323 320.01C79.9058 319.384 79.929 318.782 80.3694 318.179C82.0152 315.954 84.032 315.235 86.3965 316.046C87.486 316.417 88.1582 317.507 87.9959 318.643L86.9065 325.806C86.9065 325.898 86.9992 325.968 87.0919 325.968C87.1383 325.968 87.1846 325.968 87.2078 325.922C89.4795 322.607 90.2909 319.732 89.5954 317.229C89.2014 315.791 87.996 314.725 86.5124 314.54C81.8066 313.937 79.0713 315.606 78.3295 319.547C78.2136 320.103 78.3758 320.659 78.7235 321.1L83.0352 326.2C83.6843 326.988 83.8002 327.822 83.4061 328.773C81.5284 333.177 79.3031 336.724 82.5484 341.337C83.8929 343.215 86.4196 343.794 88.4364 342.681C90.7777 341.383 91.8208 339.39 91.589 336.678C91.4731 335.171 89.8968 331.879 86.8601 326.826C86.6283 326.408 86.2806 326.292 85.8401 326.501C85.6547 326.594 85.4692 326.663 85.2374 326.663C85.0983 326.663 84.9824 326.617 84.8897 326.524H84.9361ZM81.9457 338.602C81.5516 338.161 81.4125 337.558 81.598 337.002L83.9856 330.233C84.2638 329.399 85.191 328.958 86.0024 329.26C86.3501 329.375 86.6514 329.63 86.8369 329.932L90.6386 336.121C90.9631 336.654 90.9631 337.327 90.6386 337.837L87.8337 342.056C87.3469 342.797 86.3733 342.983 85.6315 342.496C85.5388 342.426 85.446 342.357 85.3533 342.264L81.9457 338.625V338.602Z" fill="#D2AB68"/>
<path d="M107.607 335.611C104.802 336.724 103.388 339.135 103.319 342.867C103.226 347.457 106.726 348.454 110.481 348.407C112.498 348.384 113.704 347.387 114.075 345.394C114.7 342.125 114.585 339.32 113.727 337.002C113.008 335.055 113.565 334.545 115.419 335.449C121.307 338.393 127.241 341.731 133.199 345.51C133.199 345.51 133.222 345.51 133.245 345.51L133.57 344.93C133.686 344.698 133.663 344.513 133.454 344.35C127.427 340.178 121.029 336.515 114.237 333.363C113.565 333.061 113.171 332.528 113.055 331.786C112.892 330.79 112.545 329.445 112.011 327.753C110.273 322.097 114.237 318.179 120.171 318.596C121.4 318.689 122.327 319.755 122.234 320.984C122.234 321.1 122.211 321.216 122.188 321.332C121.423 324.6 119.545 327.567 116.532 330.256C116.3 330.465 116.254 330.674 116.416 330.929L116.787 331.578C116.879 331.74 117.088 331.81 117.25 331.717C117.25 331.717 117.297 331.717 117.32 331.67C121.678 328.263 123.672 324.415 123.254 320.08C123.046 317.901 121.098 316.301 118.919 316.51C118.664 316.533 118.409 316.58 118.154 316.649C110.482 318.921 108.256 323.742 111.478 331.068C111.78 331.74 111.617 332.273 110.945 332.644C110.783 332.737 110.621 332.783 110.412 332.783C110.157 332.806 109.902 332.737 109.624 332.528C109.276 332.273 108.72 331.879 108.001 331.346C107.398 330.905 106.819 330.627 106.263 330.488C101.58 329.236 96.2252 328.101 90.2444 327.081C90.0358 327.057 89.9431 327.15 89.9663 327.359L90.0822 328.054C90.1285 328.356 90.2908 328.541 90.5922 328.564C97.3842 329.375 103.064 330.766 107.63 332.783C109.786 333.734 109.786 334.661 107.584 335.542L107.607 335.611ZM104.872 339.992C104.872 339.482 105.08 339.019 105.474 338.694L109.948 335.101C110.644 334.545 111.641 334.638 112.22 335.333C112.452 335.611 112.568 335.936 112.591 336.283L112.962 344.42C113.008 345.301 112.336 346.066 111.432 346.112C111.386 346.112 111.362 346.112 111.316 346.112H106.61C105.729 346.112 105.034 345.394 105.011 344.513L104.895 339.969L104.872 339.992Z" fill="#D2AB68"/>
<path d="M63.4472 331.137C69.1961 329.213 75.1072 328.309 81.1807 328.402C81.3893 328.402 81.482 328.309 81.5284 328.124L81.6211 327.567C81.6675 327.173 81.5052 326.988 81.1111 326.988C76.4517 327.081 70.3319 327.846 62.7517 329.306C58.3473 330.14 55.4265 328.564 54.0125 324.554C52.5521 320.428 53.7111 319.338 57.536 321.332C58.4632 321.818 58.8573 323.464 58.7182 326.269C58.7182 326.524 58.8341 326.663 59.0891 326.71L59.9236 326.826C60.2713 326.872 60.4568 326.733 60.48 326.362C60.5263 322.815 59.6686 320.474 57.9069 319.338C55.8438 318.017 53.1084 318.666 51.7871 320.775C51.2307 321.679 50.9989 322.769 51.138 323.812C51.4394 326.107 53.4098 328.216 57.0028 330.187C57.6751 330.535 57.6983 330.975 57.1187 331.462C56.1219 332.273 54.2211 333.247 51.4162 334.383C49.6776 335.078 47.8695 336.144 45.9686 337.558C39.2229 342.635 33.2886 346.97 28.1656 350.563C26.7052 351.583 24.9898 353.322 22.973 355.732C21.3735 357.68 19.4727 359.372 17.2705 360.786C16.9923 360.971 16.9691 361.18 17.1778 361.412L17.6646 362.014C17.7573 362.13 17.85 362.154 17.9891 362.084L25.0825 357.981C25.7548 357.61 26.1488 357.03 26.2184 356.242C26.2879 355.616 26.3343 355.246 26.3343 355.13C26.3806 354.689 26.6125 354.318 26.9834 354.063C29.9505 352.047 33.1032 349.868 36.4412 347.549C36.4644 347.526 39.4316 345.139 45.3659 340.363C49.7935 336.793 54.6847 334.313 60.0164 332.876C60.8045 332.667 61.4536 332.876 61.9868 333.479L66.2057 338.509C66.6461 339.042 66.5766 339.83 66.0666 340.271C65.858 340.433 65.603 340.549 65.348 340.572C61.3377 340.781 59.2514 338.88 59.0659 334.846C59.0659 334.29 58.7878 334.058 58.2314 334.151L57.6287 334.267C57.5128 334.267 57.4433 334.336 57.4433 334.452C57.0955 339.135 59.3441 341.893 64.1658 342.728C66.0434 343.052 67.8284 341.801 68.1529 339.923C68.292 339.065 68.1065 338.184 67.6429 337.442C66.8548 336.237 65.3944 334.522 63.1922 332.273C62.6358 331.717 62.7285 331.323 63.4703 331.068L63.4472 331.137Z" fill="#D2AB68"/>
<path d="M141.475 340.827C141.544 340.781 141.637 340.734 141.776 340.711C144.21 339.923 145.972 340.039 147.084 341.036C148.197 342.009 148.128 342.913 146.899 343.748C144.558 345.324 141.567 346.251 137.928 346.553C137.789 346.553 137.673 346.669 137.696 346.831C137.696 346.831 137.696 346.854 137.696 346.877C137.766 347.132 137.858 347.271 137.997 347.294C140.547 347.851 143.422 347.225 146.644 345.44C148.104 344.629 148.823 343.817 148.846 342.983C148.893 340.711 147.177 338.833 145.044 338.787C145.021 338.787 144.998 338.787 144.952 338.787C141.846 338.787 138.878 340.363 136.05 343.493C135.934 343.609 135.934 343.817 136.05 343.933C136.166 344.049 136.328 344.049 136.444 343.98L141.475 340.85V340.827Z" fill="#D2AB68"/>
<path d="M129.374 352.835C128.563 352.394 128.03 351.815 127.775 351.119C127.52 350.447 127.705 349.682 128.238 349.195C129.119 348.407 129.652 347.874 129.838 347.596C130.44 346.692 130.278 346.483 129.397 346.947C126.477 348.454 125.735 350.262 127.172 352.394C128.03 353.669 129.606 354.249 131.09 353.878C134.636 352.951 135.865 350.563 134.752 346.645C134.683 346.414 134.544 346.321 134.312 346.344L133.779 346.437C133.315 346.506 133.153 346.761 133.269 347.225C133.987 349.682 133.477 351.467 131.715 352.603C130.858 353.159 130.093 353.229 129.374 352.858V352.835Z" fill="#D2AB68"/>
<path d="M50.5817 362.942C50.7208 363.243 50.9294 363.498 51.2076 363.73C51.7871 364.17 52.1348 364.031 52.2507 363.313C52.3898 362.432 52.0653 361.806 51.2771 361.435C40.1271 356.242 36.8817 372.121 46.5482 376.294C49.3995 377.546 52.6448 377.059 56.2611 374.88C64.5367 369.896 64.4672 358.723 54.8702 355.037C46.2237 351.722 37.5771 351.792 28.9306 355.246C27.9106 355.663 27.9106 356.034 29.0001 356.335C29.8347 356.567 30.7387 356.474 31.6892 356.08C40.6602 352.441 52.1117 352.927 58.3474 360.878C62.8445 366.604 59.2746 371.82 53.178 374.277C49.5154 375.784 46.3628 374.81 43.7433 371.426C40.3357 367.021 43.5347 361.783 48.959 361.898C49.7472 361.898 50.2803 362.269 50.6049 362.965L50.5817 362.942Z" fill="#D2AB68"/>
</g>
<defs>
<clipPath id="clip0_32_812">
<rect width="411" height="411" fill="white" transform="translate(1179 291)"/>
</clipPath>
<clipPath id="clip1_32_812">
<rect width="411" height="411" fill="white" transform="matrix(-1 0 0 1 261 0)"/>
</clipPath>
</defs>
</svg>
