<svg width="271" height="329" viewBox="0 0 271 329" fill="none" xmlns="http://www.w3.org/2000/svg">
<path d="M-42.3957 64.6161C-47.9359 74.7694 -49.5586 85.8963 -47.2405 98.02C-43.3229 118.535 -28.5102 135.226 -7.60089 137.683C1.90332 138.795 10.828 137.799 19.1964 134.646C37.5094 127.784 53.458 114.293 67.9925 100.431C68.5952 99.8281 69.082 99.9208 69.4297 100.709C76.1522 115.29 79.1658 132.56 78.4472 152.542C77.5895 176.372 72.1883 199.275 62.2204 221.297C61.015 223.986 58.0942 230.221 53.458 240.004C51.1862 244.779 50.4908 244.547 51.3717 239.355C52.2526 234.093 52.8089 230.384 53.0871 228.251C55.1734 211.143 50.004 196.493 37.6485 184.323C26.3825 173.219 13.2852 168.606 -1.66656 170.484C-14.9261 172.176 -24.9867 181.657 -29.5765 194.546C-33.7028 206.09 -32.8219 217.31 -26.9571 228.228C-21.2777 238.822 -12.098 244.872 0.605194 246.356C5.89047 246.981 10.3644 246.077 14.0038 243.643C28.3761 234.07 31.0883 209.104 13.9111 200.596C10.2021 198.765 6.44681 198.533 2.64511 199.901C-3.12695 201.964 -8.29633 205.626 -8.99176 212.187C-9.61765 218.538 -6.69684 223.244 -0.206146 226.327C1.30063 227.022 2.50604 227.254 3.43329 226.953C8.25494 225.469 10.4571 219.465 5.05594 216.8C3.45645 216.011 3.31738 216.197 4.6619 217.402C7.02637 219.512 6.84091 222.039 4.10553 224.983C3.54919 225.585 2.6683 225.771 1.92651 225.423C-1.50427 223.8 -6.18686 220.439 -7.39227 216.336C-8.8295 211.561 -7.34592 207.689 -2.96469 204.699C3.98962 199.97 10.2485 199.414 15.7888 203.053C20.1468 205.905 22.6736 210.564 23.4154 217.031C24.644 227.787 20.7263 238.149 10.3644 243.597C8.06949 244.802 5.45004 245.266 2.48285 244.988C-10.0349 243.829 -19.3073 238.196 -25.3344 228.066C-29.1361 221.644 -31.1992 212.395 -30.3879 204.977C-28.487 187.754 -19.3537 176.928 -2.96469 172.501C6.88727 169.858 20.5177 172.315 29.1874 179.733C32.2473 182.329 33.8932 183.743 34.1714 183.975C46.0169 193.827 51.9976 206.461 52.1135 221.923C52.183 229.526 49.5867 238.914 48.1032 246.703C47.7554 248.627 45.3446 252.8 40.8475 259.221C31.436 272.782 20.1237 285.74 6.95682 298.096C3.57239 301.248 0.28067 303.752 -2.96469 305.583C-3.45148 305.861 -3.96146 305.954 -4.51779 305.908C-9.08447 305.421 -13.2802 306.649 -17.1051 309.547C-17.3138 309.593 -17.3369 309.779 -17.1978 310.15C-17.0356 310.497 -16.7806 310.59 -16.4329 310.451C-12.8166 308.898 -10.3131 307.924 -8.9454 307.507C-3.2197 305.792 -2.68652 306.812 -7.34592 310.613C-15.0188 316.919 -23.3872 322.691 -32.4278 327.953C-32.5437 328.046 -32.6596 328.208 -32.7523 328.44C-32.7987 328.556 -32.8451 328.648 -32.9146 328.718L-30.5733 329.436H-29.5997C-18.2642 324.035 -7.64728 316.548 2.27423 306.997C3.50281 305.815 5.45004 305.815 6.67862 306.997C8.78809 309.06 11.9639 309.987 14.3979 312.468C18.1996 316.339 25.7798 324.035 31.1346 326.284C38.3903 329.297 44.1392 326.701 48.3582 318.449C48.6132 317.985 48.4277 317.405 47.9641 317.15C47.8482 317.081 47.7091 317.058 47.5468 317.035C44.0233 316.919 40.5693 315.806 37.1849 313.743C31.4128 310.266 26.313 307.438 21.8159 305.305C19.2891 304.099 15.4179 303.404 10.179 303.219C9.83124 303.219 9.64578 303.358 9.59943 303.682L9.48352 304.308C9.43716 304.609 9.57626 304.772 9.85443 304.795C15.7888 305.073 20.8654 306.441 25.1076 308.898C32.2241 313.047 38.2512 316.061 43.212 317.962C46.6659 319.283 46.7355 320.767 43.4206 322.413C41.7516 323.247 40.5693 323.85 39.8507 324.197C36.814 325.704 33.8236 325.635 30.8565 324.012C25.1308 320.836 19.5673 316.038 14.1893 309.64C14.0038 309.408 13.772 309.222 13.4939 309.107C10.8049 307.994 8.67218 306.603 7.14224 304.911C6.63226 304.378 6.63226 303.845 7.14224 303.311C18.1301 292.161 26.058 284.419 30.9492 280.061C30.9956 280.014 31.0651 279.713 31.1346 279.157C31.2274 278.484 31.4592 277.882 31.8764 277.349C42.8411 263.046 50.6067 251.942 55.1502 244.037C59.8328 235.854 65.489 223.916 72.1187 208.223C73.0692 205.951 74.6918 203.355 76.9404 200.457C78.4472 198.533 80.2553 195.96 82.4343 192.761C87.8123 184.787 96.2966 178.644 107.887 174.378C114.818 165.245 118.991 159.357 120.474 156.714C124.392 149.644 124.16 142.157 119.825 134.229C115.745 126.811 108.93 122.036 99.3565 119.949C98.8465 119.833 98.5915 120.042 98.5915 120.575V121.224C98.5915 122.128 99.3101 122.893 100.214 122.916C107.354 123.125 113.172 126.95 117.716 134.391C122.769 142.759 122.468 150.989 117.067 159.009C115.282 161.675 113.265 164.387 111.017 167.169C108.838 169.858 108.281 169.51 109.394 166.126C112.036 157.92 104.317 151.939 98.0352 147.535C95.972 146.097 95.4157 143.293 96.7602 141.16C97.502 140.001 99.1478 137.474 101.721 133.603C102.95 131.748 102.926 129.963 103.413 128.039C103.622 127.274 103.274 126.463 102.579 126.069L101.883 125.675C101.605 125.489 101.211 125.582 101.049 125.884C100.933 126.069 100.933 126.301 101.049 126.486C101.906 128.248 102.022 129.546 101.42 130.381C97.4788 135.921 92.3558 141.438 94.9057 147.071C96.227 149.946 99.6578 151.197 102.509 153.029C103.32 153.562 104.271 154.535 105.36 155.973C108.443 160.029 108.884 164.573 106.705 169.58C105.43 172.524 103.135 174.772 99.8896 176.349C89.9913 181.124 80.9044 190.651 76.3145 199.646C76.1291 199.993 75.7118 200.156 75.3409 199.97C75.2945 199.97 75.2713 199.924 75.225 199.901C74.9468 199.692 74.7845 199.53 74.715 199.391C74.5991 199.136 74.5527 198.95 74.5991 198.858C75.6886 195.38 77.2649 188.82 79.3512 179.2C85.6101 150.061 83.2688 122.847 72.281 97.5563C72.0492 97.0232 72.1419 96.5364 72.536 96.1191C76.4304 91.9929 80.8116 87.9362 85.6797 83.9491C87.3951 82.5582 89.0873 81.8859 90.7795 81.9323C91.4981 81.9555 92.1935 81.77 92.8194 81.3991C98.2901 78.0843 103.483 78.9651 108.397 84.065C110.066 85.8035 110.321 87.7276 109.185 89.837C108.861 90.4397 108.188 91.4365 107.168 92.8506C104.595 96.4205 99.8896 95.47 97.0152 92.8506C94.9289 90.9497 95.2766 88.7475 98.012 86.244C99.426 84.9458 101.628 85.0617 102.903 86.4526C103.065 86.6381 103.228 86.8467 103.344 87.0553L103.946 88.0753C104.201 88.5157 104.758 88.7012 105.244 88.4694L105.94 88.1217C106.473 87.8667 106.566 87.5189 106.218 87.0321C103.784 83.6941 100.979 82.9523 97.8033 84.8068C92.0313 88.1912 94.1176 95.0296 100.191 96.2582C104.734 97.1622 108.212 95.3541 110.646 90.8338C111.921 88.4694 112.176 86.6844 111.457 85.4326C106.589 77.0411 99.6578 75.3953 90.6636 80.5183C90.3854 80.6805 90.1304 80.6573 89.9218 80.4255C89.8986 80.3792 89.8522 80.3096 89.8059 80.1937C89.7363 80.0546 89.7363 79.9387 89.8059 79.8692C99.4956 68.5337 111.48 61.788 125.737 59.5858C127.985 59.2381 129.979 59.7712 131.694 61.1853C131.995 61.4403 132.25 61.3939 132.459 61.0694L132.83 60.4203C132.992 60.1421 133.201 60.0726 133.479 60.1885C134.035 60.4435 134.244 60.8839 134.058 61.533C132.181 68.0469 131.207 72.6367 131.138 75.2793C130.952 83.1609 134.708 88.3534 142.38 90.6484C149.497 92.781 155.037 90.9497 158.978 85.1313C159.674 84.1113 161.041 80.3792 163.081 73.958C164.727 68.835 167.416 64.2452 171.148 60.1189C173.003 58.079 174.254 56.2477 174.95 54.5787C175.413 53.4892 176.225 52.8401 177.407 52.6083C178.103 52.4692 178.867 52.3301 179.679 52.2142C180.861 52.0056 181.093 52.3997 180.328 53.3501C177.43 57.059 175.622 60.2348 174.904 62.8311C171.38 75.6734 168.691 84.3895 166.883 89.0025C165.562 92.387 163.243 95.2846 159.882 97.7186C157.216 99.6658 153.925 100.57 149.984 100.454C142.798 100.199 136.261 97.4404 130.419 92.1783C127.846 89.8834 125.899 86.5685 124.577 82.2337C123.557 78.9188 123.789 75.8125 125.227 72.9149C126.988 69.4609 128.866 66.7024 130.929 64.6624C131.115 64.477 131.161 64.2683 131.068 64.0365L130.836 63.2947C130.79 63.1788 130.674 63.1093 130.558 63.1325C130.535 63.1325 130.512 63.1557 130.489 63.1788C123.094 70.11 120.868 77.3656 123.812 84.969C128.24 96.4436 140.201 102.123 152.186 101.961C164.217 101.798 169.178 89.5125 172.215 78.6406C175.228 67.815 178.288 59.354 181.371 53.2805C181.672 52.6778 182.113 52.2142 182.716 51.9128C183.99 51.2406 185.034 50.3597 185.799 49.2702C186.448 48.3198 187.746 48.088 188.696 48.737C188.928 48.8993 189.137 49.1079 189.299 49.3629C191.71 53.2805 192.289 57.8704 190.991 63.1557C190.829 63.8511 190.365 64.2452 189.647 64.2683C187.746 64.3611 186.17 65.8215 184.918 68.6496C182.414 74.4216 191.177 79.4056 194.677 74.9084C196.091 73.1003 196.161 71.1995 194.886 69.2291C192.405 65.4042 191.849 61.4171 193.217 57.314C193.448 56.6186 193.472 55.9232 193.217 55.2277L191.524 49.8034C191.269 48.992 191.548 48.6907 192.382 48.853C205.201 51.4029 218.113 52.8401 231.141 53.211C231.581 53.211 231.859 53.0024 231.929 52.5619L232.022 51.936C232.068 51.6579 231.883 51.3797 231.581 51.3333C231.535 51.3333 231.512 51.3333 231.465 51.3333C225.044 51.5188 218.716 51.2638 212.434 50.5684C211.993 50.522 211.692 50.3829 211.576 50.1743C211.46 50.012 211.414 49.8034 211.46 49.5484C211.506 49.2238 211.692 49.0152 212.016 48.9225C216.629 47.6707 219.481 46.5117 220.593 45.4222C229.147 37.2161 237.655 27.5959 249.361 23.9565C250.706 23.5392 252.143 24.1651 252.745 25.4401C254.136 28.3841 256.315 29.9372 259.259 30.1227C264.243 30.4472 268.277 30.4936 269.899 25.2315C270.108 24.536 270.085 23.8174 269.784 23.1452C267.72 18.0685 263.919 15.565 258.378 15.6577C255.759 15.7041 253.673 17.8367 252.12 22.0788C251.888 22.6815 251.471 22.9365 250.821 22.8438L249.523 22.6584C248.758 22.5425 248.017 22.612 247.298 22.8902C241.595 25.1156 237.098 27.7814 233.783 30.8876C228.15 36.1729 223.653 40.3455 220.292 43.359C218.322 45.144 215.099 46.1871 212.851 47.4157C211.645 48.0648 210.417 48.3661 209.142 48.3198C199.73 47.9489 193.472 47.0216 190.365 45.5381C182.368 41.7364 176.758 35.6629 173.536 27.3873C171.38 21.8702 168.737 16.6081 166.303 11.2301C163.823 5.75938 159.929 2.44449 154.597 1.26226C146.762 -0.499499 138.834 1.49407 130.86 7.21979C122.862 12.9455 118.805 20.5489 118.689 29.9836C118.574 39.6037 121.888 47.6475 128.634 54.0919C129.028 54.4628 129.028 55.0886 128.634 55.4595C128.472 55.645 128.217 55.7377 127.985 55.7609C116.07 56.3173 105.407 60.6289 95.972 68.6496C87.4878 75.8589 79.0267 83.9027 70.5424 92.7347C70.1252 93.1751 69.7311 93.1287 69.4066 92.6188C64.6544 85.479 60.0182 79.3128 55.5211 74.1667C54.3157 72.7758 53.0639 70.5272 51.8121 67.3978C50.9544 65.3115 49.5404 63.1093 47.5236 60.7912C46.0169 59.0294 42.957 55.0655 38.3208 48.853C37.8108 48.1575 37.9962 47.7634 38.8539 47.6939C42.4238 47.3925 45.4605 46.0249 47.9873 43.5909C48.5204 43.0577 48.6132 42.4782 48.2423 41.8523L46.0169 38.0042C45.7155 37.5174 45.2055 37.2161 44.6492 37.1929C41.0561 37.1465 38.3903 38.8619 36.6517 42.3623C36.4431 42.7563 36.4199 43.1272 36.5358 43.4749C36.6517 43.7763 36.8372 44.0081 37.1385 44.124C37.5326 44.3095 37.8803 44.1936 38.1585 43.7995L40.6389 40.2296C41.5661 38.9083 42.702 38.6533 44.0928 39.4646L44.9505 39.9514C46.3878 40.7859 46.55 41.8059 45.4142 43.0345C43.2352 45.399 39.8044 46.2103 35.1218 45.4453C34.4959 45.3526 33.9164 45.0281 33.5223 44.5413C29.9061 40.3223 25.038 35.9875 18.9182 31.5599C18.2692 31.0963 18.3155 30.7022 19.0573 30.4008C22.0013 29.1954 24.3194 26.9469 26.0348 23.6552C28.4225 19.0189 24.1803 14.5682 19.6832 15.6577C16.2292 16.4922 14.3284 19.1117 14.6297 22.7047C14.8152 24.791 14.9079 26.1587 14.9543 26.831C15.0006 27.4105 14.537 27.9205 13.9575 27.9436C13.7025 27.9436 13.4475 27.8741 13.2621 27.735C9.13583 24.6983 3.87375 21.6384 -2.54742 18.5321C-3.15012 18.2308 -3.26605 17.8135 -2.9415 17.234C-2.19971 15.9127 -1.15656 15.7968 -0.391602 14.0582C4.91687 2.0736 -12.0749 -1.3572 -11.7271 9.51471C-11.6808 11.091 -9.87262 13.6641 -6.34912 17.2572C-5.8855 17.7208 -5.93185 18.1149 -6.48819 18.4626C-10.0581 20.5721 -11.8894 22.5193 -12.0285 24.281C-12.2371 27.2714 -11.0781 29.1954 -8.62088 30.0531C-6.62729 30.7486 -4.44827 29.6822 -3.77603 27.7118C-3.63693 27.3178 -3.56738 26.8773 -3.56738 26.4601V21.7311C-3.56738 20.8502 -3.15015 20.5721 -2.33881 20.8734C2.01923 22.4961 6.81772 25.3242 12.0334 29.3577C12.7057 29.8445 12.6825 30.3313 11.9871 30.7717C6.95682 34.0866 5.03278 39.256 12.103 42.2463C13.1693 42.6868 14.3979 42.4782 15.2324 41.69C17.481 39.6501 18.3155 37.3088 17.7128 34.7125C17.4114 33.3912 17.8287 33.113 18.9414 33.878C23.7631 37.2161 28.1675 41.18 32.1778 45.7931C32.5487 46.2335 32.5023 46.8826 32.0619 47.2535C31.8996 47.3925 31.6678 47.4853 31.436 47.5085C29.4193 47.6244 28.7006 49.757 29.2338 53.8369C29.4424 55.3668 28.8629 55.7609 27.5184 55.0191C13.9343 47.5084 -0.878387 45.2831 -16.9197 48.343C-26.8412 50.2438 -35.3718 55.645 -42.5347 64.5233L-42.3957 64.6161ZM128.518 51.3101C124.786 47.2071 122.584 43.7763 121.935 41.0178C117.415 22.1716 124.044 9.74652 141.824 3.74263C147.735 1.72588 153.16 2.00406 158.097 4.53079C160.276 5.64348 162.2 7.52114 163.869 10.187C166.28 14.0582 167.648 16.4458 167.996 17.3731C171.728 27.1787 175.135 37.0306 182.808 43.359C187.352 47.0912 186.726 48.4821 180.931 47.4853C178.891 47.1376 176.387 46.1871 173.374 44.634C171.45 43.6372 169.433 41.8755 167.37 39.3487C162.177 33.0898 158.816 28.9868 157.286 27.0628C150.865 18.9494 144.05 17.0949 136.817 21.4761C129.33 26.0196 127.73 37.7029 129.654 45.0976C130.86 49.8034 131.717 53.0951 132.181 54.9959C132.227 55.2741 132.181 55.5059 131.972 55.6914C131.764 55.9 131.532 55.9927 131.323 56.0391C130.767 56.0854 130.419 55.8536 130.234 55.3205L129.492 53.0024C129.283 52.3765 128.982 51.8201 128.541 51.3333L128.518 51.3101ZM-1.43475 7.89204C-0.808868 8.56429 -0.577057 9.53789 -0.832031 10.4188L-1.78247 13.7105C-2.19971 15.1245 -3.66013 15.9359 -5.05099 15.5186C-5.70004 15.3332 -6.23322 14.9159 -6.58093 14.3364L-9.45538 9.58426C-10.2204 8.33248 -9.82626 6.70981 -8.57449 5.94483C-8.48175 5.89847 -8.38904 5.82893 -8.29633 5.78256L-6.55774 4.97123C-5.51459 4.48443 -4.26282 4.73942 -3.47467 5.59712L-1.38837 7.86886L-1.43475 7.89204ZM253.974 21.337C254.878 18.3003 258.842 16.7936 262.806 17.9758C266.77 19.158 269.25 22.5888 268.346 25.6255C267.442 28.6623 263.478 30.169 259.514 28.9868C255.55 27.8046 253.07 24.3738 253.974 21.337ZM22.4186 17.6049C24.6208 18.4626 25.4785 20.0621 24.9685 22.4034C24.2962 25.4865 20.8654 26.2282 19.8687 28.6159C19.6368 29.1722 19.2428 29.4041 18.64 29.3345C18.3387 29.3113 18.0837 29.2418 17.8751 29.1722C17.6433 29.0795 17.4346 28.9636 17.2028 28.7782C16.716 28.4305 16.5769 27.9668 16.7856 27.4105C17.6896 25.0228 15.6729 22.1252 17.3187 19.413C18.5473 17.3499 20.2627 16.7472 22.4417 17.6281L22.4186 17.6049ZM176.549 50.1511C168.366 51.7506 161.574 49.7107 156.15 44.0545C153.392 41.18 149.08 39.0242 145.927 37.6565C144.42 37.0306 142.682 37.2856 141.453 38.3519C136.238 42.8491 135.264 48.5516 138.486 55.5059C138.602 55.7377 138.625 56.0391 138.532 56.2941C138.277 56.9895 137.721 57.2909 136.84 57.1981C136.469 57.1518 136.098 56.9663 135.867 56.6881C134.847 55.5059 134.105 54.4628 133.688 53.5355C129.608 44.5645 129.515 35.9875 133.386 27.7814C136.284 21.6616 140.48 19.2971 145.95 20.7343C156.961 23.6088 162.038 36.5438 167.207 42.4782C169.618 45.2831 173.768 47.4853 179.656 49.0848C180.027 49.1775 180.235 49.5484 180.119 49.9193C180.073 50.0815 179.98 50.1975 179.864 50.2902C179.331 50.6379 178.728 50.6611 178.01 50.2902C177.546 50.0815 177.036 50.0352 176.549 50.1279V50.1511ZM-8.27316 28.7782C-9.5481 28.4073 -10.0813 26.2746 -9.43219 24.0029C-8.78314 21.7311 -7.23001 20.178 -5.95505 20.5257C-4.68008 20.8966 -4.14691 23.0293 -4.79599 25.301C-5.44507 27.5728 -6.9982 29.1259 -8.27316 28.7782ZM11.0367 39.6269C10.2485 39.1633 9.76172 38.5142 9.50674 37.6797C9.2981 36.9843 9.43716 36.3352 9.90079 35.7788C12.6593 32.5799 14.5834 31.3281 15.6961 32.0003C16.8087 32.6958 16.577 34.9907 14.9774 38.8851C14.6993 39.5805 14.1893 39.9978 13.4475 40.1137C12.5898 40.276 11.7785 40.1137 11.0135 39.6269H11.0367ZM160.879 51.2406C160.833 51.1711 160.786 51.1479 160.717 51.1711C155.455 52.3069 150.169 54.3469 144.884 57.2445C142.775 58.4035 140.132 57.6386 138.973 55.5523C138.648 54.9496 138.463 54.3005 138.44 53.6051C138.324 49.502 137.791 46.048 139.738 43.4054C140.943 41.8059 142.102 40.4614 143.238 39.4183C144.119 38.6069 145.394 38.4447 146.46 39.0242C152.07 42.0609 157.147 46.0944 161.69 51.1015C162.154 51.6115 162.733 51.8201 163.406 51.7506C164.495 51.6347 165.237 51.7506 165.608 52.1215C166.28 52.7474 166.164 53.1646 165.237 53.3501C163.336 53.721 161.319 54.9032 159.187 56.8736C154.736 60.9766 158.422 69.5768 149.752 70.0172C144.05 70.3186 140.711 67.8382 139.761 62.5529C139.483 60.9535 140.549 59.4235 142.149 59.1453C142.241 59.1453 142.334 59.1222 142.427 59.099C144.305 58.9367 145.997 58.5195 147.457 57.8472C153.878 54.9264 158.352 53.0951 160.925 52.3533C161.273 52.2606 161.366 52.0519 161.18 51.7506L160.879 51.2174V51.2406ZM34.3568 48.3198L37.0226 50.9161C37.3935 51.2638 37.3935 51.8665 37.0226 52.2374L36.8835 52.3765C35.0522 54.2541 32.711 54.9496 31.6678 53.9296L31.5055 53.7442C30.4624 52.7242 31.0883 50.3597 32.8964 48.4821L33.0355 48.343C33.3832 47.9721 33.9859 47.9721 34.3568 48.343V48.3198ZM-0.924744 107.316C-0.0438538 106.064 0.906555 104.487 1.90332 102.563C2.22787 101.938 2.6915 101.428 3.31738 101.057C9.85443 97.2086 15.8583 98.4836 21.3059 104.835C25.803 110.074 26.2898 115.939 22.7199 122.43C19.3355 128.596 14.2125 132.235 7.37405 133.325C-12.8398 136.547 -27.8843 129.755 -37.7363 112.972C-42.5579 104.742 -44.7138 95.5164 -44.1806 85.3167C-42.4189 51.936 -7.7168 44.9122 18.0837 54.9264C38.3671 62.7848 54.5011 76.2298 66.5089 95.2614C66.8566 95.8177 66.7871 96.3277 66.3235 96.7914C55.892 106.968 43.7451 116.426 29.9292 125.142C26.4057 127.367 23.3922 128.735 20.9118 129.222C20.1468 129.384 20.0309 129.152 20.5409 128.573C30.1379 117.283 28.747 107.431 16.3219 98.9704C8.71857 93.801 -0.0670471 98.5068 -1.45792 107.13C-1.57382 107.941 -1.41156 107.988 -0.947937 107.316H-0.924744ZM156.845 67.9078C157.865 64.987 158.63 60.4203 160.369 58.1949C162.502 55.5059 166.929 54.3932 169.131 53.4428C175.159 50.8233 176.016 51.9824 171.705 56.9663C166.442 63.0166 162.896 69.8086 161.064 77.3425C158.885 86.3135 152.325 91.6915 143.099 89.3734C139.599 88.4925 137.026 87.0553 135.357 85.0617C130.257 78.8724 132.25 72.0804 135.102 64.7088C136.353 61.4866 137.512 61.5098 138.625 64.7783C138.718 65.0101 138.95 65.7056 139.321 66.8646C139.599 67.6528 139.97 68.2323 140.433 68.6032C144.977 72.0108 149.775 72.544 154.829 70.1563C155.756 69.7159 156.475 68.9046 156.822 67.931L156.845 67.9078ZM35.9331 55.6218C36.5358 55.3205 37.3935 54.6019 38.5062 53.5123C39.0162 53.0255 39.4798 53.0487 39.9203 53.6051C42.7483 57.1286 45.4605 60.8839 48.0336 64.8479C48.3813 65.381 48.8681 65.891 49.494 66.401C50.6299 67.2819 51.1862 67.7455 51.2094 67.7687C51.4876 68.1859 51.4876 68.5568 51.2094 68.835C51.0703 68.9973 50.8849 69.1132 50.6531 69.1596C50.3749 69.2059 50.0736 69.1132 49.7027 68.8814C44.6492 65.6824 39.2016 60.4898 31.5983 57.2677C31.5983 57.2677 31.5751 57.2677 31.5519 57.2213C31.5287 57.1286 31.4824 56.9663 31.436 56.6881C31.3896 56.3173 31.5287 56.155 31.8996 56.2013C33.5455 56.3636 34.89 56.155 35.9099 55.6218H35.9331ZM191.988 66.656L194.399 72.034C194.746 72.799 194.399 73.6799 193.657 74.0276L193.263 74.1898C190.643 75.3721 187.746 74.5839 186.772 72.4281L186.633 72.0804C185.66 69.9477 187.004 67.2355 189.623 66.0765L189.994 65.9142C190.759 65.5665 191.64 65.9142 191.988 66.656Z" fill="#D2AB68"/>
</svg>
