<svg width="85" height="72" viewBox="0 0 85 72" fill="none" xmlns="http://www.w3.org/2000/svg">
<path d="M41.5799 25.3697C40.7893 23.9051 39.8982 22.4971 38.9128 21.1558V10.6444C38.9128 9.93702 39.1938 9.25865 39.694 8.75848C40.1942 8.25832 40.8725 7.97733 41.5799 7.97733C42.2872 7.97733 42.9656 8.25832 43.4657 8.75848C43.9659 9.25865 44.2469 9.93702 44.2469 10.6444V21.1558C43.2616 22.4971 42.3704 23.9051 41.5799 25.3697ZM76.4846 8.80411C75.2511 7.21056 72.8641 5.3103 68.5835 5.3103C62.9661 5.3103 55.7618 9.07081 49.3109 15.365C47.4664 17.1526 45.7727 19.0895 44.2469 21.1558V51.9833C44.2469 52.6906 43.9659 53.369 43.4657 53.8691C42.9656 54.3693 42.2872 54.6503 41.5799 54.6503C40.8725 54.6503 40.1942 54.3693 39.694 53.8691C39.1938 53.369 38.9128 52.6906 38.9128 51.9833V21.1558C37.3913 19.09 35.702 17.1531 33.8622 15.365C27.408 9.07081 20.2036 5.3103 14.5762 5.3103C10.2956 5.3103 7.90866 7.21056 6.67516 8.80411C4.40152 11.7278 2.61461 16.8319 6.60515 32.5406C8.62209 40.485 13.1094 43.5421 16.8165 44.6823C14.7949 47.965 14.1469 51.9117 15.0127 55.6685C15.8785 59.4254 18.1886 62.6903 21.4432 64.7571C24.6977 66.8238 28.6351 67.5262 32.4035 66.7122C36.1719 65.8983 39.4684 63.6335 41.5799 60.4077C43.6913 63.6335 46.9878 65.8983 50.7562 66.7122C54.5246 67.5262 58.462 66.8238 61.7166 64.7571C64.9711 62.6903 67.2812 59.4254 68.147 55.6685C69.0129 51.9117 68.3649 47.965 66.3432 44.6823C70.0504 43.5488 74.5343 40.485 76.5546 32.5406C78.7949 23.7261 80.5351 14.0115 76.4846 8.80411Z" fill="#D2AB68"/>
</svg>
