<svg width="24" height="25" viewBox="0 0 24 25" fill="none" xmlns="http://www.w3.org/2000/svg">
<g id="Icon">
<path id="Vector" d="M21.9622 17.4304V20.4252C21.9633 20.7032 21.9064 20.9784 21.795 21.2332C21.6836 21.4879 21.5202 21.7166 21.3154 21.9045C21.1105 22.0925 20.8686 22.2356 20.6053 22.3246C20.3419 22.4137 20.0628 22.4468 19.7859 22.4218C16.714 22.088 13.7633 21.0383 11.1707 19.357C8.75872 17.8243 6.71374 15.7794 5.18105 13.3674C3.49393 10.763 2.444 7.79793 2.11632 4.71224C2.09137 4.43618 2.12418 4.15796 2.21265 3.89527C2.30113 3.63259 2.44333 3.3912 2.6302 3.18649C2.81707 2.98177 3.04453 2.81821 3.29808 2.70621C3.55163 2.59422 3.82572 2.53625 4.1029 2.53599H7.09775C7.58222 2.53122 8.0519 2.70278 8.41924 3.01869C8.78657 3.3346 9.02651 3.7733 9.09431 4.25303C9.22072 5.21145 9.45514 6.15249 9.79311 7.05821C9.92742 7.41551 9.95649 7.80384 9.87687 8.17716C9.79725 8.55048 9.61228 8.89316 9.34388 9.16458L8.07606 10.4324C9.49718 12.9316 11.5665 15.001 14.0658 16.4221L15.3336 15.1543C15.605 14.8859 15.9477 14.7009 16.321 14.6213C16.6943 14.5417 17.0826 14.5707 17.44 14.705C18.3457 15.043 19.2867 15.2774 20.2451 15.4038C20.7301 15.4723 21.1729 15.7165 21.4895 16.0902C21.8061 16.4638 21.9743 16.9408 21.9622 17.4304Z" stroke="white" stroke-width="1.49742" stroke-linecap="round" stroke-linejoin="round"/>
</g>
</svg>
