<svg width="24" height="25" viewBox="0 0 24 25" fill="none" xmlns="http://www.w3.org/2000/svg">
<g id="Icon" clip-path="url(#clip0_8_175)">
<path id="Vector" d="M20.9639 10.4396C20.9639 17.4276 11.9794 23.4173 11.9794 23.4173C11.9794 23.4173 2.99481 17.4276 2.99481 10.4396C2.99481 8.05677 3.94139 5.77152 5.62632 4.08659C7.31125 2.40166 9.59651 1.45508 11.9794 1.45508C14.3622 1.45508 16.6475 2.40166 18.3324 4.08659C20.0173 5.77152 20.9639 8.05677 20.9639 10.4396Z" stroke="white" stroke-width="1.49742" stroke-linecap="round" stroke-linejoin="round"/>
<path id="Vector_2" d="M11.9794 13.4345C13.6334 13.4345 14.9743 12.0937 14.9743 10.4397C14.9743 8.78566 13.6334 7.44482 11.9794 7.44482C10.3254 7.44482 8.98456 8.78566 8.98456 10.4397C8.98456 12.0937 10.3254 13.4345 11.9794 13.4345Z" stroke="white" stroke-width="1.49742" stroke-linecap="round" stroke-linejoin="round"/>
</g>
<defs>
<clipPath id="clip0_8_175">
<rect width="23.9588" height="23.9588" fill="white" transform="translate(0 0.456787)"/>
</clipPath>
</defs>
</svg>
