<?xml version="1.0" encoding="UTF-8"?>
<svg xmlns="http://www.w3.org/2000/svg" version="1.1" viewBox="0 0 1773 1773">
  <defs>
    <style>
      .cls-1 {
        fill: #d2ab68;
      }
    </style>
  </defs>
  <!-- Generator: Adobe Illustrator 28.7.1, SVG Export Plug-In . SVG Version: 1.2.0 Build 142)  -->
  <g>
    <g id="Camada_1">
      <g>
        <path class="cls-1" d="M720.1,901.7c0,0,.2,0,.3,0,0,0,0,0,0-.1,9-62.5,13.8-95.9,14.5-100.3.3-2.3,1.4-8.8,3.2-19.6.1-.6.5-1,1.1-1,2-.2,4.1-.3,6.2-.3,28,0,49.2-.1,63.7,0,.3,0,.6.3.6.6,0,0,0,0,0,0l-35.7,218.1c0,.4-.4.7-.8.7h-88.4c-.3,0-.6-.2-.6-.5-1.4-10.6-3.5-23.8-6.1-39.8-4.2-26.2-7.1-44.1-8.6-53.9-.7-4.4-1.4-8.4-2.3-12-.4-1.9-.8-1.9-1,0-.4,3.7-1,7.4-1.7,11.3-1.1,6.1-1.8,9.9-2,11.3-2,12.5-5.9,36.3-11.8,71.6-.6,3.8-1.2,7.5-1.7,11.2,0,.4-.3.6-.7.7-3.9.2-7.7.3-11.4.2-27.2-.2-52.7-.2-76.6-.1-.3,0-.6-.2-.6-.5l-26.6-162.3c-.2-1.1-.8-1.6-1.9-1.6-31.2,0-63.9,0-98.1,0-3.8,0-7.3,0-10.6.2-.6,0-1.1.5-1.1,1.1v107.7c0,.5.4,1,1,1h16c.4,0,.7-.3.7-.7.4-13.1.4-26.3,0-39.4,0-.5.2-.8.8-.8h69.5c.5,0,.9.4.9.8.4,19.7,0,44.2,0,58.5,0,9.2-.4,15.3-1.3,18.4-4.4,14.1-18.2,17.6-31.8,17.6-55.5,0-87.3,0-95.5,0-6.7,0-12.9-1.4-18.7-4.2-6.9-3.3-10.7-8.7-12.2-15.8-.9-4.4-.8-9-.8-13.8,0-34.2,0-77.4,0-129.5,0-.6-.5-1.1-1.1-1.1l-231.1.2c-.7,0-1-.3-1-1v-52.3c0-.8.4-1.3,1.3-1.3l231.2-.2c.5,0,.7-.2.7-.7v-74c0-.7.6-1.2,1.2-1.2h69.2c.6,0,1.1.5,1.1,1.1h0v74.4c0,.5.4.9.9.9,0,0,0,0,0,0,1.2,0,2.6-.1,4.2-.2,3.3-.1,29.7-.2,79.2-.3,6.3,0,12.9,0,20-.2,23-.3,45.8-.3,68.4-.1.7,0,1.2.5,1.3,1.2,6.6,46.5,12.3,85,17.1,115.7,0,.2.3,1.5.8,3.8.3,1.4.6,1.3.8,0,.5-2.8.4-5.3.9-8.8,6.3-43.2,11.6-80,15.9-110.4.1-.9.9-1.5,1.8-1.5h69.1c.4,0,.7.3.7.6,5.6,40.5,11.4,80.6,17.5,120.4,0,.2.1.3.2.5Z"/>
        <path class="cls-1" d="M893.9,945.3h48.7c.4,0,.7.3.7.7v53.1c0,.3-.3.6-.6.6h-120.1c-.6,0-.9-.3-.9-.9.2-13.6.2-24.5.2-32.8,0-75.2,0-136.7,0-184.3,0-.8.6-1.4,1.4-1.4h119.2c.4,0,.7.3.7.7-.1,18.4,0,36.2.2,53.3,0,.5-.4.9-.9.9,0,0,0,0,0,0h-48.1c-.7,0-1.2.6-1.2,1.2h0v25.1c0,.7.4,1,1,1h48.2c.4,0,.7.3.7.7h0v53.4c0,.5-.4.9-.9.9h-48.3c-.4,0-.8.3-.8.8h0v26.5c0,.3.2.5.5.5Z"/>
        <path class="cls-1" d="M1034.5,861.7c0,.5.4.8.8.8h47.6c.7,0,1.3.6,1.3,1.3h0v52.6c0,.6-.5,1.1-1.1,1.1,0,0,0,0,0,0-8.5,0-23.9,0-46.2,0-.7,0-1.2,0-1.6.2-.6.3-.9.7-.9,1.4v25c0,.6.5,1.1,1.1,1.1h47.4c.7,0,1.3.6,1.3,1.3v52.3c0,.4-.3.7-.7.7-7.8.5-17.1.2-23.1.1-19.5,0-51.6,0-96.1,0-.9,0-1.5-.7-1.5-1.5,0,0,0,0,0,0,.2-8.2.3-15.7.3-22.7,0-26.5-.1-91.4,0-194.7,0-.3.2-.5.5-.5h119.9c.5,0,.8.3.8.8v53c0,.6-.5,1-1.1,1h-47.6c-.6,0-1.1.5-1.1,1.1v25.5Z"/>
        <path class="cls-1" d="M1264.6,1013.3c0,.2.2.4.5.4h389.8c1.1,0,1.6.5,1.6,1.6v51.9c0,.5-.4.9-.9.9-2,0-4.1,0-6.3,0-60.6.1-196.6.2-407.9.1-10.7,0-17.3-.3-19.9-.8-7.6-1.5-14.5-5-20.5-10.4-4.7-4.2-7.3-9.2-7.5-15.2-.5-14.3-.1-28.1-.4-39.6-.2-8.2-.3-14.9-.2-20,0-30.2,0-79.1,0-146.4,0-.4-.3-.7-.7-.7h-15.3c-.6,0-1.1.4-1.3,1-.2.7-.2,2.2-.2,4.4,0,47.6,0,100.3,0,158.2,0,.6-.5,1-1,1h-70.2c-.3,0-.6-.3-.6-.6,0,0,0,0,0,0,.2-2.4.2-4.9.2-7.6,0-76.2,0-146.4,0-210.5,0-.5.2-.8.8-.8h69.7c.5,0,.9.4.9.8.2,4,0,7.6-.3,10.6,0,.6.3,1.1.9,1.1.2,0,.5,0,.7-.1,8.9-5.4,18.8-9,29.5-10.7,11.4-1.8,22.5-2.2,33-1.1,3.4.3,6.8,1.2,10.2,2.6,7.3,3,12,8.1,14,15.5,1.3,4.7,1.1,9.8,1.1,15,0,89.3,0,154.5,0,195.5,0,1.3.1,2.6.4,3.8Z"/>
        <path class="cls-1" d="M1371.6,944.7v-26.1c0-.5-.4-1-1-1-25.7-.2-41.9-.2-48.7,0-6,.1-12-.3-17.9-1.4-9.1-1.6-17.9-7.9-20.3-17-.8-2.9-1.1-6.3-1.1-10.3,0-48.6,0-76,0-82.2.2-18.5,14.3-25.2,30.5-26,4.2-.2,6.9-.3,8.1-.3,27.8,0,55.2,0,82,0,4.1,0,9.1.3,11.8.5,4.7.3,9.2,1.3,13.3,3.1,7.3,3.2,12,8.7,13.8,16.4.4,1.6.6,4.6.6,8.8,0,20.4.1,33.4.2,39.1,0,.3-.2.5-.5.5,0,0,0,0,0,0h-69.9c-.5,0-1-.4-1-1v-11.5c0-.5-.3-.8-.8-.9-5.3-.3-10.5-.3-15.6,0-.6,0-1.1.6-1.1,1.2v25.4c0,.4.3.7.7.7s0,0,0,0c17.9-.1,36.4-.2,55.7-.1,2.6,0,6.7.6,12.1,1.7,7.2,1.5,14,5.5,17.5,12.3,1.9,3.7,2.9,7.6,2.8,11.4-.1,29.6-.1,56.2,0,79.6,0,7.3-.4,12.3-1.4,15-2.8,8.1-9,13.2-18.6,15.4-5,1.1-10.3,1.7-15.8,1.7-45.9,0-76.5,0-91.7,0-15.3,0-31.6-5.9-32.4-23.7-.5-10.7-.6-25.3-.3-43.9,0-.3.3-.6.6-.6h69.9c.6,0,1.2.5,1.2,1.2h0v11.1c0,.9.7,1.6,1.6,1.6h15.1c.4,0,.6-.2.6-.6Z"/>
      </g>
    </g>
  </g>
</svg>