<svg width="166" height="39" viewBox="0 0 166 39" fill="none" xmlns="http://www.w3.org/2000/svg">
<path d="M64.7565 21.1239C64.7565 21.1239 64.7779 21.1239 64.7887 21.1239C64.7887 21.1239 64.7887 21.1239 64.7887 21.1132C65.7547 14.4046 66.2699 10.8196 66.3451 10.3473C66.3773 10.1004 66.4953 9.40273 66.6885 8.24349C66.6993 8.17908 66.7422 8.13615 66.8066 8.13615C67.0213 8.11468 67.2467 8.10395 67.4721 8.10395C70.4775 8.10395 72.7531 8.09322 74.3095 8.10395C74.3417 8.10395 74.3739 8.13615 74.3739 8.16835L70.5419 31.5786C70.5419 31.6215 70.499 31.6537 70.4561 31.6537H60.9675C60.9353 31.6537 60.9031 31.6322 60.9031 31.6C60.7528 30.4623 60.5274 29.0454 60.2483 27.328C59.7975 24.5158 59.4862 22.5945 59.3252 21.5425C59.2501 21.0703 59.1749 20.6409 59.0783 20.2545C59.0354 20.0506 58.9925 20.0506 58.971 20.2545C58.9281 20.6516 58.8637 21.0488 58.7885 21.4674C58.6704 22.1222 58.5953 22.5301 58.5738 22.6803C58.3592 24.022 57.9406 26.5767 57.3073 30.3657C57.2429 30.7735 57.1785 31.1707 57.1248 31.5678C57.1248 31.6108 57.0926 31.6322 57.0497 31.643C56.631 31.6644 56.2232 31.6752 55.826 31.6644C52.9065 31.643 50.1693 31.643 47.604 31.6537C47.5718 31.6537 47.5396 31.6322 47.5396 31.6L44.6844 14.1792C44.663 14.0612 44.5986 14.0075 44.4805 14.0075C41.1316 14.0075 37.6216 14.0075 33.9507 14.0075C33.5428 14.0075 33.1672 14.0075 32.8129 14.029C32.7485 14.029 32.6949 14.0826 32.6949 14.147V25.7072C32.6949 25.7609 32.7378 25.8146 32.8022 25.8146H34.5196C34.5625 25.8146 34.5947 25.7824 34.5947 25.7394C34.6377 24.3333 34.6377 22.9165 34.5947 21.5103C34.5947 21.4567 34.6162 21.4245 34.6806 21.4245H42.1405C42.1942 21.4245 42.2371 21.4674 42.2371 21.5103C42.2801 23.6249 42.2371 26.2546 42.2371 27.7896C42.2371 28.7771 42.1942 29.4318 42.0976 29.7646C41.6253 31.278 40.1441 31.6537 38.6843 31.6537C32.7271 31.6537 29.3138 31.6537 28.4336 31.6537C27.7144 31.6537 27.0489 31.5034 26.4264 31.2029C25.6858 30.8487 25.2779 30.2691 25.1169 29.507C25.0203 29.0347 25.031 28.5409 25.031 28.0257C25.031 24.3548 25.031 19.7178 25.031 14.1256C25.031 14.0612 24.9773 14.0075 24.9129 14.0075L0.107337 14.029C0.0322011 14.029 0 13.9968 0 13.9216V8.30789C0 8.22202 0.0429343 8.16835 0.139538 8.16835L24.9559 8.14688C25.0095 8.14688 25.031 8.12541 25.031 8.07174V0.128799C25.031 0.0536633 25.0954 0 25.1598 0H32.5875C32.6519 0 32.7056 0.0536659 32.7056 0.118068V8.10395C32.7056 8.15762 32.7485 8.20055 32.8022 8.20055C32.931 8.20055 33.0813 8.18981 33.253 8.17908C33.6072 8.16835 36.4409 8.15761 41.7541 8.14688C42.4303 8.14688 43.1388 8.14688 43.9009 8.12541C46.3696 8.09321 48.8169 8.09321 51.2427 8.11468C51.3179 8.11468 51.3715 8.16835 51.3823 8.24349C52.0907 13.2347 52.7025 17.3671 53.2177 20.6624C53.2177 20.6839 53.2499 20.8234 53.3036 21.0703C53.3358 21.2205 53.368 21.2098 53.3895 21.0703C53.4431 20.7697 53.4324 20.5014 53.4861 20.1257C54.1623 15.4887 54.7312 11.5387 55.1927 8.27569C55.2035 8.17908 55.2893 8.11468 55.3859 8.11468H62.8029C62.8459 8.11468 62.8781 8.14688 62.8781 8.17908C63.4791 12.5262 64.1017 16.8305 64.7565 21.1025C64.7565 21.1239 64.7672 21.1347 64.7779 21.1561L64.7565 21.1239Z" fill="#D2AB68"/>
<path d="M83.4117 25.8038H88.639C88.6819 25.8038 88.7141 25.836 88.7141 25.879V31.5785C88.7141 31.6107 88.6819 31.643 88.6497 31.643H75.7585C75.6941 31.643 75.6619 31.6108 75.6619 31.5463C75.6834 30.0866 75.6834 28.9166 75.6834 28.0257C75.6834 19.9539 75.6834 13.3527 75.6834 8.24348C75.6834 8.15761 75.7478 8.0932 75.8337 8.0932H88.6282C88.6712 8.0932 88.7034 8.1254 88.7034 8.16834C88.6926 10.1433 88.7034 12.0539 88.7249 13.8894C88.7249 13.9431 88.6819 13.986 88.6282 13.986H83.4653C83.3902 13.986 83.3365 14.0504 83.3365 14.1148V16.809C83.3365 16.8841 83.3795 16.9163 83.4439 16.9163H88.6175C88.6604 16.9163 88.6926 16.9485 88.6926 16.9914V22.7232C88.6926 22.7769 88.6497 22.8198 88.596 22.8198H83.4117C83.3687 22.8198 83.3258 22.852 83.3258 22.9057V25.7501C83.3258 25.7823 83.3473 25.8038 83.3795 25.8038H83.4117Z" fill="#D2AB68"/>
<path d="M98.5032 16.8304C98.5032 16.8841 98.5461 16.9163 98.5891 16.9163H103.698C103.773 16.9163 103.838 16.9807 103.838 17.0558V22.7018C103.838 22.7662 103.784 22.8198 103.72 22.8198C102.807 22.8198 101.154 22.8198 98.7608 22.8198C98.6857 22.8198 98.632 22.8198 98.5891 22.8413C98.5247 22.8735 98.4925 22.9164 98.4925 22.9916V25.675C98.4925 25.7394 98.5461 25.7931 98.6105 25.7931H103.698C103.773 25.7931 103.838 25.8575 103.838 25.9326V31.5463C103.838 31.5893 103.806 31.6215 103.763 31.6215C102.925 31.6751 101.927 31.6429 101.283 31.6322C99.1902 31.6322 95.7446 31.6322 90.9681 31.6322C90.8715 31.6322 90.8071 31.5571 90.8071 31.4712C90.8286 30.591 90.8393 29.786 90.8393 29.0347C90.8393 26.1902 90.8286 19.224 90.8393 8.13613C90.8393 8.10393 90.8608 8.08246 90.893 8.08246H103.763C103.816 8.08246 103.849 8.11466 103.849 8.16833V13.8572C103.849 13.9216 103.795 13.9645 103.731 13.9645H98.6213C98.5569 13.9645 98.5032 14.0182 98.5032 14.0826V16.8197V16.8304Z" fill="#D2AB68"/>
<path d="M123.201 33.1028C123.201 33.1242 123.223 33.1457 123.255 33.1457H165.095C165.213 33.1457 165.267 33.1994 165.267 33.3174V38.8882C165.267 38.9419 165.224 38.9848 165.17 38.9848C164.956 38.9848 164.73 38.9848 164.494 38.9848C157.989 38.9956 143.392 39.0063 120.711 38.9956C119.563 38.9956 118.854 38.9634 118.575 38.9097C117.76 38.7487 117.019 38.373 116.375 37.7934C115.87 37.3426 115.591 36.8059 115.57 36.1619C115.516 34.627 115.559 33.1457 115.527 31.9113C115.505 31.0312 115.495 30.312 115.505 29.7646C115.505 26.523 115.505 21.2742 115.505 14.0504C115.505 14.0075 115.473 13.9753 115.43 13.9753H113.788C113.724 13.9753 113.67 14.0182 113.648 14.0826C113.627 14.1578 113.627 14.3188 113.627 14.5549C113.627 19.6642 113.627 25.3208 113.627 31.5356C113.627 31.6001 113.573 31.643 113.52 31.643H105.985C105.952 31.643 105.92 31.6108 105.92 31.5786C105.942 31.321 105.942 31.0526 105.942 30.7628C105.942 22.5837 105.942 15.0487 105.942 8.16837C105.942 8.1147 105.963 8.0825 106.028 8.0825H113.509C113.563 8.0825 113.606 8.12543 113.606 8.16837C113.627 8.59771 113.606 8.98413 113.573 9.30614C113.573 9.37054 113.606 9.42421 113.67 9.42421C113.691 9.42421 113.724 9.42421 113.745 9.41347C114.7 8.83385 115.763 8.44745 116.912 8.26497C118.135 8.07177 119.327 8.02883 120.454 8.1469C120.819 8.1791 121.184 8.27571 121.549 8.42598C122.332 8.74799 122.837 9.29541 123.051 10.0897C123.191 10.5942 123.169 11.1416 123.169 11.6998C123.169 21.285 123.169 28.2833 123.169 32.6842C123.169 32.8237 123.18 32.9632 123.212 33.092L123.201 33.1028Z" fill="#D2AB68"/>
<path d="M134.687 25.7394V22.9379C134.687 22.8843 134.644 22.8306 134.579 22.8306C131.821 22.8091 130.082 22.8091 129.352 22.8306C128.708 22.8413 128.064 22.7984 127.431 22.6803C126.454 22.5086 125.509 21.8324 125.252 20.8556C125.166 20.5443 125.134 20.1794 125.134 19.75C125.134 14.5334 125.134 11.5924 125.134 10.9269C125.155 8.94117 126.668 8.22201 128.407 8.13614C128.858 8.11468 129.148 8.10394 129.277 8.10394C132.261 8.10394 135.202 8.10394 138.078 8.10394C138.518 8.10394 139.055 8.13614 139.345 8.15761C139.849 8.18981 140.332 8.29715 140.773 8.49035C141.556 8.83383 142.061 9.42419 142.254 10.2507C142.297 10.4224 142.318 10.7444 142.318 11.1952C142.318 13.3849 142.329 14.7803 142.34 15.3921C142.34 15.4243 142.318 15.4458 142.286 15.4458H134.783C134.729 15.4458 134.676 15.4029 134.676 15.3385V14.1041C134.676 14.0504 134.644 14.0182 134.59 14.0075C134.021 13.9753 133.463 13.9753 132.915 14.0075C132.851 14.0075 132.797 14.0719 132.797 14.1363V16.8626C132.797 16.9056 132.83 16.9378 132.873 16.9378C134.794 16.927 136.78 16.9163 138.851 16.927C139.13 16.927 139.57 16.9914 140.15 17.1095C140.923 17.2705 141.653 17.6999 142.028 18.4298C142.232 18.8269 142.34 19.2455 142.329 19.6534C142.318 22.8306 142.318 25.6857 142.329 28.1974C142.329 28.981 142.286 29.5177 142.179 29.8075C141.878 30.6769 141.213 31.2243 140.182 31.4605C139.646 31.5786 139.077 31.643 138.486 31.643C133.559 31.643 130.275 31.643 128.643 31.643C127.001 31.643 125.252 31.0097 125.166 29.0991C125.112 27.9506 125.101 26.3834 125.134 24.387C125.134 24.3548 125.166 24.3226 125.198 24.3226H132.701C132.765 24.3226 132.83 24.3762 132.83 24.4514V25.6428C132.83 25.7394 132.905 25.8146 133.001 25.8146H134.622C134.665 25.8146 134.687 25.7931 134.687 25.7502V25.7394Z" fill="#D2AB68"/>
</svg>
